<?xml version="1.0" encoding="UTF-8" standalone="no"?>
<!-- Created with Inkscape (http://www.inkscape.org/) -->

<svg
   width="350"
   height="150"
   viewBox="0 0 92.604165 39.687501"
   version="1.1"
   id="svg1794"
   inkscape:version="1.1 (c68e22c387, 2021-05-23)"
   sodipodi:docname="informatique_pf.svg"
   xmlns:inkscape="http://www.inkscape.org/namespaces/inkscape"
   xmlns:sodipodi="http://sodipodi.sourceforge.net/DTD/sodipodi-0.dtd"
   xmlns:xlink="http://www.w3.org/1999/xlink"
   xmlns="http://www.w3.org/2000/svg"
   xmlns:svg="http://www.w3.org/2000/svg">
  <sodipodi:namedview
     id="namedview1796"
     pagecolor="#505050"
     bordercolor="#eeeeee"
     borderopacity="1"
     inkscape:pageshadow="0"
     inkscape:pageopacity="0"
     inkscape:pagecheckerboard="0"
     inkscape:document-units="mm"
     showgrid="false"
     units="px"
     inkscape:zoom="1.2646927"
     inkscape:cx="171.18783"
     inkscape:cy="41.512061"
     inkscape:window-width="1366"
     inkscape:window-height="705"
     inkscape:window-x="-8"
     inkscape:window-y="-8"
     inkscape:window-maximized="1"
     inkscape:current-layer="layer1" />
  <defs
     id="defs1791">
    <linearGradient
       inkscape:collect="always"
       id="linearGradient1341">
      <stop
         style="stop-color:#808000;stop-opacity:1"
         offset="0"
         id="stop1337" />
      <stop
         style="stop-color:#37bc98;stop-opacity:0"
         offset="1"
         id="stop1339" />
    </linearGradient>
    <linearGradient
       inkscape:collect="always"
       id="linearGradient1234">
      <stop
         style="stop-color:#c8b7b7;stop-opacity:1;"
         offset="0"
         id="stop1230" />
      <stop
         style="stop-color:#c8b7b7;stop-opacity:0;"
         offset="1"
         id="stop1232" />
    </linearGradient>
    <inkscape:perspective
       sodipodi:type="inkscape:persp3d"
       inkscape:vp_x="-2.4580479 : 15.569899 : 1"
       inkscape:vp_y="0 : 1110.5721 : 0"
       inkscape:vp_z="97.165987 : 15.569899 : 1"
       inkscape:persp3d-origin="47.353965 : 8.2239279 : 1"
       id="perspective4331" />
    <clipPath
       clipPathUnits="userSpaceOnUse"
       id="clipPath5899">
      <g
         inkscape:label="Clip"
         id="use5901">
        <path
           style="fill:#008080;stroke-width:0.515001;stroke-linejoin:round"
           id="path917"
           sodipodi:type="arc"
           sodipodi:cx="129.92818"
           sodipodi:cy="63.41732"
           sodipodi:rx="11.60073"
           sodipodi:ry="14.178669"
           sodipodi:start="6.1718236"
           sodipodi:end="5.5206839"
           sodipodi:arc-type="arc"
           d="m 141.45705,61.841621 a 11.60073,14.178669 0 0 1 -8.38826,15.224888 11.60073,14.178669 0 0 1 -13.65151,-7.649325 11.60073,14.178669 0 0 1 3.96335,-17.704294 11.60073,14.178669 0 0 1 14.93616,1.910764"
           sodipodi:open="true" />
      </g>
    </clipPath>
    <linearGradient
       inkscape:collect="always"
       xlink:href="#linearGradient1234"
       id="linearGradient1236"
       x1="54.612637"
       y1="41.547016"
       x2="19.467899"
       y2="37.71553"
       gradientUnits="userSpaceOnUse"
       gradientTransform="translate(8.203357,11.400013)" />
    <linearGradient
       inkscape:collect="always"
       xlink:href="#linearGradient1341"
       id="linearGradient1343"
       x1="9.3654222"
       y1="41.459766"
       x2="52.677437"
       y2="5.6369061"
       gradientUnits="userSpaceOnUse"
       gradientTransform="translate(-3.1381141,-0.83683044)" />
  </defs>
  <g
     inkscape:label="Calque 1"
     inkscape:groupmode="layer"
     id="layer1">
    <ellipse
       style="opacity:1;fill:url(#linearGradient1343);fill-opacity:1;stroke-width:1.40211;stroke-linejoin:round"
       id="path5896"
       cx="42.99905"
       cy="16.292019"
       rx="55.818604"
       ry="44.681263" />
    <path
       style="opacity:1;fill:url(#linearGradient1236);fill-opacity:1;stroke-width:2.03533;stroke-linejoin:round"
       id="path5900"
       sodipodi:type="arc"
       sodipodi:cx="60.762981"
       sodipodi:cy="39.03793"
       sodipodi:rx="45.243229"
       sodipodi:ry="34.556107"
       sodipodi:start="0"
       sodipodi:end="5.8615754"
       sodipodi:arc-type="arc"
       d="M 106.00621,39.03793 A 45.243229,34.556107 0 0 1 65.522905,73.40226 45.243229,34.556107 0 0 1 16.521311,46.268695 45.243229,34.556107 0 0 1 46.693954,6.1950593 45.243229,34.556107 0 0 1 102.04432,24.896537"
       sodipodi:open="true"
       transform="matrix(0.92050049,-0.39074141,0.38365216,0.92347768,0,0)" />
    <rect
       style="opacity:1;fill:#00ffff;fill-opacity:1;stroke:#fef2f2;stroke-width:0.485351;stroke-linejoin:round;stroke-opacity:1"
       id="rect3590"
       width="9.9009399"
       height="15.115912"
       x="3.583359"
       y="9.498456" />
    <path
       d="m 52.092676,20.716323 v 2.185768 h 0.455207 v 0.289394 h -8.293728 c -0.357738,0 -0.700736,-0.128015 -0.953648,-0.355953 -0.252911,-0.22794 -0.394949,-0.537079 -0.394949,-0.859498 v -0.340461 c 0,-0.322418 0.142038,-0.631558 0.394949,-0.859499 0.252912,-0.227939 0.59591,-0.355952 0.953648,-0.355952 h 8.293728 v 0.289392 z"
       fill="#2c367c"
       id="path11"
       style="stroke-width:0.179315" />
    <path
       d="m 52.092676,20.716323 v 2.185768 h -7.555198 c -0.366806,0.0053 -0.721897,-0.116438 -0.991622,-0.340463 -0.06304,-0.0543 -0.118231,-0.115415 -0.164319,-0.182147 -0.09328,-0.131077 -0.142985,-0.283432 -0.143554,-0.439196 v -0.26556 c 5.69e-4,-0.155763 0.05024,-0.308118 0.143554,-0.439197 0.04604,-0.06672 0.10123,-0.127842 0.164319,-0.182146 0.269725,-0.224025 0.624816,-0.34591 0.991622,-0.340464 z"
       fill="#ffffff"
       id="path13"
       style="stroke-width:0.179315" />
    <g
       fill="#859dc5"
       opacity="0.5"
       id="g21"
       transform="matrix(-0.18888002,0,0,0.17023114,95.691856,-34.806273)">
      <path
         d="m 230.83,328.15 v 1.07 h 46.09 c -0.244,-0.392 -0.536,-0.751 -0.87,-1.07 z"
         opacity="0.5"
         id="path15" />
      <path
         d="m 277.69,332.05 h -46.86 v 1.07 h 46.86 z"
         opacity="0.5"
         id="path17" />
      <path
         d="M 230.83,335.95 V 337 H 276 c 0.334,-0.319 0.626,-0.678 0.87,-1.07 z"
         opacity="0.5"
         id="path19" />
    </g>
    <path
       d="m 43.039657,18.756964 h 0.978401 v 1.671667 h -0.978401 z"
       fill="#2c367c"
       id="path25"
       style="stroke-width:0.179315" />
    <path
       d="m 44.433598,18.756964 h 0.29276 v 1.671667 h -0.29276 z"
       fill="#2c367c"
       id="path27"
       style="stroke-width:0.179315" />
    <path
       d="m 35.061367,23.165951 v 0.595807 c 0,0.09312 0.04098,0.182319 0.113896,0.248029 0.07305,0.0657 0.172063,0.102653 0.275201,0.102653 h 51.505691 c 0.103165,0 0.202167,-0.03693 0.275129,-0.102653 0.07294,-0.0657 0.11397,-0.154911 0.11397,-0.248029 v -0.595807 c 0,-0.09294 -0.04098,-0.182148 -0.11397,-0.247858 -0.07294,-0.06588 -0.171937,-0.102828 -0.275129,-0.102828 H 35.439126 c -0.103165,0 -0.202101,0.03694 -0.275192,0.102828 -0.07294,0.06571 -0.113894,0.154911 -0.113894,0.247858 z"
       fill="#ff6b6b"
       id="path89"
       style="fill:#28170b;stroke-width:0.179315" />
    <path
       d="m 35.061367,23.165951 v 0.127672 h 52.28577 v -0.127672 c 5.69e-4,-0.07711 -0.02701,-0.152188 -0.07853,-0.213811 -0.05152,-0.06163 -0.124192,-0.10605 -0.206651,-0.126653 H 35.344724 c -0.0822,0.02093 -0.154314,0.06554 -0.205501,0.127163 -0.05121,0.06146 -0.07853,0.136354 -0.07778,0.213301 z"
       fill="#ffffff"
       id="path91"
       style="stroke-width:0.179315" />
    <path
       d="m 36.583738,24.112436 0.315439,0.631557 h 48.861372 l 0.315427,-0.631557 z"
       fill="#533a71"
       id="path93"
       style="fill:#1a1a1a;stroke-width:0.179315" />
    <path
       d="m 82.470253,24.38821 2.491328,19.772349 c 0.01249,0.09925 0.06509,0.190829 0.14758,0.25739 0.08251,0.06638 0.18933,0.10333 0.300074,0.103502 h 0.188879 c 0.06208,0 0.123502,-0.01174 0.18038,-0.03406 0.05691,-0.02248 0.108032,-0.05533 0.150214,-0.09635 0.04216,-0.04104 0.07456,-0.08953 0.09499,-0.142313 0.02044,-0.05294 0.02861,-0.108944 0.02399,-0.164785 L 84.3591,24.388202 Z"
       fill="#533a71"
       id="path95"
       style="fill:#502d16;stroke-width:0.179315" />
    <path
       d="m 72.435066,22.815273 2.398767,-11.88724 c 0.01602,-0.07882 0.0127,-0.159848 -0.0097,-0.237474 -0.0227,-0.07745 -0.06379,-0.149633 -0.120876,-0.211256 -0.05681,-0.06145 -0.128247,-0.110991 -0.208717,-0.145037 -0.08068,-0.03387 -0.168481,-0.05141 -0.25744,-0.05141 H 57.96128 c -0.139198,0 -0.273868,0.04324 -0.381911,0.122227 -0.108044,0.07916 -0.18265,0.189127 -0.211168,0.311863 l -2.85208,12.098327 z"
       fill="#533a71"
       id="path99"
       style="fill:#333333;stroke-width:0.179315" />
    <path
       d="m 71.65499,22.706324 2.357217,-11.679557 c 0.0155,-0.07745 0.01193,-0.157124 -0.01076,-0.233218 -0.02248,-0.07609 -0.06305,-0.146738 -0.119176,-0.207172 -0.05594,-0.06043 -0.125989,-0.108947 -0.205124,-0.142312 -0.07917,-0.03337 -0.16546,-0.05055 -0.252718,-0.05055 h -15.9925 c -0.136563,0 -0.269155,0.04221 -0.375305,0.119672 -0.106396,0.07745 -0.179821,0.185552 -0.20834,0.305906 l -2.801128,11.887239 z"
       fill="#ffffff"
       id="path101"
       style="stroke-width:0.179315" />
    <path
       d="m 53.898373,22.815273 h 17.856719 l 0.01894,-0.09022 2.35722,-11.67956 c 0.01893,-0.09328 0.01473,-0.189127 -0.01206,-0.280711 -0.02678,-0.09158 -0.07573,-0.17687 -0.143165,-0.249558 -0.06724,-0.07286 -0.151667,-0.131249 -0.246864,-0.171423 -0.09521,-0.04017 -0.199078,-0.06094 -0.304283,-0.06094 H 57.432393 c -0.164135,5.1e-4 -0.323173,0.05124 -0.450848,0.144185 -0.127688,0.09278 -0.216658,0.222152 -0.251783,0.366508 z M 71.554875,22.597377 H 54.198693 l 2.772761,-11.756163 c 0.02281,-0.09601 0.08122,-0.181977 0.165834,-0.24394 0.08446,-0.06196 0.189825,-0.09601 0.298806,-0.09652 h 15.988702 c 0.07024,-1.71e-4 0.139769,0.0138 0.203425,0.04069 0.06369,0.0269 0.119746,0.06623 0.164511,0.115076 0.04476,0.04869 0.07704,0.105881 0.09445,0.167337 0.01742,0.06129 0.01948,0.125461 0.0065,0.187595 z"
       fill="#533a71"
       id="path103"
       style="fill:#000000;stroke-width:0.179315" />
    <path
       d="m 46.073073,21.858574 h 25.370371 c 0.377758,0 0.674301,0.214493 0.674301,0.478349 0,0.26386 -0.302214,0.47835 -0.674301,0.47835 H 46.073073 c -0.377759,0 -0.674304,-0.21449 -0.674304,-0.47835 0,-0.26556 0.302214,-0.478349 0.674304,-0.478349 z"
       fill="#533a71"
       id="path105"
       style="fill:#333333;stroke-width:0.179315" />
    <path
       d="m 65.807256,12.141781 -1.992682,8.271531 c -0.01474,0.06111 -0.05218,0.115926 -0.105966,0.155251 -0.05401,0.03933 -0.121255,0.06078 -0.190578,0.06094 H 56.1026 c -0.04626,1.7e-4 -0.09219,-0.0092 -0.133916,-0.02723 -0.04152,-0.01821 -0.0782,-0.04477 -0.10672,-0.07763 -0.02872,-0.03285 -0.04852,-0.07116 -0.0582,-0.11201 -0.0097,-0.04086 -0.0086,-0.08306 0.0022,-0.123587 L 57.8836,12.017514 c 0.01528,-0.06043 0.05303,-0.114397 0.106935,-0.153038 0.05401,-0.03881 0.120695,-0.05974 0.189643,-0.05974 h 7.33043 c 0.04593,0 0.09122,0.0092 0.132593,0.02724 0.04142,0.01786 0.07778,0.04408 0.10629,0.07661 0.02852,0.03234 0.04852,0.0703 0.05852,0.110642 0.0097,0.04034 0.0097,0.08222 -9.26e-4,0.122568 z"
       fill="#b6d4ff"
       id="path107"
       style="fill:#ac9d93;stroke-width:0.179315" />
    <path
       d="m 67.051985,14.560766 h 4.890093 c 0.06971,-1.72e-4 0.137133,-0.02196 0.19115,-0.06163 0.05379,-0.03967 0.091,-0.09483 0.105429,-0.156271 l 0.511868,-2.204494 c 0.0097,-0.03983 0.0086,-0.08103 -0.0022,-0.120524 -0.01076,-0.03949 -0.03078,-0.07644 -0.05907,-0.108094 -0.02852,-0.03148 -0.06421,-0.05702 -0.104998,-0.07473 -0.04067,-0.01753 -0.08521,-0.02673 -0.130332,-0.0269 h -4.880661 c -0.0695,-1.7e-4 -0.136929,0.02127 -0.190955,0.06061 -0.05401,0.03931 -0.09123,0.09429 -0.105537,0.155593 l -0.521303,2.20449 c -0.0097,0.04 -0.0086,0.08138 0.0012,0.121035 0.01075,0.03983 0.03055,0.07696 0.05917,0.108782 0.02829,0.03183 0.06421,0.05754 0.105212,0.07506 0.04077,0.01771 0.08552,0.02705 0.130895,0.02705 z"
       fill="#5ecccd"
       id="path109"
       style="fill:#ffe680;stroke-width:0.179315" />
    <path
       d="m 66.604331,16.457142 h 4.895775 c 0.06971,-1.7e-4 0.137122,-0.02196 0.190955,-0.06163 0.05401,-0.03966 0.09122,-0.09482 0.105536,-0.156272 l 0.107668,-0.461326 c 0.0097,-0.03984 0.0086,-0.08086 -0.0022,-0.120523 -0.01075,-0.03949 -0.03078,-0.07644 -0.05907,-0.108095 -0.02852,-0.03149 -0.06421,-0.05703 -0.104999,-0.07473 -0.04055,-0.01753 -0.08521,-0.02672 -0.130333,-0.0269 h -4.895764 c -0.06929,1.7e-4 -0.136563,0.02163 -0.190579,0.06094 -0.05379,0.03932 -0.09122,0.09415 -0.105966,0.155253 l -0.109561,0.461325 c -0.0097,0.04018 -0.0086,0.08154 0.0011,0.121547 0.01075,0.03984 0.03078,0.07711 0.05949,0.108943 0.02852,0.03183 0.06475,0.05754 0.105966,0.07506 0.04098,0.01753 0.08595,0.02655 0.131463,0.02639 z"
       fill="#ffd7e2"
       id="path111"
       style="fill:#ff8080;stroke-width:0.179315" />
    <path
       d="m 65.616495,20.627802 h 4.910878 c 0.06971,-1.71e-4 0.137122,-0.02195 0.191149,-0.06163 0.05379,-0.03966 0.091,-0.09482 0.105429,-0.156271 l 0.642191,-2.767958 c 0.0097,-0.03983 0.0086,-0.08103 -0.0022,-0.120524 -0.01075,-0.03949 -0.03078,-0.07643 -0.05917,-0.108093 -0.02852,-0.03149 -0.06422,-0.05704 -0.105,-0.07472 -0.04067,-0.01753 -0.08521,-0.02671 -0.130333,-0.0269 h -4.910901 c -0.06929,1.7e-4 -0.136552,0.02163 -0.190579,0.06094 -0.05379,0.03933 -0.09122,0.09416 -0.105967,0.155253 l -0.655412,2.767956 c -0.0097,0.04103 -0.0097,0.08341 0.0022,0.124099 0.01118,0.04052 0.03249,0.07847 0.06229,0.110483 0.03,0.03202 0.06766,0.05754 0.110119,0.07438 0.04249,0.01684 0.08875,0.02466 0.13524,0.02297 z"
       fill="#ffd7e2"
       id="path113"
       style="fill:#918a6f;stroke-width:0.179315" />
    <path
       d="m 69.32798,24.38821 -2.489436,19.774051 c -0.01249,0.09924 -0.06498,0.190829 -0.147514,0.25739 -0.08252,0.06638 -0.189449,0.103331 -0.300128,0.103503 h -0.18888 c -0.06218,0 -0.123533,-0.01157 -0.180379,-0.03406 -0.05681,-0.02248 -0.108042,-0.05533 -0.150162,-0.09635 -0.04229,-0.04103 -0.07455,-0.08954 -0.09499,-0.142313 -0.02055,-0.05295 -0.02872,-0.108944 -0.02399,-0.164784 l 1.688582,-19.695744 z"
       fill="#533a71"
       id="path115"
       style="fill:#502d16;stroke-width:0.179315" />
    <path
       d="m 53.105073,24.38821 2.489447,19.772349 c 0.01249,0.09925 0.06498,0.190829 0.147513,0.25739 0.08251,0.06638 0.18945,0.10333 0.300128,0.103502 h 0.18888 c 0.06217,0 0.123534,-0.01174 0.18038,-0.03406 0.05681,-0.02248 0.108044,-0.05533 0.150161,-0.09635 0.04229,-0.04104 0.07466,-0.08953 0.09499,-0.142313 0.02054,-0.05294 0.02872,-0.108944 0.02399,-0.164785 L 54.991993,24.388201 Z"
       fill="#3d2c56"
       id="path117"
       style="fill:#502d16;stroke-width:0.179315" />
    <path
       d="m 75.056717,20.50013 h 7.93485 l 1.801908,-4.792006 h -7.934848 z"
       fill="#ff6b6b"
       id="path121"
       style="fill:#241c1c;stroke-width:0.179315" />
    <path
       d="M 77.370495,18.527151 H 71.51521 c -0.468417,0 -0.917576,0.167678 -1.248677,0.466263 -0.331292,0.298415 -0.517343,0.703225 -0.517343,1.125398 v 2.139805 c 0,0.07489 0.01647,0.149123 0.0482,0.218237 0.03173,0.06912 0.07843,0.132099 0.137122,0.185042 0.05874,0.05295 0.128634,0.09498 0.205317,0.123586 0.0767,0.0286 0.159037,0.04342 0.242142,0.04342 h 6.988561 c 0.08306,0 0.165362,-0.01479 0.242143,-0.04342 0.07681,-0.0286 0.146512,-0.07064 0.205273,-0.123586 0.05874,-0.05295 0.105322,-0.115928 0.137166,-0.185042 0.03173,-0.06911 0.0482,-0.143335 0.0482,-0.218237 v -3.161193 c 0,-0.151163 -0.0667,-0.29637 -0.185329,-0.403277 -0.118685,-0.106911 -0.279603,-0.166996 -0.447431,-0.166996 z"
       fill="#fcbed2"
       id="path123"
       style="fill:#c8b7b7;stroke-width:0.179315" />
    <path
       d="m 79.650277,18.527151 h -6.67124 c -0.468427,0 -0.917576,0.167678 -1.248688,0.466263 -0.331295,0.298415 -0.517343,0.703225 -0.517343,1.125398 v 2.139805 c 0,0.07489 0.01647,0.149123 0.0482,0.218237 0.03173,0.06912 0.07843,0.132099 0.137133,0.185042 0.05874,0.05295 0.128625,0.09498 0.205307,0.123586 0.0767,0.0286 0.159037,0.04342 0.242142,0.04342 h 7.804526 c 0.08307,0 0.165363,-0.01479 0.242143,-0.04342 0.0767,-0.0286 0.146514,-0.07064 0.205274,-0.123586 0.05874,-0.05295 0.105321,-0.115928 0.137165,-0.185042 0.03173,-0.06911 0.0482,-0.143335 0.0482,-0.218237 v -3.161193 c 0,-0.151163 -0.06671,-0.29637 -0.18533,-0.403277 -0.118682,-0.106911 -0.279602,-0.166996 -0.447427,-0.166996 z"
       fill="#533a71"
       id="path125"
       style="fill:#241c1c;stroke-width:0.179315" />
    <path
       d="M 84.982365,18.527151 H 79.12708 c -0.466415,0.0021 -0.912917,0.170742 -1.241995,0.468647 -0.32911,0.297904 -0.514096,0.701011 -0.51459,1.121311 v 2.139806 c 0,0.151334 0.06659,0.296372 0.18533,0.403278 0.11865,0.1069 0.279601,0.166995 0.447416,0.166995 h 6.988571 c 0.167815,0 0.328744,-0.06008 0.447417,-0.166995 0.118649,-0.1069 0.185327,-0.251944 0.185327,-0.403278 v -3.159491 c 0,-0.151163 -0.0667,-0.29637 -0.185327,-0.403277 -0.118673,-0.106911 -0.279602,-0.166996 -0.447417,-0.166996 z"
       fill="#fcbed2"
       id="path127"
       style="fill:#c8b7b7;stroke-width:0.179315" />
    <path
       d="M 85.173126,18.527151 H 80.59279 c -0.468384,0 -0.917575,0.167678 -1.248784,0.466263 -0.331176,0.298415 -0.517246,0.703225 -0.517246,1.125398 v 2.139805 c 0,0.07489 0.01636,0.149123 0.0482,0.218237 0.03173,0.06912 0.07843,0.132099 0.137165,0.185042 0.05874,0.05295 0.128494,0.09498 0.205275,0.123586 0.0767,0.0286 0.159035,0.04342 0.242141,0.04342 h 5.713623 c 0.08306,0 0.165374,-0.01479 0.242143,-0.04342 0.0767,-0.0286 0.146514,-0.07064 0.205286,-0.123586 0.05873,-0.05295 0.10532,-0.115928 0.137154,-0.185042 0.03173,-0.06911 0.0482,-0.143335 0.0482,-0.218237 v -3.161193 c 0,-0.151163 -0.0667,-0.29637 -0.185319,-0.403277 -0.118684,-0.106911 -0.279635,-0.166996 -0.447428,-0.166996 z"
       fill="#ff6b6b"
       id="path129"
       style="fill:#483737;stroke-width:0.179315" />
    <path
       d="m 76.39587,18.527151 h 6.505028 l 1.033182,-2.573895 h -6.503147 z"
       fill="#fff8fa"
       id="path131"
       style="stroke-width:0.179315" />
    <path
       d="m 71.902413,21.381927 h 4.899551 c 0.118921,0 0.215323,0.08682 0.215323,0.194063 v 0.38813 c 0,0.107233 -0.09639,0.194063 -0.215323,0.194063 h -4.899551 c -0.118994,0 -0.215321,-0.0868 -0.215321,-0.194063 v -0.38813 c 0,-0.107244 0.09628,-0.194063 0.215321,-0.194063 z"
       fill="#3d2c56"
       id="path133"
       style="fill:#483737;stroke-width:0.179315" />
    <path
       d="m 68.598907,22.827188 h 5.318867 l 3.099513,-0.951591 H 71.69843 Z"
       fill="#ffffff"
       id="path135"
       style="stroke-width:0.179315" />
    <path
       d="m 58.023515,41.833499 c 0.399856,0.01805 0.798397,0.05601 1.193724,0.114053 0,0 2.185337,1.121824 3.022076,1.327802 0.83674,0.205981 2.285452,0.435792 2.591433,0.937974 0.305992,0.502182 0,0.636666 0,0.636666 0,0 -8.078393,0.15491 -8.153946,0 -0.07554,-0.154911 0.268208,-2.425795 0.268208,-2.425795 z"
       fill="#3d2c56"
       id="path161"
       style="fill:#000000;stroke-width:0.179315" />
    <path
       d="m 58.892357,40.435902 0.273878,1.532079 c 0,0 -0.846174,0.742209 -1.290052,0.837539 -0.263861,0.0572 -0.538869,0.0572 -0.802733,0 l -0.887743,-2.648797 z"
       fill="#fb919f"
       id="path163"
       style="fill:#c87137;stroke-width:0.179315" />
    <path
       d="m 46.452724,41.704123 0.91607,0.233217 c 0.640298,0.414682 1.316119,0.782893 2.021018,1.101396 0.916059,0.381317 2.326999,0.657091 2.491318,1.058837 0.164329,0.401747 0.305992,0.634962 0,0.720079 -0.30598,0.08511 -6.816678,0 -6.816678,0 0,0 -0.353198,0 -0.445749,-0.233218 -0.09252,-0.233217 0.345645,-1.872541 0.345645,-1.872541 z"
       fill="#3d2c56"
       id="path165"
       style="fill:#000000;stroke-width:0.179315" />
    <path
       d="m 47.941102,40.517612 -0.566639,1.419728 c 0,0 -0.868852,0.783064 -1.433606,0.783064 h -0.97084 l 0.479756,-2.56198 z"
       fill="#c66f7e"
       id="path167"
       style="fill:#a05a2c;stroke-width:0.179315" />
    <path
       d="m 52.01524,30.879125 -3.260067,10.11173 -3.790825,-0.197468 1.597925,-9.434211 z"
       fill="#0078fa"
       id="path169"
       style="fill:#24221c;stroke-width:0.179315" />
    <path
       d="m 36.313648,29.324912 c 0,0 0.124653,2.316847 2.695312,2.655607 2.570657,0.33876 13.758021,-0.536227 13.758021,-0.536227 0,0 0.219097,1.976382 0.878298,3.559532 0.659187,1.583152 2.162669,5.787861 2.162669,5.787861 h 3.760608 c 0,0 -1.322166,-12.004702 -2.319449,-12.852454 -0.997293,-0.847752 -3.603828,-1.121823 -3.603828,-1.121823 l -4.183699,-0.536227 -4.183689,0.423874 z"
       fill="#1c8ff7"
       id="path171"
       style="fill:#24221c;stroke-width:0.179315" />
    <path
       d="m 45.277891,27.037006 c 0.566261,0.325483 1.217703,0.511034 1.888802,0.53793 1.065284,0.02723 1.786805,-0.255347 3.039075,-0.53793 1.252279,-0.282583 2.257114,-0.394936 2.852088,-0.311522 l 0.594974,0.0851 -6.503135,-1.552508 -1.888802,0.874989 z"
       fill="#0078fa"
       id="path173"
       style="fill:#24221c;stroke-width:0.179315" />
    <path
       d="m 43.880173,13.394682 c 0,0 1.397718,0.621343 1.586598,2.880311 0.188879,2.258966 -0.156767,5.106934 0.377757,6.552195 0.317514,0.859669 0.762317,1.676779 1.322165,2.4292 0,0 -1.072847,1.191618 -1.888802,1.778916 -0.815966,0.587297 -2.421443,0.536229 -2.421443,0.536229 0,0 -2.215569,-3.162896 -2.277889,-3.276951 -0.06229,-0.114052 -1.44116,-4.596242 -1.44116,-4.596242 0,0 -0.03216,-4.490697 0.03205,-4.631989 0.06421,-0.141292 2.055015,-1.440155 2.296781,-1.469095 0.241764,-0.02894 2.413891,-0.202574 2.413891,-0.202574 z"
       fill="#e28100"
       id="path175"
       style="fill:#112b00;stroke-width:0.179315" />
    <path
       d="m 36.800955,11.496604 -0.878287,0.112353 c 0,0 -2.319458,0.874988 -2.867203,2.117674 -0.547758,1.242687 -0.06229,4.306849 0.72152,6.37005 0.783853,2.063204 1.159718,7.570182 1.699922,8.756692 0.540195,1.186511 1.660258,1.751678 2.570659,1.807854 0.9104,0.05618 4.419783,-1.271626 5.515288,-2.258965 0.526789,-0.501162 1.104011,-0.957041 1.724482,-1.361852 -0.85733,-0.453154 -1.511614,-1.162677 -1.849137,-2.005321 -0.566636,-1.41292 0.156767,-2.117678 0.09444,-3.445479 -0.06229,-1.327803 -1.22206,-2.880312 -1.22206,-2.880312 0,0 -1.259823,-5.253332 1.579045,-5.30951 l -2.049355,-1.087776 z"
       fill="#ffb942"
       id="path177"
       style="fill:#006400;stroke-width:0.179315" />
    <path
       d="m 36.99928,7.1233661 c 0.0113,-0.1855521 0.01894,-0.3574854 0.03023,-0.5430376 0.237794,0.6606372 1.93303,0.4786738 3.182619,-0.3319508 1.195483,-2.1124278 1.299224,-1.5863316 1.482323,-4.1565643 0.322988,0.4102575 0.865429,3.7258797 0.865429,3.7258797 0.842537,-0.4457377 -0.117722,0.073973 -0.455132,0.2859882 l 0.118996,1.0809683 -0.266316,0.6809242 -0.364536,0.4170664 -0.772525,0.025533 c 0,0 -0.547747,1.2018323 -0.589305,1.2511995 -0.154314,0.1550802 -0.328649,0.2927967 -0.519421,0.4102564 L 38.659579,10.064961 37.271318,9.969629 37.152324,9.6598082 c 0,0 -1.664036,-1.3448263 -1.749034,-2.8496704 0.229684,0.1448675 0.489199,0.2471755 0.76308,0.3009695 0.290365,0.037896 0.58662,0.051283 0.832909,0.012259 z"
       fill="#3d2c56"
       id="path179"
       style="fill:#1a1a1a;stroke-width:0.179315"
       sodipodi:nodetypes="cccccccccccccccccc" />
    <path
       d="m 36.845343,1.3265019 c 0.271802,-0.023755 -0.151106,0.06895 0.105848,1.273e-4 0.556412,-0.3381791 1.956764,-0.1499482 2.67141,-0.077758 1.234567,0.1094443 2.048221,0.3548768 2.296003,0.731885 -0.02008,0.1621625 0.601617,2.6835628 0.511455,2.828079 -0.168512,0.2501706 0.271799,-0.1838628 0,0 -0.412529,0.2965284 0.224628,0.5089983 -0.284781,0.6942737 -2.442808,1.8719112 -2.842019,2.6824956 -6.634332,1.6589733 -1.215195,-3.1072536 -1.042223,-5.505751 1.3344,-5.8355802 z"
       fill="#533a71"
       id="path181"
       style="fill:#1a1a1a;stroke-width:0.160457"
       sodipodi:nodetypes="ccccccccc" />
    <path
       d="m 41.821383,11.074431 -0.118994,0.325142 c -0.366044,-0.06502 -0.736443,-0.108267 -1.108726,-0.129376 -0.160542,0.02553 -0.237989,0.543038 -0.237989,0.543038 0,0 -2.181561,-0.701353 -2.721756,-0.740507 -0.540204,-0.03916 -0.679973,-0.05617 -0.679973,-0.05617 l 0.188879,-1.3533372 c 0,0 1.038841,0.3796152 1.858583,0.1004392 0.819743,-0.2791789 1.297604,-1.155869 1.297604,-1.155869 z"
       fill="#c66f7e"
       id="path183"
       style="fill:#a05a2c;stroke-width:0.179315" />
    <path
       d="m 42.616576,6.1053836 c 0,0 0.175657,1.0690522 0.09069,1.3397185 -0.08498,0.2706688 -0.273879,0.6196416 -0.2871,0.784766 -0.01323,0.1651242 0.23232,0.7013528 0.203983,1.0877776 -0.02829,0.3864248 -0.455195,1.9355283 -0.772513,2.0734153 -0.31732,0.137887 -1.09361,-0.651985 -1.354267,-1.099694 C 40.236714,9.8436593 40.329265,8.8682349 40.223491,8.6980042 40.117739,8.5277735 39.598298,7.9711169 39.823066,7.5915023 c 0.224768,-0.3796158 0.659189,-0.4357919 0.855632,-0.2400269 0.196431,0.1957661 0.245539,0.8409419 0.449536,0.8732862 0.203981,0.03234 0.43442,-0.1957661 0.477861,-0.5106933 0.04346,-0.3149282 0.400425,-0.474945 0.449535,-0.7643379 0.04906,-0.289394 -0.04152,-0.7336967 0.04906,-0.8409426 0.137692,-0.1137141 0.290681,-0.2114269 0.455193,-0.2910947 z"
       fill="#fb919f"
       id="path185"
       style="fill:#c87137;stroke-width:0.179315" />
    <path
       d="m 41.575842,12.308606 c -0.400049,-0.355442 -0.853362,-0.658454 -1.346715,-0.900521 -0.785736,-0.376212 -3.003196,-0.806897 -3.277064,-0.680926 -0.273879,0.125971 -0.666751,0.948189 -0.666751,0.948189 z"
       fill="#ffffff"
       id="path187"
       style="fill:#d45500;stroke-width:0.179315" />
    <path
       d="m 31.976958,32.818058 h 5.271639 c 0.290306,-5.13e-4 0.568724,-0.104524 0.774032,-0.289734 0.205317,-0.185042 0.320913,-0.435792 0.321472,-0.697609 v -5.370794 c -5.59e-4,-0.261644 -0.116155,-0.512564 -0.321472,-0.697606 -0.205308,-0.185041 -0.483726,-0.289223 -0.774032,-0.289732 h -4.425455 c -0.195688,3.38e-4 -0.387774,0.04784 -0.556061,0.137545 -0.168482,0.08988 -0.307121,0.218747 -0.401565,0.373147 l -2.117346,3.418242 c -0.217024,0.350167 -0.328841,0.745273 -0.324119,1.146336 0.0049,0.401065 0.125794,0.793959 0.351128,1.139868 0.225334,0.34591 0.546995,0.632581 0.933261,0.831751 0.386261,0.19917 0.823511,0.303862 1.268518,0.303692 z m 5.271639,-6.535176 c 0.05003,0 0.09823,0.01787 0.13354,0.04986 0.03549,0.03201 0.0553,0.07525 0.0553,0.120352 v 5.36909 c 0,0.04511 -0.0198,0.08852 -0.0553,0.120354 -0.03528,0.03201 -0.08348,0.04986 -0.13354,0.04986 h -5.271639 c -0.287659,-1.53e-4 -0.57023,-0.06808 -0.819924,-0.196939 -0.249516,-0.129036 -0.457478,-0.314246 -0.603295,-0.537931 -0.145814,-0.223513 -0.224197,-0.477329 -0.22779,-0.736591 -0.0032,-0.259261 0.06819,-0.514948 0.207963,-0.741527 l 2.11735,-3.404621 c 0.01647,-0.02792 0.04132,-0.05124 0.07175,-0.06707 0.03023,-0.01599 0.06498,-0.02401 0.100163,-0.02315 z"
       fill="#3d2c56"
       id="path189"
       style="fill:#808080;stroke-width:0.179315" />
    <path
       d="m 32.428377,32.818058 h 5.277309 c 0.290316,-5.13e-4 0.568724,-0.104524 0.774031,-0.289734 0.205317,-0.185042 0.320913,-0.435792 0.321471,-0.697609 V 26.459921 C 38.80063,26.198277 38.685034,25.947357 38.479717,25.762315 38.27441,25.577274 37.996002,25.473092 37.705686,25.472583 h -4.425455 c -0.195678,3.38e-4 -0.387774,0.04784 -0.556061,0.137545 -0.168482,0.08988 -0.30712,0.218747 -0.401567,0.373147 l -2.117349,3.418242 c -0.217017,0.350167 -0.328835,0.745273 -0.324114,1.146336 0.0049,0.401065 0.125795,0.793959 0.351128,1.139868 0.225338,0.34591 0.546993,0.632581 0.933264,0.831751 0.386258,0.19917 0.823517,0.303862 1.268514,0.303692 z m 5.277309,-6.535176 c 0.05003,0 0.09823,0.01787 0.133539,0.04986 0.03549,0.03201 0.05529,0.07525 0.05529,0.120352 v 5.36909 c 0,0.04511 -0.0198,0.08852 -0.05529,0.120354 -0.03528,0.03201 -0.08348,0.04986 -0.133539,0.04986 h -5.27164 c -0.28766,-1.53e-4 -0.57023,-0.06808 -0.819924,-0.196939 -0.249512,-0.129036 -0.457659,-0.314246 -0.60329,-0.537931 -0.145818,-0.223513 -0.224202,-0.477329 -0.227784,-0.736591 -0.0032,-0.259261 0.06819,-0.514948 0.207953,-0.741527 l 2.109797,-3.404621 c 0.01647,-0.02792 0.04132,-0.05124 0.07175,-0.06707 0.03023,-0.01599 0.06498,-0.02401 0.100163,-0.02315 z"
       fill="#533a71"
       id="path191"
       style="fill:#999999;stroke-width:0.179315" />
    <path
       d="m 40.858096,31.500468 h 3.613275 c 0.238367,0 0.467104,0.08528 0.635768,0.237303 0.168482,0.152016 0.263303,0.357993 0.263303,0.572997 0,0.214831 -0.09478,0.420982 -0.263303,0.572999 -0.168664,0.151846 -0.397401,0.237303 -0.635768,0.237303 H 31.504755 c -0.2786,0 -0.553612,-0.05601 -0.805007,-0.163764 -0.251588,-0.107922 -0.473149,-0.26522 -0.648615,-0.460136 -0.175658,-0.194915 -0.300698,-0.422512 -0.366239,-0.666625 -0.06535,-0.243941 -0.0697,-0.498097 -0.01227,-0.743738 l 0.08688,-0.195766 h 11.219483 c -0.0453,0.207682 -0.08692,0.411958 -0.120889,0.609427 z"
       fill="#ff6b6b"
       id="path193"
       style="fill:#000000;stroke-width:0.179315" />
    <path
       d="m 30.826671,28.04818 -2.57632,-9.818934 h 11.198698 c 0.723414,2.77647 2.438441,9.362714 2.438441,9.524433 -0.03647,0.172785 -0.08499,0.343357 -0.145437,0.510695 H 30.86823 c -0.0032,-0.07355 -0.01678,-0.146231 -0.04152,-0.216194 z"
       fill="#ff6b6b"
       id="path195"
       style="fill:#313131;fill-opacity:1;stroke-width:0.179315" />
    <path
       d="M 40.980867,30.892743 H 29.761391 l 1.089841,-2.437711 c 0.01431,-0.06435 0.02022,-0.130057 0.017,-0.195764 h 10.871931 c -0.192656,0.600913 -0.536418,1.641026 -0.759294,2.633475 z"
       fill="#fcbed2"
       id="path197"
       style="fill:#212121;fill-opacity:1;stroke-width:0.179315" />
    <path
       d="m 28.199353,18.028373 c -0.03627,-0.101963 -0.04969,-0.209553 -0.03948,-0.316288 0.01004,-0.10674 0.04363,-0.210576 0.09859,-0.305565 0.05496,-0.09499 0.130326,-0.179254 0.221555,-0.247856 0.09142,-0.0686 0.197003,-0.120182 0.310519,-0.151676 0.173958,-0.04919 0.360573,-0.04919 0.534531,0 h 9.806657 l 0.317317,1.215449 h -11.19681 z"
       fill="#fcbed2"
       id="path199"
       style="fill:#000000;stroke-width:0.179315" />
    <path
       d="m 41.847827,33.115961 h 10.718946 c 0.238366,0 0.467092,-0.08528 0.635769,-0.237303 0.168481,-0.152015 0.263292,-0.358165 0.263292,-0.572997 0,-0.214832 -0.09478,-0.420983 -0.263292,-0.572999 -0.168677,-0.151844 -0.397403,-0.237301 -0.635769,-0.237301 h -9.702774 c -0.133723,0 -0.265939,-0.02689 -0.386827,-0.07863 -0.120694,-0.05174 -0.227221,-0.127332 -0.311457,-0.220959 -0.08446,-0.09362 -0.14449,-0.203086 -0.176033,-0.320206 -0.03131,-0.11729 -0.03346,-0.239344 -0.0054,-0.357314 l 1.065276,-2.15002 c 0.0313,-0.135676 0.02356,-0.276285 -0.0227,-0.408556 l -2.769015,-10.42156 c -0.03517,-0.102303 -0.0922,-0.197468 -0.168288,-0.27986 -0.07617,-0.08222 -0.169612,-0.150145 -0.275008,-0.199681 -0.105429,-0.04953 -0.220616,-0.07984 -0.33904,-0.08885 -0.118424,-0.0092 -0.237795,0.0029 -0.350939,0.03558 -0.113519,0.03168 -0.219098,0.08306 -0.31052,0.151677 -0.09123,0.0686 -0.166588,0.152867 -0.22155,0.247856 -0.05498,0.09499 -0.08854,0.198831 -0.09865,0.305566 -0.01075,0.10674 0.0032,0.214319 0.03948,0.316287 l 2.629206,10.019806 c 0.04626,0.13227 0.05401,0.27288 0.02269,0.408555 l -1.176716,2.633476 c -0.05605,0.245815 -0.05078,0.499628 0.0157,0.743398 0.06649,0.243602 0.192461,0.470862 0.368689,0.665095 0.176228,0.194233 0.398349,0.350506 0.650131,0.457581 0.25177,0.107073 0.526778,0.162231 0.805186,0.16138 z"
       fill="#fcbed2"
       id="path201"
       style="fill:#000000;stroke-width:0.179315" />
    <path
       d="m 43.2191,32.818058 h 5.27164 c 0.290307,-5.13e-4 0.568715,-0.104524 0.774032,-0.289734 0.205306,-0.185042 0.320901,-0.435792 0.321472,-0.697609 v -5.370794 c -5.71e-4,-0.261644 -0.116166,-0.512564 -0.321472,-0.697606 -0.205317,-0.185041 -0.483725,-0.289223 -0.774032,-0.289732 h -4.425463 c -0.195679,3.38e-4 -0.387766,0.04784 -0.556064,0.137545 -0.168481,0.08988 -0.30712,0.218747 -0.401555,0.373147 l -2.117345,3.418242 c -0.217022,0.350167 -0.328842,0.745273 -0.324119,1.146336 0.0054,0.401065 0.125793,0.793959 0.351132,1.139868 0.225328,0.34591 0.546993,0.632581 0.933251,0.831751 0.386267,0.19917 0.823518,0.303862 1.268523,0.303692 z m 5.27164,-6.535176 c 0.05003,0 0.09822,0.01787 0.13354,0.04986 0.03549,0.03201 0.0553,0.07525 0.0553,0.120352 v 5.36909 c 0,0.04511 -0.0198,0.08852 -0.0553,0.120354 -0.03528,0.03201 -0.08348,0.04986 -0.13354,0.04986 H 43.2191 c -0.287668,-1.7e-4 -0.570229,-0.0681 -0.819935,-0.196955 -0.249512,-0.129036 -0.457464,-0.314248 -0.603278,-0.537932 -0.145816,-0.223514 -0.224198,-0.477328 -0.227792,-0.736589 -0.0032,-0.259262 0.06819,-0.514951 0.207953,-0.741527 l 2.117346,-3.404625 c 0.01647,-0.02792 0.04132,-0.05124 0.07175,-0.06708 0.03023,-0.01599 0.06498,-0.02401 0.100163,-0.02315 z"
       fill="#3d2c56"
       id="path203"
       style="fill:#808080;stroke-width:0.179315" />
    <path
       d="m 43.668627,32.818058 h 5.271648 c 0.290308,-5.13e-4 0.568716,-0.104524 0.774033,-0.289734 0.205306,-0.185042 0.320902,-0.435792 0.321472,-0.697609 v -5.370794 c -5.7e-4,-0.261644 -0.116166,-0.512564 -0.321472,-0.697606 -0.205317,-0.185041 -0.483725,-0.289223 -0.774033,-0.289732 h -4.434908 c -0.195678,3.38e-4 -0.387764,0.04784 -0.556064,0.137545 -0.168481,0.08988 -0.307108,0.218747 -0.401553,0.373147 l -2.117348,3.418242 c -0.217021,0.350167 -0.328841,0.745273 -0.324119,1.146336 0.0054,0.401065 0.125795,0.793959 0.351133,1.139868 0.225327,0.34591 0.546994,0.632581 0.93325,0.831751 0.386259,0.19917 0.823519,0.303862 1.268527,0.303692 z m 5.271648,-6.535176 c 0.05003,0 0.09823,0.01787 0.13354,0.04986 0.03549,0.03201 0.0553,0.07525 0.0553,0.120352 v 5.36909 c 0,0.04511 -0.0198,0.08852 -0.0553,0.120354 -0.03528,0.03201 -0.08347,0.04986 -0.13354,0.04986 h -5.271648 c -0.287659,-1.7e-4 -0.570221,-0.0681 -0.819925,-0.196955 -0.249512,-0.129036 -0.457466,-0.314248 -0.60328,-0.537932 -0.145814,-0.223514 -0.224197,-0.477328 -0.22779,-0.736589 -0.0032,-0.259262 0.06819,-0.514951 0.207952,-0.741527 L 44.34293,26.37477 c 0.01647,-0.02792 0.04142,-0.05124 0.07176,-0.06708 0.03023,-0.01599 0.06498,-0.02401 0.100038,-0.02315 z"
       fill="#533a71"
       id="path205"
       style="fill:#999999;stroke-width:0.179315" />
    <path
       d="m 42.845119,24.558441 h 8.199282 c 0.12617,0 0.228545,0.09227 0.228545,0.205978 v 0.568573 c 0,0.11372 -0.102422,0.20598 -0.228545,0.20598 h -8.199282 c -0.126181,0 -0.228543,-0.09227 -0.228543,-0.20598 v -0.568573 c 0,-0.113708 0.102411,-0.205978 0.228543,-0.205978 z"
       fill="#ff6b6b"
       id="path207"
       style="fill:#000000;stroke-width:0.179315" />
    <path
       d="m 38.500878,33.12277 h 5.466187 v 1.164383 h -5.466187 z"
       fill="#533a71"
       id="path209"
       style="fill:#999999;stroke-width:0.179315" />
    <path
       d="m 38.498983,33.12277 h 2.733095 v 1.164383 h -2.733095 z"
       fill="#3d2c56"
       id="path211"
       style="fill:#808080;stroke-width:0.179315" />
    <path
       d="m 40.138469,34.033507 h 2.100337 v 4.356216 h -2.100337 z"
       fill="#533a71"
       id="path213"
       style="fill:#b3b3b3;stroke-width:0.179315" />
    <path
       d="m 40.138469,34.033507 h 1.050168 v 4.356216 h -1.050168 z"
       fill="#3d2c56"
       id="path215"
       style="fill:#999999;stroke-width:0.179315" />
    <path
       d="m 39.836254,38.391425 h 2.791649 v 2.989258 h -2.791649 z"
       fill="#533a71"
       id="path217"
       style="fill:#b3b3b3;stroke-width:0.179315" />
    <path
       d="m 39.836254,38.391425 h 1.395824 v 2.989258 h -1.395824 z"
       fill="#3d2c56"
       id="path219"
       style="fill:#999999;stroke-width:0.179315" />
    <path
       d="M 48.849608,41.37898 H 33.521997 c -0.132786,0 -0.260086,0.0475 -0.353961,0.1321 -0.09393,0.08462 -0.146568,0.199342 -0.146568,0.319014 v 1.069053 h 16.330563 v -1.069053 c 0,-0.05941 -0.01303,-0.11814 -0.0384,-0.172955 -0.02506,-0.055 -0.06229,-0.104696 -0.108978,-0.146569 -0.04669,-0.04206 -0.101993,-0.07525 -0.163006,-0.09771 -0.06078,-0.02265 -0.126171,-0.03407 -0.192084,-0.03387 z"
       fill="#3d2c56"
       id="path221"
       style="fill:#1a1a1a;stroke-width:0.179315" />
    <path
       d="m 48.893059,44.570816 c -0.610282,0 -1.10495,-0.445836 -1.10495,-0.995851 0,-0.550017 0.494668,-0.995855 1.10495,-0.995855 0.610262,0 1.104939,0.445838 1.104939,0.995855 0,0.550015 -0.494677,0.995851 -1.104939,0.995851 z"
       fill="#3d2c56"
       id="path223"
       style="fill:#000000;stroke-width:0.179315" />
    <path
       d="m 48.893059,44.07374 c -0.305614,0 -0.553426,-0.223343 -0.553426,-0.498775 0,-0.275435 0.247812,-0.498778 0.553426,-0.498778 0.305604,0 0.553417,0.223343 0.553417,0.498778 0,0.275432 -0.247813,0.498775 -0.553417,0.498775 z"
       fill="#ffffff"
       id="path225"
       style="stroke-width:0.179315" />
    <path
       d="m 33.605103,44.570816 c -0.610273,0 -1.10495,-0.445836 -1.10495,-0.995851 0,-0.550017 0.494677,-0.995855 1.10495,-0.995855 0.610273,0 1.10495,0.445838 1.10495,0.995855 0,0.550015 -0.494677,0.995851 -1.10495,0.995851 z"
       fill="#3d2c56"
       id="path227"
       style="fill:#000000;stroke-width:0.179315" />
    <path
       d="m 33.605103,44.07374 c -0.305604,0 -0.553415,-0.223343 -0.553415,-0.498775 0,-0.275435 0.247811,-0.498778 0.553415,-0.498778 0.305604,0 0.553416,0.223343 0.553416,0.498778 0,0.275432 -0.247812,0.498775 -0.553416,0.498775 z"
       fill="#ffffff"
       id="path229"
       style="stroke-width:0.179315" />
    <path
       d="m 41.249076,44.570816 c -0.610272,0 -1.104949,-0.445836 -1.104949,-0.995851 0,-0.550017 0.494677,-0.995855 1.104949,-0.995855 0.610272,0 1.104948,0.445838 1.104948,0.995855 0,0.550015 -0.494676,0.995851 -1.104948,0.995851 z"
       fill="#3d2c56"
       id="path231"
       style="fill:#000000;stroke-width:0.179315" />
    <path
       d="m 41.249076,44.07374 c -0.305605,0 -0.553416,-0.223343 -0.553416,-0.498775 0,-0.275435 0.247811,-0.498778 0.553416,-0.498778 0.305615,0 0.553417,0.223343 0.553417,0.498778 0,0.275432 -0.247802,0.498775 -0.553417,0.498775 z"
       fill="#ffffff"
       id="path233"
       style="stroke-width:0.179315" />
    <path
       d="m 62.329985,20.660147 c 0,0 0.188869,0.257048 0,0.381318 -0.18889,0.124269 -1.027512,-0.03407 -1.30706,-0.04766 -0.279537,-0.01363 -2.306225,-0.340464 -2.306225,-0.340464 0,0 1.371275,-0.834132 1.764148,-0.997553 0.392863,-0.163422 0.77629,0.291094 0.77629,0.291094 z"
       fill="#c66f7e"
       id="path235"
       style="stroke-width:0.179315" />
    <path
       d="m 48.254643,18.554387 1.91713,1.036709 8.934023,0.587297 c 0,0 1.562038,-0.461327 1.945465,-0.490267 0.383428,-0.02894 2.42522,0.958402 2.445994,1.273332 0.02077,0.314927 -0.808403,0.08852 -0.808403,0.08852 l -1.103055,-0.365996 c -0.465598,0.405832 -1.059624,0.671052 -1.699923,0.759231 -0.621417,0.109965 -1.265878,0.02723 -1.828364,-0.234918 0,0 -7.768637,0.905629 -9.145571,0.721781 -1.376934,-0.183851 -3.008854,-1.489523 -3.008854,-1.489523 z"
       fill="#fb919f"
       id="path237"
       style="fill:#c87137;stroke-width:0.179315" />
    <path
       d="m 43.628962,13.507033 c -2.495104,0.611132 -1.764138,2.749236 -0.772514,4.504317 0.991623,1.755083 2.92009,3.12374 2.92009,3.12374 0,0 1.726356,-0.316628 2.28544,-1.327803 0.559085,-1.011171 0.447642,-1.596767 0.447642,-1.596767 0,0 -3.575492,-5.023521 -4.880658,-4.703487 z"
       fill="#ffffff"
       id="path239"
       style="fill:#ff6600;stroke-width:0.179315" />
    <rect
       style="opacity:1;fill:#ffaaaa;fill-opacity:1;stroke:#f8f8f8;stroke-width:0.659557;stroke-linejoin:round;stroke-opacity:1"
       id="rect3500"
       width="7.889812"
       height="12.228603"
       x="5.5944862"
       y="12.385766" />
    <rect
       style="opacity:1;fill:#ffaaaa;fill-opacity:1;stroke:#fef2f2;stroke-width:0.461693;stroke-linejoin:round;stroke-opacity:1"
       id="rect3892"
       width="11.172924"
       height="5.7377815"
       x="80.590698"
       y="6.4227915" />
    <rect
       style="opacity:1;fill:#00ffff;fill-opacity:1;stroke:#fef2f2;stroke-width:0.461693;stroke-linejoin:round;stroke-opacity:1"
       id="rect3894"
       width="10.759111"
       height="6.7578316"
       x="78.659584"
       y="3.1076298" />
    <g
       sodipodi:type="inkscape:box3d"
       id="g4333"
       style="opacity:1;fill:#4a4a4a;fill-opacity:1;stroke:#fef2f2;stroke-width:1.94646;stroke-linejoin:round;stroke-opacity:1"
       inkscape:perspectiveID="#perspective4331"
       inkscape:corner0="-0.30599677 : 0.0033632516 : 0 : 1"
       inkscape:corner7="-0.35992748 : -0.0052160079 : 0.28936434 : 1">
      <path
         sodipodi:type="inkscape:box3dside"
         id="path4345"
         style="fill:#4a4a4a;fill-opacity:1;fill-rule:evenodd;stroke:none;stroke-width:1.86158;stroke-linejoin:round"
         inkscape:box3dsidetype="11"
         d="m 77.511701,27.789512 4.640256,0.213063 V 38.253821 L 77.511701,37.47855 Z"
         points="82.151957,28.002575 82.151957,38.253821 77.511701,37.47855 77.511701,27.789512 " />
      <path
         sodipodi:type="inkscape:box3dside"
         id="path4335"
         style="fill:#4a4a4a;fill-opacity:1;fill-rule:evenodd;stroke:none;stroke-width:1.89277;stroke-linejoin:round"
         inkscape:box3dsidetype="6"
         d="M 69.316854,29.320513 V 43.049392 L 77.511701,37.47855 V 27.789512 Z"
         points="69.316854,43.049392 77.511701,37.47855 77.511701,27.789512 69.316854,29.320513 " />
      <path
         sodipodi:type="inkscape:box3dside"
         id="path4343"
         style="fill:#4a4a4a;fill-opacity:1;fill-rule:evenodd;stroke:none;stroke-width:1.92695;stroke-linejoin:round"
         inkscape:box3dsidetype="13"
         d="m 69.316854,43.049392 6.047551,1.595139 6.787552,-6.39071 -4.640256,-0.775271 z"
         points="75.364405,44.644531 82.151957,38.253821 77.511701,37.47855 69.316854,43.049392 " />
      <path
         sodipodi:type="inkscape:box3dside"
         id="path4337"
         style="fill:#4a4a4a;fill-opacity:1;fill-rule:evenodd;stroke:none;stroke-width:2.00137;stroke-linejoin:round"
         inkscape:box3dsidetype="5"
         d="m 69.316854,29.320513 6.047551,0.438383 6.787552,-1.756321 -4.640256,-0.213063 z"
         points="75.364405,29.758896 82.151957,28.002575 77.511701,27.789512 69.316854,29.320513 " />
      <path
         sodipodi:type="inkscape:box3dside"
         id="path4341"
         style="fill:#4a4a4a;fill-opacity:1;fill-rule:evenodd;stroke:none;stroke-width:1.92695;stroke-linejoin:round"
         inkscape:box3dsidetype="14"
         d="m 75.364405,29.758896 v 14.885635 l 6.787552,-6.39071 V 28.002575 Z"
         points="75.364405,44.644531 82.151957,38.253821 82.151957,28.002575 75.364405,29.758896 " />
      <path
         sodipodi:type="inkscape:box3dside"
         id="path4339"
         style="fill:#333333;fill-opacity:1;fill-rule:evenodd;stroke:none;stroke-width:1.92695;stroke-linejoin:round"
         inkscape:box3dsidetype="3"
         d="m 69.316854,29.320513 6.047551,0.438383 v 14.885635 l -6.047551,-1.595139 z"
         points="75.364405,29.758896 75.364405,44.644531 69.316854,43.049392 69.316854,29.320513 " />
    </g>
    <rect
       style="opacity:1;fill:#666666;fill-opacity:1;stroke:none;stroke-width:0.395177;stroke-linejoin:round;stroke-opacity:1"
       id="rect4926"
       width="5.1961174"
       height="1.8581573"
       x="70.326614"
       y="27.185898"
       transform="matrix(0.99648966,0.08371594,-0.01341314,0.99991004,0,0)"
       inkscape:transform-center-x="-0.70058162"
       inkscape:transform-center-y="0.10832305" />
    <ellipse
       style="opacity:1;fill:#4d4d4d;fill-opacity:1;stroke:none;stroke-width:0.508727;stroke-linejoin:round;stroke-opacity:1"
       id="path5170"
       cx="70.771889"
       cy="41.420891"
       rx="1.2960097"
       ry="1.4642141" />
    <ellipse
       style="opacity:1;fill:#4d4d4d;fill-opacity:1;stroke:none;stroke-width:0.589258;stroke-linejoin:round;stroke-opacity:1"
       id="path5172"
       cx="73.71608"
       cy="41.889885"
       rx="1.3299012"
       ry="1.4403373" />
    <rect
       style="opacity:1;fill:#939393;fill-opacity:1;stroke:none;stroke-width:0.594294;stroke-linejoin:round;stroke-opacity:1"
       id="rect5620"
       width="4.89183"
       height="0.83400369"
       x="59.728909"
       y="29.423424"
       transform="matrix(0.99494287,0.10044248,0.34925303,0.93702845,0,0)"
       inkscape:transform-center-x="0.31828865"
       inkscape:transform-center-y="1.1500273" />
  </g>
</svg>
