<?xml version="1.0" encoding="UTF-8" standalone="no"?>
<!-- Created with Inkscape (http://www.inkscape.org/) -->

<svg
   width="300"
   height="150"
   viewBox="0 0 79.375001 39.6875"
   version="1.1"
   id="svg5"
   inkscape:version="1.1 (c68e22c387, 2021-05-23)"
   sodipodi:docname="babysting.svg"
   xmlns:inkscape="http://www.inkscape.org/namespaces/inkscape"
   xmlns:sodipodi="http://sodipodi.sourceforge.net/DTD/sodipodi-0.dtd"
   xmlns="http://www.w3.org/2000/svg"
   xmlns:svg="http://www.w3.org/2000/svg">
  <sodipodi:namedview
     id="namedview7"
     pagecolor="#505050"
     bordercolor="#eeeeee"
     borderopacity="1"
     inkscape:pageshadow="0"
     inkscape:pageopacity="0"
     inkscape:pagecheckerboard="0"
     inkscape:document-units="mm"
     showgrid="false"
     width="300px"
     units="px"
     fit-margin-top="0"
     fit-margin-left="0"
     fit-margin-right="0"
     fit-margin-bottom="0"
     inkscape:zoom="1.2646927"
     inkscape:cx="202.02536"
     inkscape:cy="96.070769"
     inkscape:window-width="1366"
     inkscape:window-height="705"
     inkscape:window-x="-8"
     inkscape:window-y="-8"
     inkscape:window-maximized="1"
     inkscape:current-layer="layer2" />
  <defs
     id="defs2">
    <inkscape:path-effect
       effect="spiro"
       id="path-effect1588"
       is_visible="true"
       lpeversion="1" />
    <inkscape:path-effect
       effect="spiro"
       id="path-effect5315"
       is_visible="true"
       lpeversion="1" />
    <inkscape:path-effect
       effect="bspline"
       id="path-effect12325"
       is_visible="true"
       lpeversion="1"
       weight="33.333333"
       steps="2"
       helper_size="0"
       apply_no_weight="true"
       apply_with_weight="true"
       only_selected="false" />
    <inkscape:path-effect
       effect="bspline"
       id="path-effect12288"
       is_visible="true"
       lpeversion="1"
       weight="33.333333"
       steps="2"
       helper_size="0"
       apply_no_weight="true"
       apply_with_weight="true"
       only_selected="false" />
    <inkscape:path-effect
       effect="bspline"
       id="path-effect3271"
       is_visible="true"
       lpeversion="1"
       weight="33.333333"
       steps="2"
       helper_size="0"
       apply_no_weight="true"
       apply_with_weight="true"
       only_selected="false" />
    <inkscape:path-effect
       effect="bspline"
       id="path-effect3242"
       is_visible="true"
       lpeversion="1"
       weight="33.333333"
       steps="2"
       helper_size="0"
       apply_no_weight="true"
       apply_with_weight="true"
       only_selected="false" />
    <inkscape:path-effect
       effect="bspline"
       id="path-effect3016"
       is_visible="true"
       lpeversion="1"
       weight="33.333333"
       steps="2"
       helper_size="0"
       apply_no_weight="true"
       apply_with_weight="true"
       only_selected="false" />
    <inkscape:path-effect
       effect="bspline"
       id="path-effect2899"
       is_visible="true"
       lpeversion="1"
       weight="33.333333"
       steps="2"
       helper_size="0"
       apply_no_weight="true"
       apply_with_weight="true"
       only_selected="false" />
    <inkscape:path-effect
       effect="bspline"
       id="path-effect2763"
       is_visible="true"
       lpeversion="1"
       weight="33.333333"
       steps="2"
       helper_size="0"
       apply_no_weight="true"
       apply_with_weight="true"
       only_selected="false" />
    <inkscape:path-effect
       effect="bspline"
       id="path-effect2471"
       is_visible="true"
       lpeversion="1"
       weight="33.333333"
       steps="2"
       helper_size="0"
       apply_no_weight="true"
       apply_with_weight="true"
       only_selected="false" />
    <inkscape:path-effect
       effect="bspline"
       id="path-effect2274"
       is_visible="true"
       lpeversion="1"
       weight="33.333333"
       steps="2"
       helper_size="0"
       apply_no_weight="true"
       apply_with_weight="true"
       only_selected="false" />
    <inkscape:path-effect
       effect="bspline"
       id="path-effect1459"
       is_visible="true"
       lpeversion="1"
       weight="33.333333"
       steps="2"
       helper_size="0"
       apply_no_weight="true"
       apply_with_weight="true"
       only_selected="false" />
    <inkscape:path-effect
       effect="bspline"
       id="path-effect1422"
       is_visible="true"
       lpeversion="1"
       weight="33.333333"
       steps="2"
       helper_size="0"
       apply_no_weight="true"
       apply_with_weight="true"
       only_selected="false" />
    <inkscape:path-effect
       effect="spiro"
       id="path-effect1385"
       is_visible="true"
       lpeversion="1" />
    <inkscape:path-effect
       effect="bspline"
       id="path-effect983"
       is_visible="true"
       lpeversion="1"
       weight="33.333333"
       steps="2"
       helper_size="0"
       apply_no_weight="true"
       apply_with_weight="true"
       only_selected="false" />
    <inkscape:path-effect
       effect="bspline"
       id="path-effect866"
       is_visible="true"
       lpeversion="1"
       weight="33.333333"
       steps="2"
       helper_size="0"
       apply_no_weight="true"
       apply_with_weight="true"
       only_selected="false" />
    <inkscape:path-effect
       effect="spiro"
       id="path-effect2472"
       is_visible="true"
       lpeversion="1" />
    <inkscape:path-effect
       effect="spiro"
       id="path-effect1424"
       is_visible="true"
       lpeversion="1" />
    <inkscape:path-effect
       effect="spiro"
       id="path-effect1056"
       is_visible="true"
       lpeversion="1" />
    <inkscape:path-effect
       effect="spiro"
       id="path-effect939"
       is_visible="true"
       lpeversion="1" />
  </defs>
  <g
     inkscape:label="Calque 1"
     inkscape:groupmode="layer"
     id="layer1"
     sodipodi:insensitive="true"
     transform="translate(92.445259,58.265274)" />
  <g
     inkscape:groupmode="layer"
     id="layer2"
     inkscape:label="Calque 2"
     transform="translate(92.445259,58.265274)">
    <rect
       style="fill:#e8e89a;fill-opacity:1;stroke-width:0;stroke-linecap:round;stroke-linejoin:round"
       id="rect66"
       width="80.963333"
       height="41.213898"
       x="-93.491295"
       y="-59.311314" />
    <path
       style="fill:#adc789;fill-opacity:1;stroke:none;stroke-width:0.264583px;stroke-linecap:butt;stroke-linejoin:miter;stroke-opacity:1"
       d="m -89.307145,-27.093341 c -0.302123,-0.460817 -0.5196,-0.975998 -0.854251,-1.413763 -0.167326,-0.218883 -0.363701,-0.417788 -0.593821,-0.569288 -0.230121,-0.1515 -0.494244,-0.254055 -0.768246,-0.282868 -0.274003,-0.02881 -0.556056,0.0175 -0.804581,0.136426 -0.248525,0.118924 -0.461102,0.309248 -0.613727,0.538623 -0.152625,0.229376 -0.245149,0.495307 -0.291825,0.766838 -0.04668,0.271531 -0.04849,0.548518 -0.04849,0.824031 l -10e-7,8.589809 19.874723,0.492281 c 3.076957,0.07621 6.154904,0.09691 9.2328,0.101851 6.685521,0.01074 13.370791,0.121809 20.056267,0.09506 5.651916,-0.02261 11.305376,-0.14382 16.945813,-0.504575 2.786204,-0.178202 5.577799,-0.285041 8.368304,-0.196911 l 5.845511,0.184613 0.221509,-12.527863 c 0.03153,-1.783288 0.05039,-3.577437 -0.23786,-5.337558 -0.288247,-1.760121 -0.890975,-3.484569 -1.898546,-4.956272 -1.007571,-1.471704 -2.418083,-2.672145 -4.052678,-3.385734 -1.634596,-0.713589 -3.474959,-0.933059 -5.237964,-0.663012 -1.763005,0.270047 -3.436856,1.018306 -4.882847,2.062443 -1.44599,1.044138 -2.667516,2.374299 -3.727002,3.809081 -2.118973,2.869565 -3.608205,6.18461 -5.904844,8.914059 -2.253664,2.678375 -5.265131,4.701483 -8.577512,5.833221 -2.662128,0.909567 -5.51471,1.250132 -8.31814,1.015569 -3.339418,-0.27941 -6.551427,-1.354762 -9.788962,-2.219718 -3.237535,-0.864956 -6.623701,-1.527359 -9.926717,-0.961792 -2.471377,0.423168 -4.792545,1.518523 -7.270042,1.904252 -1.238748,0.192864 -2.523149,0.202469 -3.729104,-0.140117 -1.205956,-0.342586 -2.330386,-1.060256 -3.017764,-2.108686 z"
       id="path1586"
       inkscape:path-effect="#path-effect1588"
       inkscape:original-d="m -89.307145,-27.093341 c -4.672568,0.766831 -3.974944,-0.686684 -3.974944,-1e-6 l -10e-7,8.589809 19.874723,0.492281 c 4.176152,0.103439 5.597577,1.298789 9.2328,0.101851 3.635221,-1.196938 22.144161,15.5381928 20.056267,0.09506 -0.843885,-6.241804 11.088266,0.05358 16.945813,-0.504575 5.857549,-0.558152 5.509967,-0.287184 8.368304,-0.196911 l 5.845511,0.184613 0.221509,-12.527863 c 0.06564,-3.712188 -19.177097,1.419574 -25.941741,0.443007 -6.764645,-0.976568 -5.508869,3.741409 -8.577512,5.833221 -3.068643,2.091811 -4.150445,1.653611 -8.31814,1.015569 -4.167696,-0.638046 -14.53824,-2.215101 -19.715679,-3.18151 -5.17744,-0.966411 -9.344342,-1.111379 -14.01691,-0.344551 z"
       sodipodi:nodetypes="sscssssscssssss" />
    <path
       style="fill:#ac6049;fill-opacity:1;stroke:none;stroke-width:0.108115px;stroke-linecap:butt;stroke-linejoin:miter;stroke-opacity:1"
       d="m -77.508577,-22.457882 c 0.420157,-0.218888 1.260428,-0.65664 1.727283,-0.863972 0.466855,-0.207331 0.56023,-0.184289 0.805307,6.6e-5 0.245077,0.184354 0.641865,0.529942 1.307086,0.702689 0.665221,0.172747 1.598838,0.172747 2.322409,0.161226 0.72357,-0.01152 1.237058,-0.03456 1.575511,0.01157 0.338453,0.04613 0.501838,0.161324 0.665228,0.264997 0.163391,0.103672 0.326775,0.195829 0.466793,0.345617 0.140018,0.149787 0.256721,0.357139 0.408467,0.518393 0.151747,0.161253 0.338466,0.276446 0.606868,0.299438 0.268402,0.02299 0.618509,-0.04612 0.968588,-0.23044 0.350078,-0.184315 0.700184,-0.483823 1.132011,-0.771828 0.431828,-0.288006 0.945317,-0.564475 1.237053,-0.944577 0.291735,-0.380102 0.361757,-0.863926 0.326784,-1.244062 -0.03497,-0.380136 -0.175017,-0.656607 -0.291694,-0.817919 -0.116676,-0.161311 -0.210032,-0.207386 -0.315093,-0.322556 -0.105061,-0.115169 -0.221762,-0.299481 -0.408527,-0.276506 -0.186765,0.02297 -0.44351,0.253367 -0.606913,0.46076 -0.163402,0.207393 -0.233423,0.391701 -0.443472,0.610544 -0.21005,0.218842 -0.560157,0.472274 -1.085283,0.552927 -0.525126,0.08065 -1.225339,-0.0115 -2.030605,-0.334034 -0.805267,-0.32253 -1.715543,-0.87547 -2.520811,-1.359307 -0.805268,-0.483837 -1.505479,-0.898541 -2.100688,-1.094419 -0.59521,-0.195878 -1.085358,-0.172842 -1.750597,-0.04613 -0.665238,0.126711 -1.505494,0.357103 -2.170696,0.472311 -0.665203,0.115208 -1.155352,0.115208 -1.575495,0.126725 -0.420144,0.01152 -0.770248,0.03456 -0.921993,0.115264 -0.151745,0.08071 -0.105064,0.218941 -0.08174,0.921652 0.02332,0.702711 0.02332,1.969867 0.07005,2.603404 0.04673,0.633536 0.140106,0.633536 0.52523,0.587449 0.385125,-0.04609 1.061994,-0.138244 1.40039,-0.184317 0.338396,-0.04607 0.338396,-0.04608 0.758554,-0.264965 z"
       id="path3014-3"
       inkscape:path-effect="#path-effect3242"
       inkscape:original-d="m -77.928735,-22.238994 c 0.840383,-0.437646 1.680653,-0.875399 2.520816,-1.31326 0.09346,0.02315 0.186836,0.04619 0.280092,0.06912 0.396912,0.345706 0.793698,0.691296 1.190385,1.036782 0.933762,1.08e-4 1.867379,1.08e-4 2.800906,0 0.513619,-0.02294 1.027106,-0.04598 1.540498,-0.06911 0.163496,0.115306 0.32688,0.230504 0.490156,0.345594 0.1635,0.09227 0.326884,0.184426 0.490161,0.276477 0.116815,0.207469 0.233518,0.414821 0.350113,0.622067 0.186839,0.115318 0.373562,0.230505 0.560182,0.345594 0.350228,-0.06901 0.700334,-0.138131 1.050337,-0.207354 0.35023,-0.299413 0.700336,-0.59892 1.050342,-0.898546 0.513619,-0.276371 1.027107,-0.552844 1.540498,-0.829425 0.07012,-0.483734 0.140154,-0.967556 0.210069,-1.451496 -0.139939,-0.276372 -0.279983,-0.552843 -0.420138,-0.829426 -0.09326,-0.04598 -0.186618,-0.09205 -0.28009,-0.138236 -0.116599,-0.184215 -0.233299,-0.368528 -0.350115,-0.552951 -0.256643,0.230507 -0.513388,0.460899 -0.770246,0.691187 -0.06993,0.184429 -0.139939,0.368742 -0.210071,0.552951 -0.350009,0.253549 -0.700117,0.506979 -1.050338,0.760309 -0.700132,-0.09205 -1.400344,-0.184211 -2.10068,-0.276478 -0.910203,-0.552854 -1.82048,-1.105792 -2.730882,-1.658852 -0.700134,-0.414614 -1.400346,-0.829316 -2.10068,-1.244138 -0.490059,0.02315 -0.980208,0.04618 -1.470475,0.06911 -0.84018,0.230509 -1.680435,0.460902 -2.520816,0.691189 -0.49006,1.07e-4 -0.980209,1.07e-4 -1.470476,0 -0.350012,0.02315 -0.700117,0.04618 -1.05034,0.06912 0.04678,0.138351 0.09346,0.276584 0.140046,0.414713 1.08e-4,1.267311 1.08e-4,2.534467 0,3.80154 0.09346,1.06e-4 0.186836,1.06e-4 0.280092,0 0.677008,-0.09206 1.353878,-0.184216 2.030654,-0.276477 z" />
    <path
       style="fill:#bf6044;fill-opacity:1;stroke:none;stroke-width:0.0982424px;stroke-linecap:butt;stroke-linejoin:miter;stroke-opacity:1"
       d="m -34.047194,-46.179396 c -0.137955,0.13467 -0.413868,0.404012 -0.603567,0.808067 -0.189699,0.404055 -0.293166,0.942731 -0.327643,1.481432 -0.03448,0.538702 5e-6,1.077272 0.03449,1.615955 0,0 0.282794,7.088282 0.282794,7.088282 0,0 -8.767106,-1.937122 -8.767106,-1.937122 -0.172446,-0.505015 -0.344852,-1.009914 -0.706953,-1.413956 -0.362101,-0.404041 -0.913913,-0.707044 -1.327794,-0.993207 -0.413882,-0.286163 -0.689787,-0.555498 -0.827794,-0.605997 -0.138006,-0.0505 -0.138006,0.117834 -0.01725,0.33668 0.12076,0.218845 0.362179,0.488182 0.413916,0.622802 0.05174,0.13462 -0.08622,0.13462 -0.362129,-0.01685 -0.275911,-0.151467 -0.689772,-0.454472 -1.017427,-0.723809 -0.327655,-0.269337 -0.569072,-0.505003 -0.689834,-0.387162 -0.120763,0.117842 -0.120763,0.589181 -0.06901,0.959539 0.05176,0.370357 0.155225,0.639693 0.275953,0.875365 0.120729,0.235673 0.258683,0.437676 0.569107,0.690166 0.310424,0.25249 0.793263,0.555495 1.293359,0.757477 0.500097,0.201983 1.017421,0.302984 2.000375,0.808034 0.982953,0.50505 2.431463,1.414059 4.000732,2.053726 1.56927,0.639667 3.259203,1.010004 4.62151,1.178328 1.362308,0.168324 2.396962,0.134657 2.862528,-1.212026 0.465565,-1.346684 0.362103,-4.006327 0.310366,-5.773919 -0.05174,-1.767591 -0.05174,-2.642934 -0.155195,-3.619301 -0.103459,-0.976366 -0.310389,-2.053711 -0.603532,-2.525124 -0.293143,-0.471413 -0.672516,-0.336745 -0.862234,-0.2694 -0.189719,0.06735 -0.18972,0.06735 -0.327676,0.202017 z"
       id="path981"
       inkscape:path-effect="#path-effect983"
       inkscape:original-d="m -33.909238,-46.314066 c -0.275816,0.269438 -0.551727,0.538782 -0.827738,0.808025 -0.10336,0.538791 -0.206839,1.077464 -0.310404,1.61605 0.03458,0.538791 0.103471,1.616049 0.103471,1.616049 l 0.282794,7.088282 -8.767106,-1.937122 c 0,0 -0.344793,-1.009934 -0.517337,-1.515046 -0.551735,-0.302919 -1.103546,-0.605922 -1.655471,-0.909028 -0.275821,-0.269252 -0.551727,-0.538586 -0.827739,-0.808026 9.9e-5,0.16844 9.9e-5,0.336774 0,0.505016 0.241525,0.269445 0.482946,0.53878 0.724272,0.808026 -0.137859,9.6e-5 -0.275815,9.6e-5 -0.41387,0 -0.413777,-0.302919 -0.82764,-0.605922 -1.241607,-0.90903 -0.241331,-0.235582 -0.482746,-0.47125 -0.724272,-0.707022 1.02e-4,0.471456 1.02e-4,0.942795 0,1.414045 0.103571,0.269444 0.207037,0.53878 0.310406,0.808025 0.138054,0.202107 0.276008,0.40411 0.413866,0.606017 0.482955,0.303111 0.965793,0.606117 1.448542,0.90903 0.517446,0.101097 1.034769,0.202104 1.552007,0.303009 1.448669,0.909143 2.897179,1.818152 4.34562,2.727085 1.690097,0.37045 3.38003,0.740785 5.069895,1.111033 1.034769,-0.03357 2.069424,-0.06723 3.104016,-0.101003 -0.10336,-2.659706 -0.206832,-5.319349 -0.3104,-7.979246 9.7e-5,-0.875282 9.7e-5,-1.750625 0,-2.626083 -0.206842,-1.07729 -0.413768,-2.154635 -0.620805,-3.232099 -0.379288,0.134769 -0.75866,0.269438 -1.138139,0.404012 z"
       sodipodi:nodetypes="cccccccccccccccccccccccccc" />
    <path
       style="fill:#ac6049;fill-opacity:1;stroke:none;stroke-width:0.0982424px;stroke-linecap:butt;stroke-linejoin:miter;stroke-opacity:1"
       d="m -31.643117,-26.778568 c -0.810062,-0.248384 -1.591675,-0.617833 -2.432878,-0.719183 -0.420602,-0.05067 -0.854563,-0.03148 -1.256313,0.102952 -0.40175,0.134428 -0.769773,0.390079 -0.998066,0.746949 -0.252244,0.394311 -0.318914,0.879065 -0.325867,1.347103 -0.007,0.468038 0.0394,0.938118 -0.01332,1.403229 -0.04233,0.373422 -0.14883,0.739484 -0.313444,1.077327 2.569409,0.428612 5.201083,0.482108 7.785788,0.158268 1.775009,-0.222392 3.528618,-0.621518 5.313511,-0.740997 0.842092,-0.05637 1.687759,-0.05013 2.530245,0 0.956014,0.05689 1.909924,0.170269 2.867613,0.164667 0.514648,-0.003 1.029457,-0.0404 1.543557,-0.01646 0.5141,0.02394 1.0341,0.112283 1.492734,0.345791 0.15709,0.07998 0.310363,0.178001 0.484486,0.205481 0.08706,0.01374 0.178463,0.0086 0.259873,-0.02514 0.08141,-0.03378 0.151855,-0.09804 0.183397,-0.180339 0.02932,-0.07651 0.02344,-0.163997 -0.0073,-0.239942 -0.03074,-0.07595 -0.08489,-0.140896 -0.148267,-0.192819 -0.126755,-0.103846 -0.286514,-0.156205 -0.434815,-0.225902 -0.256497,-0.120546 -0.482731,-0.2956 -0.709644,-0.465402 -0.226912,-0.169802 -0.460021,-0.337543 -0.724164,-0.44026 -0.267738,-0.104115 -0.55692,-0.137397 -0.842502,-0.168481 -0.285583,-0.03108 -0.574736,-0.06164 -0.84433,-0.160852 -0.525536,-0.193398 -0.923766,-0.626403 -1.265122,-1.070325 -0.180325,-0.234507 -0.354568,-0.480061 -0.590389,-0.658664 -0.308452,-0.233611 -0.719615,-0.334874 -1.096437,-0.246999 -0.255929,0.05968 -0.48654,0.200516 -0.690246,0.366544 -0.203706,0.166029 -0.384321,0.358148 -0.574876,0.539119 -0.395312,0.37543 -0.841538,0.707597 -1.349465,0.905661 -0.532959,0.207825 -1.114949,0.26077 -1.686829,0.247 -0.719898,-0.01733 -1.442081,-0.138924 -2.108539,-0.411664 -0.729972,-0.298733 -1.378617,-0.771467 -2.108536,-1.070328 -0.624652,-0.25576 -1.294522,-0.378459 -1.93985,-0.576332 z"
       id="path2470-4"
       inkscape:path-effect="#path-effect5315"
       inkscape:original-d="m -31.643117,-26.778568 c -0.354633,-0.105398 -4.491963,-0.832832 -4.687257,0.130718 -0.160842,0.793591 -0.148685,2.15542 -0.339188,2.750332 -0.421807,1.317229 -0.313345,0.967649 -0.313444,1.077327 1.216564,-0.361153 6.581541,0.113034 7.785788,0.158268 0.815202,0.02734 3.542442,-0.4939 5.313511,-0.740997 1.771076,-0.247095 1.68693,9.7e-5 2.530245,0 0.843318,-9.6e-5 1.91184,0.109871 2.867613,0.164667 0.955771,0.05481 2.024296,0.219652 3.036291,0.329331 1.011998,0.109674 0.618603,9.7e-5 0.927756,0 0.309153,-9.6e-5 -0.393494,-0.439011 -0.590386,-0.658663 -0.196899,-0.219651 -0.955776,-0.603679 -1.433808,-0.905662 -0.478037,-0.301985 -1.124453,-0.219457 -1.686832,-0.329333 -0.562373,-0.109882 -0.843313,-0.713455 -1.265122,-1.070325 -0.421807,-0.356873 -0.393493,-0.439013 -0.590389,-0.658664 -0.196895,-0.219649 -0.730861,-0.16457 -1.096437,-0.246999 -0.365581,-0.08243 -0.843316,0.603872 -1.265122,0.905663 -0.421809,0.301789 -0.899546,0.603872 -1.349465,0.905661 -0.449921,0.301792 -1.124453,0.164764 -1.686829,0.247 -0.562375,0.08223 -1.405592,-0.274346 -2.108539,-0.411664 -0.702945,-0.13732 -1.405592,-0.713456 -2.108536,-1.070328 -0.702951,-0.356876 -1.293141,-0.384124 -1.93985,-0.576332 z"
       sodipodi:nodetypes="sssccsssssssssssssssss"
       inkscape:transform-center-x="17.519396"
       inkscape:transform-center-y="-12.979613" />
    <path
       style="fill:#bf6044;fill-opacity:1;stroke:none;stroke-width:0.0982424px;stroke-linecap:butt;stroke-linejoin:miter;stroke-opacity:1"
       d="m -28.425148,-47.376622 c -1.180208,-0.24472 -2.279206,-0.866639 -3.096658,-1.752388 -0.481482,-0.521709 -0.864589,-1.1281 -1.349462,-1.646658 -0.05606,-0.05996 -0.113689,-0.11899 -0.16082,-0.186197 -0.04713,-0.06721 -0.08375,-0.143817 -0.09221,-0.225466 -0.0091,-0.08768 0.01515,-0.176901 0.05882,-0.253479 0.04367,-0.07658 0.105966,-0.141266 0.174764,-0.196382 0.137597,-0.110232 0.30124,-0.183858 0.441151,-0.291137 0.192222,-0.14739 0.337514,-0.365101 0.36515,-0.605744 0.01382,-0.120322 -0.0021,-0.24452 -0.04999,-0.355741 -0.04794,-0.111221 -0.128357,-0.208925 -0.230812,-0.273509 -0.106691,-0.06725 -0.23424,-0.09725 -0.360354,-0.0983 -0.126115,-0.001 -0.251192,0.02574 -0.370976,0.06521 -0.239567,0.07894 -0.460678,0.208257 -0.702473,0.280083 -0.191017,0.05674 -0.391212,0.07641 -0.59039,0.08233 -0.97002,0.02881 -1.957798,-0.279169 -2.69893,-0.905662 -0.226081,-0.19111 -0.429478,-0.41054 -0.674732,-0.576329 -0.270989,-0.183185 -0.590574,-0.296082 -0.917186,-0.313872 -0.326612,-0.01779 -0.659277,0.06088 -0.938325,0.231542 -0.361421,0.221034 -0.620506,0.587647 -0.759077,0.987996 -0.13136,0.379516 -0.160352,0.795158 -0.07413,1.1874 0.08622,0.392243 0.288519,0.759509 0.580183,1.035589 0.137405,0.130063 0.293086,0.239414 0.433241,0.366509 0.140155,0.127095 0.267344,0.276886 0.325834,0.456818 0.05122,0.157569 0.04646,0.327581 0.03086,0.492531 -0.0156,0.164949 -0.04154,0.330122 -0.03086,0.495463 0.01728,0.267441 0.130663,0.5221 0.286676,0.740006 0.156012,0.217907 0.353624,0.402483 0.556738,0.57732 0.364498,0.313753 0.753459,0.602659 1.180781,0.82333 0.220727,0.113984 0.452594,0.209872 0.695832,0.260353 0.243237,0.05048 0.498935,0.05426 0.737976,-0.01335 0.260794,-0.07377 0.491974,-0.229087 0.694813,-0.408841 0.202839,-0.179754 0.38116,-0.385047 0.570309,-0.579155 0.08227,-0.08442 0.166643,-0.16679 0.253024,-0.246997 l 1.518144,1.152662 c -0.02563,0.394037 -0.111256,0.784116 -0.253025,1.152658 -0.169256,0.439998 -0.419222,0.853962 -0.506047,1.317327 -0.118415,0.631951 0.07924,1.274638 0.253025,1.893655 0.06569,0.233967 0.130004,0.472879 0.260423,0.67793 0.06521,0.102526 0.146893,0.195574 0.245906,0.266002 0.09901,0.07043 0.215899,0.1176 0.337086,0.126397 0.168836,0.01226 0.337865,-0.05098 0.472363,-0.153768 0.134499,-0.102791 0.236848,-0.24284 0.315999,-0.392475 0.158304,-0.299271 0.229152,-0.639154 0.392414,-0.935749 0.229447,-0.416831 0.621961,-0.715622 1.012098,-0.987994 0.326647,-0.228046 0.660813,-0.44751 0.960706,-0.709746 0.299893,-0.262235 0.567052,-0.571673 0.726123,-0.936912 0.222741,-0.511429 0.213767,-1.118637 -0.02399,-1.62326 z"
       id="path1054"
       inkscape:path-effect="#path-effect1056"
       inkscape:original-d="m -28.425148,-47.376622 c -0.140669,-0.41176 -2.196919,-1.038741 -3.096658,-1.752388 -0.899743,-0.713651 -0.899544,-1.097676 -1.349462,-1.646658 -0.449922,-0.548984 -0.168585,-0.274346 -0.253026,-0.411663 -0.08445,-0.137321 0.449919,-0.493902 0.674734,-0.740998 0.224807,-0.247096 0.05634,-0.823232 0.08435,-1.234994 0.028,-0.411763 -0.95577,0.164763 -1.433803,0.246999 -0.478036,0.08224 -0.393497,0.05498 -0.59039,0.08233 -0.196898,0.02735 -1.799187,-0.603678 -2.69893,-0.905662 -0.899742,-0.301984 -0.449723,-0.384124 -0.674732,-0.576329 -0.22501,-0.192208 -1.236909,-0.05481 -1.855511,-0.08233 -0.618603,-0.02754 -0.505949,0.658762 -0.759077,0.987996 -0.253124,0.329232 0.337468,1.482088 0.50605,2.222989 0.168583,0.740897 0.506149,0.548981 0.759075,0.823327 0.252926,0.274345 9.9e-5,0.65876 0,0.987994 -1.02e-4,0.329233 0.562376,0.878315 0.843414,1.317326 0.281039,0.439013 0.787287,0.548983 1.180781,0.82333 0.393495,0.274347 0.955969,0.164764 1.433808,0.246998 0.477832,0.08223 0.843512,-0.658565 1.265122,-0.987996 0.421606,-0.329427 0.16878,-0.164567 0.253024,-0.246997 l 1.518144,1.152662 c 0.337267,0.192013 -0.224814,0.933202 -0.253025,1.152658 -0.02822,0.219457 -0.281039,0.713649 -0.506047,1.317327 -0.22501,0.603677 0.168781,1.262534 0.253025,1.893655 0.08424,0.631123 0.562373,0.71365 0.843415,1.070329 0.281037,0.356679 0.787286,-0.987898 1.180776,-1.481992 0.393491,-0.494096 0.674829,-0.658566 1.012098,-0.987994 0.337265,-0.32943 1.12465,-1.097676 1.686829,-1.646658 0.562179,-0.548985 0.116698,-1.211496 -0.02399,-1.62326 z"
       sodipodi:nodetypes="sssssssssssssssssssccssssssss" />
    <rect
       style="fill:#ffb380;fill-opacity:1;stroke:none;stroke-width:0;stroke-linecap:round;stroke-linejoin:round;stroke-opacity:1"
       id="rect10742"
       width="1.860839"
       height="9.7298727"
       x="-64.174568"
       y="-29.952854"
       ry="1.2464727"
       rx="0.89648473" />
    <rect
       style="fill:#e1ac1d;fill-opacity:1;stroke:none;stroke-width:0;stroke-linecap:round;stroke-linejoin:round;stroke-opacity:1"
       id="rect10768-9"
       width="7.1566129"
       height="1.9203691"
       x="-66.915321"
       y="-26.496187"
       rx="0.73477882"
       ry="1.2464744" />
    <path
       style="fill:#ac6049;fill-opacity:1;stroke:none;stroke-width:0.0982424px;stroke-linecap:butt;stroke-linejoin:miter;stroke-opacity:1"
       d="m -79.639243,-32.948257 c -0.265852,-0.18123 -0.797669,-0.543768 -1.295839,-0.79614 -0.49817,-0.252371 -0.962682,-0.394527 -1.332958,-0.449076 -0.370275,-0.05455 -0.646272,-0.02144 -0.830095,0.142212 -0.183823,0.163649 -0.275345,0.457777 -0.278917,0.808963 -0.0036,0.351187 0.08077,0.759354 0.372213,1.169237 0.291442,0.409882 0.789871,0.821465 1.273562,1.161617 0.483691,0.340152 0.952601,0.608875 1.735225,0.868914 0.782623,0.260039 1.878898,0.511419 2.502323,0.632889 0.623425,0.121469 0.773983,0.11306 1.084975,-0.224304 0.310992,-0.337364 0.782502,-1.003657 1.14114,-1.637109 0.358638,-0.633452 0.604397,-1.234053 0.8421,-1.663186 0.237702,-0.429132 0.467311,-0.686733 0.734738,-0.866827 0.267426,-0.180095 0.572584,-0.282663 0.731269,-0.409449 0.158684,-0.126787 0.170977,-0.277879 0.08309,-0.334944 -0.08788,-0.05706 -0.276038,-0.02001 -0.299183,-0.07918 -0.02314,-0.05917 0.118802,-0.214551 0.133238,-0.355384 0.01444,-0.140833 -0.09871,-0.267224 -0.282758,-0.262909 -0.184049,0.0043 -0.438961,0.139465 -0.397141,0.131231 0.04182,-0.0082 0.380359,-0.159853 0.490955,-0.308998 0.110595,-0.149145 -0.0068,-0.295946 -0.172019,-0.305954 -0.165251,-0.01001 -0.37835,0.11691 -0.393032,0.09856 -0.01468,-0.01835 0.169077,-0.181966 0.135485,-0.292127 -0.03359,-0.110161 -0.284694,-0.166929 -0.508383,-0.09105 -0.223688,0.07588 -0.419918,0.284428 -0.588847,0.572587 -0.168929,0.288158 -0.310516,0.655858 -0.364426,0.921384 -0.05391,0.265526 -0.02017,0.428792 -0.402021,0.949955 -0.381847,0.521164 -1.179243,1.400301 -1.632372,1.786941 -0.453129,0.38664 -0.562059,0.280657 -0.874088,0.03412 -0.312028,-0.246534 -0.827148,-0.633592 -1.084768,-0.827166 -0.25762,-0.193574 -0.257619,-0.193583 -0.52347,-0.374813 z"
       id="path2897-9"
       inkscape:path-effect="#path-effect3271"
       inkscape:original-d="m -79.373392,-32.767027 c -0.531701,-0.362463 -1.063518,-0.725001 -1.595457,-1.087618 -0.464414,-0.142086 -0.928926,-0.284243 -1.393566,-0.426478 -0.275892,0.03317 -0.551888,0.06629 -0.828008,0.09934 -0.0914,0.294213 -0.182928,0.588339 -0.274569,0.882393 0.08446,0.40826 0.168809,0.816426 0.253038,1.224524 0.498566,0.411676 0.996997,0.823257 1.495319,1.234772 0.469046,0.268808 0.937954,0.537533 1.406757,0.806183 1.096438,0.251469 2.192713,0.502846 3.288892,0.754156 0.150683,-0.0084 0.301245,-0.01673 0.451692,-0.02523 0.471646,-0.666243 0.943157,-1.332536 1.41456,-1.998921 0.245885,-0.600548 0.491645,-1.201149 0.737291,-1.80184 0.229734,-0.257534 0.459344,-0.515134 0.68884,-0.772817 0.305287,-0.102499 0.610446,-0.205064 0.915492,-0.307708 0.01242,-0.151021 0.02471,-0.302114 0.03688,-0.453287 -0.188046,0.03713 -0.376201,0.07418 -0.564478,0.111157 0.14207,-0.155313 0.284018,-0.310696 0.425848,-0.466159 -0.113033,-0.126321 -0.226177,-0.252713 -0.339441,-0.379182 -0.254806,0.135233 -0.509717,0.270383 -0.764753,0.40546 0.338667,-0.151546 0.677205,-0.303166 1.015631,-0.454863 -0.117248,-0.146728 -0.234612,-0.293529 -0.352093,-0.440406 -0.212991,0.126997 -0.42609,0.253915 -0.639311,0.380758 0.183884,-0.163546 0.367642,-0.327163 0.551287,-0.490861 -0.250931,-0.05667 -0.502036,-0.113429 -0.753176,-0.170274 -0.196123,0.208634 -0.392351,0.417183 -0.588707,0.625664 -0.141473,0.367791 -0.283061,0.735491 -0.424769,1.103122 0.03385,0.163352 0.06759,0.326617 0.101212,0.489809 -0.797307,0.879249 -1.594704,1.758386 -2.392231,2.637461 -0.108817,-0.105907 -0.217744,-0.211893 -0.326792,-0.31795 -0.515022,-0.386999 -1.030142,-0.774057 -1.545389,-1.161196 z"
       inkscape:transform-center-x="-0.29467396"
       inkscape:transform-center-y="-1.5815635"
       sodipodi:nodetypes="sccccccccccccccccccccccccccccss" />
    <path
       style="fill:#bf6044;fill-opacity:1;stroke:none;stroke-width:0.108115px;stroke-linecap:butt;stroke-linejoin:miter;stroke-opacity:1"
       d="m -85.759128,-34.017085 c 0.186728,-0.691189 0.373436,-1.382302 0.443471,-2.177159 0.07004,-0.794857 0.02335,-1.693383 -0.02333,-2.638016 -0.04668,-0.944633 -0.09336,-1.935319 0.140097,-2.453771 0.233461,-0.518451 0.746952,-0.56453 1.622249,-0.610608 0.875298,-0.04608 2.11234,-0.09215 2.777535,-0.02297 0.665196,0.06918 0.758561,0.253504 0.840237,0.4839 0.08168,0.230395 0.151698,0.506866 0.151672,0.806363 -2.6e-5,0.299497 -0.07005,0.622044 3.3e-5,0.921581 0.07008,0.299538 0.280143,0.576006 0.385131,0.794878 0.104988,0.218872 0.104988,0.380146 0.02331,0.506802 -0.08168,0.126656 -0.245055,0.218808 -0.326769,0.380153 -0.08171,0.161345 -0.08171,0.391737 -0.05836,0.633663 0.02335,0.241925 0.07003,0.495353 -0.01168,0.771781 -0.08171,0.276428 -0.291776,0.575938 -0.490122,0.737198 -0.198345,0.161261 -0.38507,0.184297 -0.641819,0.207336 -0.256748,0.02304 -0.583515,0.04607 -0.770299,0.19588 -0.186785,0.149804 -0.233467,0.426277 -0.280147,0.78589 -0.04668,0.359613 -0.09335,0.802247 -0.140033,1.244983 0,0 -3.641178,-0.567884 -3.641178,-0.567884 z"
       id="path2469"
       inkscape:path-effect="#path-effect2471"
       inkscape:original-d="m -85.759128,-34.017085 c 0,0 0.373565,-1.382267 0.560184,-2.073566 -0.04659,-0.898455 -0.09326,-1.796981 -0.140047,-2.695633 -0.04656,-0.990615 -0.09326,-1.9813 -0.140046,-2.972109 0.513618,-0.04599 1.02711,-0.09206 1.5405,-0.138239 1.237198,-0.04599 2.474241,-0.09205 3.7112,-0.138237 0.09346,0.184428 0.186836,0.368742 0.28009,0.552949 0.07012,0.27659 0.140153,0.553058 0.210067,0.829427 -0.06993,0.322668 -0.139936,0.645218 -0.210067,0.967664 0.210181,0.276589 0.420244,0.553057 0.630203,0.829425 1.11e-4,0.161389 1.11e-4,0.322663 0,0.483833 -0.163281,0.09228 -0.326661,0.184424 -0.490161,0.276474 1.11e-4,0.23051 1.11e-4,0.460902 0,0.691189 0.04679,0.253549 0.09346,0.506979 0.140048,0.760307 -0.209961,0.299628 -0.420026,0.599137 -0.630202,0.898546 -0.186623,0.02315 -0.373347,0.04619 -0.560183,0.06911 -0.326669,0.02315 -0.653435,0.04619 -0.980315,0.06911 -0.04656,0.276588 -0.09326,0.553058 -0.140048,0.829426 -0.04656,0.442852 -0.140045,1.328208 -0.140045,1.328208 z"
       sodipodi:nodetypes="cccccccccccccccccccc" />
    <path
       style="fill:#1a1a1a;fill-opacity:1;stroke:none;stroke-width:0.0967321px;stroke-linecap:butt;stroke-linejoin:miter;stroke-opacity:1"
       d="m -26.550116,-46.444039 c 0.262704,-0.476949 0.404585,-1.01983 0.408835,-1.564326 0.0045,-0.571313 -0.14217,-1.141379 -0.408835,-1.646659 -0.311815,-0.59083 -0.794031,-1.097772 -1.389996,-1.399657 -0.357833,-0.18126 -0.748373,-0.286619 -1.123154,-0.429583 -0.374781,-0.142964 -0.7459,-0.332642 -1.00275,-0.640745 -0.224335,-0.2691 -0.345229,-0.609433 -0.426793,-0.95015 -0.08156,-0.340718 -0.128346,-0.689769 -0.22733,-1.025839 -0.231226,-0.785057 -0.745312,-1.471854 -1.390003,-1.97599 -0.688667,-0.538525 -1.518941,-0.875546 -2.371191,-1.070328 -1.161074,-0.265364 -2.406966,-0.269817 -3.5159,0.164666 -0.667751,0.261627 -1.277021,0.681937 -1.733606,1.234993 -0.757055,0.917012 -1.055851,2.194606 -0.784003,3.352251 0.399152,-0.26595 0.898588,-0.377244 1.372894,-0.305936 0.452766,0.06807 0.866289,0.292062 1.308245,0.411667 0.614706,0.166355 1.278237,0.124305 1.880599,-0.08233 0.216764,-0.07436 0.428081,-0.169888 0.653767,-0.209661 0.112842,-0.01989 0.228988,-0.02545 0.342033,-0.0068 0.113046,0.0187 0.223049,0.0624 0.31244,0.134085 0.09871,0.07915 0.168584,0.188733 0.224646,0.302157 0.05606,0.113424 0.10009,0.232555 0.157815,0.345142 0.05772,0.112586 0.131074,0.220374 0.233177,0.295092 0.05105,0.03736 0.108933,0.06592 0.170526,0.08035 0.06159,0.01443 0.126944,0.01444 0.187669,-0.0033 0.06581,-0.01922 0.124806,-0.05886 0.171266,-0.109274 0.04646,-0.05041 0.08073,-0.11131 0.104572,-0.175589 0.04768,-0.128557 0.05394,-0.26822 0.05857,-0.405255 0.0043,-0.125897 0.0078,-0.253224 0.04083,-0.374783 0.03304,-0.121559 0.09917,-0.238794 0.204474,-0.307931 0.05722,-0.03757 0.124357,-0.05963 0.192641,-0.06436 0.06828,-0.0047 0.137573,0.0078 0.200316,0.03513 0.125485,0.05472 0.221583,0.169228 0.261159,0.300277 0.04668,0.154588 0.01671,0.325702 -0.05819,0.468762 -0.0749,0.14306 -0.191537,0.260564 -0.319401,0.359194 -0.08312,0.06411 -0.171633,0.121636 -0.248711,0.192895 -0.07708,0.07126 -0.142322,0.157977 -0.174504,0.257892 -0.03218,0.09992 -0.02883,0.210383 0.0072,0.308974 0.03603,0.09859 0.102823,0.182408 0.17072,0.262462 l 1.594878,1.880434 c 0.140238,0.165347 0.291847,0.323706 0.473776,0.441639 0.18193,0.117932 0.385401,0.197385 0.58182,0.289179 0.648313,0.302983 1.20543,0.772455 1.841025,1.101282 0.622882,0.322249 1.317623,0.504644 2.018471,0.529923 z"
       id="path937"
       inkscape:path-effect="#path-effect939"
       inkscape:original-d="m -26.550116,-46.444039 c 0.763043,0.2469 0.272651,-1.042788 0.408835,-1.564326 0.136173,-0.521539 -0.272451,-1.097675 -0.408835,-1.646659 -0.136368,-0.548982 -0.926577,-0.933008 -1.389996,-1.399657 -0.463435,-0.466651 -1.417169,-0.713456 -2.125904,-1.070328 -0.708727,-0.356873 -0.435983,-1.31723 -0.654123,-1.975989 -0.218134,-0.658762 -0.926567,-1.31723 -1.390003,-1.97599 -0.46343,-0.65876 -1.580697,-0.713455 -2.371191,-1.070328 -0.79049,-0.356873 -2.343839,0.109871 -3.5159,0.164666 -1.172065,0.05481 -0.970369,0.823425 -1.733606,1.234993 -0.763237,0.411567 -0.647627,2.364352 -0.784003,3.352251 1.07888,1.545169 -0.316059,-1.956408 1.372894,-0.305936 0.217947,0.192015 0.872259,0.274543 1.308245,0.411667 0.435988,0.137124 1.253829,-0.05481 1.880599,-0.08233 0.62677,-0.02754 0.872259,-0.05479 1.30824,-0.08233 0.435987,-0.02755 0.565107,0.662768 0.973833,1.019447 0.408731,0.356678 0.307252,-0.443021 0.334412,-0.690118 0.02716,-0.247094 0.163628,-0.353285 0.2453,-0.682714 0.08166,-0.329428 0.436173,0.07904 0.654116,0.27105 0.217945,0.192014 -0.268471,0.416387 -0.37759,0.827956 -0.109117,0.411565 -0.34848,0.900562 -0.245293,1.022223 l 1.594878,1.880434 c 0.201726,0.237842 0.619615,0.182031 1.055596,0.730818 0.43598,0.548789 1.407624,-0.37878 1.841025,1.101282 0.239283,0.817167 1.255432,0.283022 2.018471,0.529923 z"
       sodipodi:nodetypes="ssssssssssccsssscssssssss" />
    <path
       style="fill:#bf6044;fill-opacity:1;stroke:none;stroke-width:0.110472px;stroke-linecap:butt;stroke-linejoin:miter;stroke-opacity:1"
       d="m -31.749705,-25.816092 c -0.233569,-0.447957 -0.59571,-0.827946 -1.031923,-1.082778 -0.436212,-0.254831 -0.945071,-0.383674 -1.449993,-0.367137 -0.504923,0.01654 -1.004261,0.178399 -1.422864,0.461227 -0.418603,0.282827 -0.755106,0.685698 -0.958863,1.147978 -0.227972,0.517219 -0.287978,1.092317 -0.302348,1.657366 -0.01437,0.565048 0.01391,1.132512 -0.0496,1.694163 -0.05081,0.449251 -0.160447,0.891813 -0.325239,1.312825 2.678039,0.338836 5.379611,0.491541 8.078775,0.456649 1.845517,-0.02386 3.693876,-0.135792 5.513452,-0.445057 1.202891,-0.20445 2.397159,-0.495475 3.616261,-0.545845 0.661185,-0.02732 1.323011,0.01657 1.984709,0.02479 0.533948,0.0066 1.068869,-0.0099 1.601291,0.03094 0.532422,0.04087 1.06686,0.141377 1.54925,0.370383 0.161908,0.07686 0.321243,0.169154 0.498614,0.194881 0.08869,0.01286 0.181093,0.0081 0.264953,-0.02346 0.08386,-0.03159 0.158541,-0.09151 0.1991,-0.171416 0.04249,-0.08372 0.04501,-0.184512 0.01723,-0.274192 -0.02778,-0.08968 -0.084,-0.168761 -0.152036,-0.233453 -0.136076,-0.129386 -0.314798,-0.201783 -0.477796,-0.294997 -0.268911,-0.153784 -0.498162,-0.366732 -0.730321,-0.571829 -0.23216,-0.205097 -0.473971,-0.406867 -0.757439,-0.531802 -0.27475,-0.121093 -0.576374,-0.164633 -0.873852,-0.205348 -0.297479,-0.04072 -0.59914,-0.08086 -0.876449,-0.195974 -0.289586,-0.12021 -0.541946,-0.318631 -0.755428,-0.548274 -0.213482,-0.229643 -0.390288,-0.490652 -0.5573,-0.756015 -0.180054,-0.286085 -0.354571,-0.584285 -0.612609,-0.802642 -0.155138,-0.131281 -0.338113,-0.230279 -0.534176,-0.283776 -0.196063,-0.0535 -0.405068,-0.06104 -0.603518,-0.01722 -0.285529,0.06305 -0.539914,0.229133 -0.75178,0.430665 -0.211866,0.201531 -0.385907,0.438739 -0.560946,0.672969 -0.182601,0.244349 -0.369127,0.488622 -0.597025,0.691383 -0.227898,0.202761 -0.502075,0.363615 -0.803214,0.412246 -0.294702,0.04759 -0.595906,-0.01411 -0.883092,-0.09558 -0.287187,-0.08148 -0.570806,-0.183457 -0.867212,-0.218925 -0.363943,-0.04355 -0.731396,0.01492 -1.093896,0.06919 -0.362499,0.05427 -0.732354,0.104454 -1.093983,0.04466 -0.423012,-0.06995 -0.808022,-0.286457 -1.156982,-0.535572 -0.348961,-0.249115 -0.671921,-0.534269 -1.030897,-0.768721 -0.600855,-0.392426 -1.29829,-0.635771 -2.012851,-0.702312 z"
       id="path2470"
       inkscape:path-effect="#path-effect2472"
       inkscape:original-d="m -31.749705,-25.816092 c -0.36798,-0.128438 -4.661003,-1.014882 -4.863643,0.15929 -0.166895,0.967063 -0.154279,2.626578 -0.351952,3.351529 -0.437679,1.605166 -0.325134,1.17917 -0.325239,1.312825 1.262342,-0.440099 6.829218,0.401525 8.078775,0.456649 0.845879,0.03332 3.675742,-0.143947 5.513452,-0.445057 1.837718,-0.301107 2.741215,-0.545727 3.616261,-0.545845 0.875051,-1.19e-4 0.992973,-0.04196 1.984709,0.02479 0.991736,0.06677 2.100466,0.267665 3.150541,0.401321 1.050081,0.133654 0.641882,1.17e-4 0.962667,0 0.320788,-1.19e-4 -0.408301,-0.534976 -0.612601,-0.802642 -0.204309,-0.267665 -0.991739,-0.735637 -1.48776,-1.103631 -0.496023,-0.367994 -1.166767,-0.267429 -1.750301,-0.401322 -0.583537,-0.13389 -0.875051,-0.869409 -1.312728,-1.304289 -0.437681,-0.434884 -0.4083,-0.534978 -0.612609,-0.802642 -0.2043,-0.267664 -0.758358,-0.200542 -1.137694,-0.300992 -0.379334,-0.100449 -0.875044,0.735875 -1.312726,1.103634 -0.437679,0.367759 -0.933391,0.735872 -1.400239,1.103629 -0.466854,0.367758 -1.166768,-0.414719 -1.750304,-0.314507 -0.583536,0.100219 -1.458483,0.281183 -2.187879,0.113846 -0.729396,-0.167335 -1.45848,-0.86941 -2.187879,-1.304293 -0.7294,-0.434882 -1.3418,-0.468088 -2.012851,-0.702312 z"
       sodipodi:nodetypes="sssccsssssssssssssssss"
       inkscape:transform-center-x="18.170825"
       inkscape:transform-center-y="-15.745986" />
    <path
       style="fill:#ec878b;fill-opacity:1;stroke:none;stroke-width:0.0982424px;stroke-linecap:butt;stroke-linejoin:miter;stroke-opacity:1"
       d="m -26.390314,-46.247634 c -0.477961,-0.414746 -1.065818,-0.701674 -1.686834,-0.82333 -0.139592,-0.02735 -0.287099,-0.04599 -0.421704,0 -0.126853,0.04334 -0.232435,0.145038 -0.280507,0.270175 -0.04807,0.125138 -0.03773,0.271364 0.02748,0.388489 -0.372949,0.928904 -1.027773,1.742469 -1.855511,2.305322 -0.33691,0.229095 -0.713728,0.421057 -1.119748,0.454842 -0.203009,0.01689 -0.41081,-0.0071 -0.600065,-0.08246 -0.189255,-0.07537 -0.359192,-0.203466 -0.473061,-0.372381 -0.134461,-0.199462 -0.185534,-0.445933 -0.18496,-0.686483 5.74e-4,-0.240551 0.04956,-0.478103 0.1006,-0.713176 0.07096,-0.326813 0.146574,-0.654297 0.168685,-0.987995 0.0091,-0.137022 0.0091,-0.274644 0,-0.411666 -0.31867,0.222713 -0.657954,0.415916 -1.012098,0.576332 -0.121102,0.05485 -0.244955,0.106454 -0.353557,0.183138 -0.108601,0.07668 -0.202498,0.182423 -0.236833,0.310859 -0.02854,0.106773 -0.01412,0.219716 0,0.329332 0.07401,0.574436 0.134665,1.150808 0.16868,1.728992 0.02631,0.447273 0.03223,0.916847 -0.16868,1.317323 -0.196093,0.390877 -0.563364,0.663888 -0.927757,0.905663 -0.397392,0.26367 -0.818118,0.51839 -1.096442,0.90566 -0.19233,0.267614 -0.306211,0.588204 -0.343816,0.915608 -0.0376,0.327405 -4.2e-4,0.661367 0.09079,0.97805 0.120115,0.417035 0.332362,0.803708 0.590389,1.15266 0.339791,0.459529 0.758481,0.856453 1.096444,1.317327 0.314617,0.429038 0.555236,0.908222 0.75907,1.399658 0.356744,0.860096 0.60722,1.791354 0.506051,2.716987 -0.05184,0.47431 -0.202253,0.949407 -0.506051,1.317325 -0.238088,0.288339 -0.559163,0.498068 -0.896442,0.659526 -0.337278,0.161459 -0.693706,0.278396 -1.043412,0.410801 -1.300303,0.49232 -2.507058,1.198222 -3.711026,1.893657 -1.678032,0.969263 -3.430961,1.986965 -4.470096,3.622648 -0.179279,0.2822 -0.335848,0.582541 -0.421709,0.90566 -0.106844,0.402086 -0.100228,0.831208 0,1.234994 0.08075,0.32531 0.222106,0.636396 0.421709,0.905664 0.158998,0.214492 0.355523,0.402657 0.584015,0.540783 0.228492,0.138126 0.489425,0.225262 0.756077,0.238827 0.298074,0.01516 0.59283,-0.05598 0.887899,-0.100844 0.295069,-0.04486 0.594275,-0.05494 0.892643,-0.04755 l 7.759418,0.19211 0.337365,-2.22299 0.506047,-2.05832 c 1.107164,0.322622 2.204308,0.679627 3.289319,1.070327 0.828476,0.298325 1.658259,0.618467 2.530243,0.740996 0.629122,0.0884 1.301561,0.06404 1.855516,-0.246998 0.419435,-0.235505 0.743998,-0.625779 0.927756,-1.070326 0.165355,-0.400027 0.220097,-0.839745 0.204327,-1.272314 -0.01577,-0.432569 -0.100101,-0.859886 -0.204327,-1.280007 -0.298704,-1.204035 -0.762987,-2.364838 -1.349468,-3.457982 -0.525525,-0.979526 -1.152757,-1.914157 -1.518147,-2.963985 -0.420049,-1.206872 -0.473638,-2.516716 -0.337364,-3.78731 0.101856,-0.94969 0.307117,-1.887158 0.59039,-2.799321 0.376852,-1.213495 0.891975,-2.385239 1.180782,-3.622647 0.08687,-0.372185 0.153191,-0.752391 0.142416,-1.134428 -0.01077,-0.382036 -0.10248,-0.768333 -0.311103,-1.088558 -0.198303,-0.304384 -0.500043,-0.54003 -0.843408,-0.658665 z"
       id="path1422"
       inkscape:path-effect="#path-effect1424"
       inkscape:original-d="m -26.390314,-46.247634 c -0.281239,-0.219651 -1.124456,-0.548789 -1.686834,-0.82333 -0.562374,-0.274538 -0.281038,9.9e-5 -0.421704,0 -0.14067,-9.6e-5 -0.168584,0.439209 -0.253027,0.658664 -0.591529,0.791983 -1.284928,1.596781 -1.855511,2.305322 -0.309351,0.384123 -1.461819,9.7e-5 -2.192874,0 -0.731064,-9.8e-5 -0.05613,-0.93301 -0.08436,-1.399659 -0.02822,-0.466651 0.112557,-0.658566 0.168685,-0.987995 0.05613,-0.329429 9.6e-5,-0.274348 0,-0.411666 -0.280148,0.505961 -0.439317,0.46135 -1.012098,0.576332 -0.253126,0.05481 -0.393497,0.329428 -0.59039,0.493997 -0.196898,0.164567 9.5e-5,0.219651 0,0.329332 -1.02e-4,0.109673 0.112553,1.152756 0.16868,1.728992 0.05613,0.576232 -0.112355,0.878314 -0.16868,1.317323 -0.05634,0.439012 -0.618408,0.603873 -0.927757,0.905663 -0.309352,0.301789 -0.730861,0.603871 -1.096442,0.90566 -0.779618,0.620887 -0.43182,1.089201 -0.253024,1.893658 0.08425,0.411569 0.393696,0.768539 0.590389,1.15266 0.1967,0.384123 0.731064,0.878316 1.096444,1.317327 0.365377,0.439013 0.506147,0.933204 0.75907,1.399658 0.252925,0.466457 0.337469,1.811422 0.506051,2.716987 0.168583,0.905565 -0.337269,0.878314 -0.506051,1.317325 -0.168782,0.439013 -1.293134,0.713651 -1.939854,1.070327 -0.646718,0.356681 -2.473916,1.262536 -3.711026,1.893657 -1.237107,0.631122 -2.979967,2.415196 -4.470096,3.622648 -1.490133,1.207452 -0.281037,0.603871 -0.421709,0.90566 -0.140668,0.301792 1.01e-4,0.823427 0,1.234994 -1e-4,0.411567 0.195175,0.658553 0.421709,0.905664 0.346775,0.37827 1.030938,0.752263 1.340092,0.77961 0.309154,0.02734 0.737361,-0.174219 1.780542,-0.148392 l 7.759418,0.19211 0.337365,-2.22299 0.506047,-2.05832 c 0.420748,-0.30258 2.444898,0.77783 3.289319,1.070327 0.871412,0.301846 1.686927,0.494095 2.530243,0.740996 0.843316,0.246902 1.237111,-0.16457 1.855516,-0.246998 0.618403,-0.08243 0.618602,-0.713454 0.927756,-1.070326 0.309153,-0.356876 9.5e-5,-1.701451 0,-2.552321 -1.03e-4,-0.850872 -0.899545,-2.305226 -1.349468,-3.457982 -0.449919,-1.152758 -1.011995,-1.975893 -1.518147,-2.963985 -0.506146,-0.98809 -0.224809,-2.524777 -0.337364,-3.78731 -0.112553,-1.262538 0.393692,-1.866118 0.59039,-2.799321 0.196698,-0.933202 0.787287,-2.415002 1.180782,-3.622647 0.393493,-1.207647 -0.112354,-1.481895 -0.168687,-2.222986 -0.05633,-0.741095 -0.562172,-0.439014 -0.843408,-0.658665 z"
       sodipodi:nodetypes="sssccsssccsssssccssssssssssassccccsssssssssss" />
    <path
       style="fill:#bf6044;fill-opacity:1;stroke:none;stroke-width:0.0982424px;stroke-linecap:butt;stroke-linejoin:miter;stroke-opacity:1"
       d="m -26.489322,-46.114034 c -0.272817,-0.03235 -0.818554,-0.09706 -1.387092,0.15915 -0.568537,0.256211 -1.159744,0.833339 -1.705498,1.610283 -0.545754,0.776945 -1.046006,1.75362 -1.841885,3.218678 -0.79588,1.465057 -1.887336,3.418406 -2.57706,4.264561 -0.689723,0.846155 -2.948519,-1.201347 -4.22191,-2.355622 0,0 -2.865131,-2.796895 -3.160687,-2.974445 -0.295557,-0.177549 -0.886737,-0.532688 -1.730601,-0.868866 -0.843865,-0.336178 -1.940288,-0.653302 -2.554309,-0.798535 -0.614022,-0.145234 -0.745496,-0.118553 -0.992929,-0.04884 -0.247434,0.06971 -0.611581,0.18268 -0.475124,0.283528 0.136458,0.100847 0.773043,0.189623 1.409738,0.278414 -0.818608,0.0444 -1.63712,0.08879 -2.082834,0.128274 -0.445713,0.03949 -0.518477,0.07409 -0.48018,0.153903 0.0383,0.07982 0.187588,0.204732 0.336888,0.287983 0.149301,0.08325 0.2986,0.124893 0.287905,0.176914 -0.0107,0.05202 -0.181321,0.114481 -0.159962,0.208216 0.02136,0.09374 0.234632,0.218651 0.330541,0.322752 0.09591,0.104102 0.07458,0.187378 0.12797,0.260241 0.05339,0.07286 0.181356,0.135324 0.469279,0.197763 0.287923,0.06244 0.735799,0.124898 1.524936,0.218586 0.789136,0.09369 1.919481,0.218604 2.52729,0.260227 0.607808,0.04162 0.693115,-1.5e-5 0.981067,0.281121 0.287952,0.281136 0.778481,0.884901 1.695579,2.259033 0.917098,1.374133 2.260719,3.518532 3.167175,4.642758 0.906455,1.124226 1.375656,1.228323 2.058132,1.186661 0.682476,-0.04166 1.578222,-0.229037 2.313998,-0.614201 0.735775,-0.385165 1.311611,-0.968108 2.28203,-2.175668 0.970419,-1.207559 2.335367,-3.039665 3.252461,-4.445 0.917093,-1.405334 1.386295,-2.383848 1.66356,-3.133347 0.277264,-0.749498 0.362572,-1.269982 0.265498,-1.663301 -0.09707,-0.393319 -0.376635,-0.659467 -0.58223,-0.853071 -0.205594,-0.193604 -0.337208,-0.314647 -0.403068,-0.375219 -0.06586,-0.06057 -0.06586,-0.06058 -0.338678,-0.09293 z"
       id="path864"
       inkscape:path-effect="#path-effect866"
       inkscape:original-d="m -26.216506,-46.081685 c -0.545642,-0.06462 -1.09138,-0.129327 -1.637219,-0.194134 -0.591129,0.577246 -1.182336,1.154374 -1.773652,1.731413 -0.50017,0.976811 -1.00042,1.953487 -1.500783,2.930083 -1.091397,1.953524 -2.182855,3.906872 -3.274434,5.860163 -0.363731,-0.177486 -3.820173,-3.462824 -3.820173,-3.462824 l -2.865131,-2.796895 c -0.591128,-0.355074 -1.182308,-0.710213 -1.773651,-1.065485 -1.096389,-0.317045 -2.192809,-0.634181 -3.289326,-0.951388 -0.131488,0.0268 -0.262958,0.0535 -0.394413,0.08004 -0.363401,0.112872 -0.72755,0.225836 -1.091475,0.338608 0.636794,0.08888 1.910084,0.266373 1.910084,0.266373 0,0 -1.637115,0.08888 -2.455824,0.133185 -0.07267,0.03469 -0.145428,0.0693 -0.218296,0.103796 0.149397,0.125019 0.298686,0.249937 0.447881,0.374758 0.149398,0.04173 0.298692,0.08339 0.447885,0.124919 -0.170525,0.06254 -0.341145,0.125016 -0.511868,0.187377 0.213381,0.125019 0.426654,0.249935 0.639834,0.374758 -0.02123,0.08338 -0.04256,0.166655 -0.06398,0.249836 0.128066,0.06255 0.256032,0.125018 0.383898,0.187379 0.44799,0.06255 0.895865,0.125016 1.343645,0.18738 1.130495,0.125016 2.26084,0.249933 3.39111,0.374754 0.08541,-0.04155 0.170721,-0.08318 0.255934,-0.124918 0.490643,0.603884 0.981174,1.207647 1.471614,1.811326 1.343771,2.144579 2.687394,4.288977 4.03094,6.43332 0.469319,0.104204 0.938521,0.208296 1.407632,0.312297 0.89588,-0.187285 1.791627,-0.374659 2.687294,-0.562134 0.575959,-0.58287 1.151795,-1.165813 1.727545,-1.748866 1.365099,-1.832081 2.730045,-3.664189 4.094924,-5.496429 0.469318,-0.978453 0.938521,-1.956966 1.407632,-2.935594 0.08541,-0.520408 0.170718,-1.040892 0.25593,-1.561485 -0.279471,-0.266063 -0.559034,-0.532209 -0.838704,-0.798464 -0.131521,-0.12095 -0.263133,-0.241996 -0.394852,-0.363141 z"
       sodipodi:nodetypes="ccccccccccscccccccccccccccccccccc" />
    <path
       style="fill:#1a1a1a;stroke:none;stroke-width:0.108115px;stroke-linecap:butt;stroke-linejoin:miter;stroke-opacity:1"
       d="m -81.398826,-40.93773 c 0.169898,-0.01863 0.509602,-0.05589 0.830445,-0.05588 0.320842,1.4e-5 0.622791,0.03727 0.812917,-0.0902 0.190125,-0.127469 0.268555,-0.419714 0.299107,-0.758437 0.03055,-0.338722 0.0132,-0.723949 -0.225877,-1.036928 -0.23908,-0.312979 -0.699987,-0.553636 -1.145729,-0.792386 -0.445742,-0.238749 -0.876274,-0.475572 -1.3719,-0.656017 -0.495627,-0.180446 -1.056307,-0.304461 -1.603637,-0.304485 -0.54733,-2.3e-5 -1.08121,0.123995 -1.593523,0.335037 -0.512312,0.211042 -1.002982,0.509094 -1.550245,0.6596 -0.547263,0.150506 -1.151153,0.153439 -1.509794,0.52608 -0.358641,0.37264 -0.471871,1.114866 -0.71718,1.560448 -0.245308,0.445583 -0.622746,0.594609 -0.677618,0.906965 -0.05487,0.312356 0.212801,0.787862 0.2505,1.25355 0.0377,0.465688 -0.154492,0.921589 -0.01064,1.201008 0.143855,0.279418 0.623583,0.382364 0.868866,0.699099 0.245283,0.316734 0.25622,0.847148 0.469336,1.096579 0.213116,0.24943 0.628291,0.217985 0.986876,0.348446 0.358584,0.130461 0.660534,0.422705 0.982781,0.385393 0.322246,-0.03731 0.664875,-0.404061 1.004631,-0.610442 0.339755,-0.20638 0.676501,-0.252349 0.901445,-0.497387 0.224945,-0.245038 0.338177,-0.689214 0.281622,-1.023062 -0.05656,-0.333849 -0.283019,-0.557388 -0.283065,-0.762365 -4.5e-5,-0.204977 0.226416,-0.391259 0.32078,-0.63337 0.09436,-0.24211 0.05662,-0.540164 0.15102,-0.540162 0.0944,3e-6 0.320865,0.298057 0.52847,0.447026 0.207604,0.148969 0.396323,0.148969 0.528366,-2.4e-5 0.132043,-0.148993 0.207531,-0.447049 0.434065,-0.596116 0.226535,-0.149067 0.603974,-0.149067 0.773777,-0.298039 0.169802,-0.148971 0.132059,-0.447025 0.113179,-0.596115 -0.01888,-0.149089 -0.01888,-0.149184 0.151021,-0.167818 z"
       id="path1457"
       inkscape:path-effect="#path-effect1459"
       inkscape:original-d="m -81.568725,-40.919096 c 0.339811,-0.03714 0.679513,-0.07442 1.019103,-0.111771 0.302072,0.03736 0.604021,0.07462 0.905871,0.111771 0.07854,-0.292147 0.15697,-0.584392 0.235292,-0.876749 -0.01722,-0.385128 -0.03458,-0.770354 -0.05205,-1.155703 -0.460826,-0.240564 -0.921734,-0.481219 -1.382775,-0.721999 -0.430442,-0.236723 -0.860973,-0.473547 -1.291621,-0.710481 -0.560602,-0.123916 -1.121283,-0.24793 -1.682106,-0.37206 -0.53379,0.12413 -1.06767,0.248147 -1.601667,0.37206 -0.49058,0.298173 -0.98125,0.596225 -1.472039,0.894177 -0.603814,0.003 -1.207703,0.0061 -1.811737,0.0088 -0.113126,0.742366 -0.226359,1.484591 -0.339699,2.226727 -0.377346,0.149141 -0.754784,0.298167 -1.132339,0.44709 0.267798,0.475638 0.53547,0.951144 0.80305,1.426569 -0.192089,0.456027 -0.38428,0.911928 -0.576581,1.367731 0.479866,0.103053 0.959593,0.206005 1.439237,0.308849 0.01106,0.530543 0.02197,1.060957 0.03281,1.591275 0.415307,-0.03133 0.830481,-0.0628 1.245571,-0.09434 0.30207,0.292363 0.60402,0.584607 0.905868,0.876751 0.342758,-0.366664 0.685386,-0.733415 1.02793,-1.100296 0.336873,-0.04586 0.673617,-0.09184 1.010273,-0.13791 0.113345,-0.444086 0.226578,-0.888261 0.339703,-1.33255 -0.226364,-0.223441 -0.452827,-0.44698 -0.679404,-0.670632 0.226582,-0.186185 0.453044,-0.372466 0.679404,-0.558862 -0.03763,-0.297956 -0.07538,-0.596009 -0.113234,-0.894176 0.226578,0.298172 0.453042,0.596226 0.679402,0.894176 0.188833,1.07e-4 0.377552,1.07e-4 0.566167,0 0.07559,-0.297956 0.151088,-0.596009 0.226467,-0.894176 0.377561,1.1e-4 0.755,1.1e-4 1.132335,0 -0.03763,-0.297956 -0.07538,-0.596009 -0.113233,-0.894176 z"
       sodipodi:nodetypes="ccccccccccccccccccccccccccccccc" />
    <rect
       style="fill:#008080;fill-opacity:1;stroke:none;stroke-width:0;stroke-linecap:round;stroke-linejoin:round;stroke-opacity:1"
       id="rect10766"
       width="11.021893"
       height="2.4324679"
       x="-68.710304"
       y="-22.655451"
       rx="0.89648777"
       ry="1.2464744" />
    <rect
       style="fill:#e2993e;fill-opacity:1;stroke:none;stroke-width:0;stroke-linecap:round;stroke-linejoin:round;stroke-opacity:1"
       id="rect10768"
       width="8.7316294"
       height="1.9203691"
       x="-67.428169"
       y="-24.575817"
       rx="0.89648777"
       ry="1.2464744" />
    <path
       style="fill:#bf6044;fill-opacity:1;stroke:none;stroke-width:0.108115px;stroke-linecap:butt;stroke-linejoin:miter;stroke-opacity:1"
       d="m -77.126734,-20.644525 c 0.420156,-0.218887 1.260427,-0.65664 1.727282,-0.863973 0.466856,-0.207333 0.560234,-0.184292 0.805309,6e-5 0.245076,0.184353 0.641863,0.529941 1.307084,0.702687 0.66522,0.172747 1.598838,0.172747 2.322408,0.161226 0.723569,-0.01152 1.237061,-0.03456 1.575514,0.01157 0.338453,0.04613 0.501835,0.161323 0.665226,0.264996 0.163392,0.103673 0.326774,0.19583 0.466792,0.345617 0.140018,0.149788 0.25672,0.357138 0.408465,0.518392 0.151746,0.161253 0.338469,0.27645 0.606872,0.299441 0.268402,0.02299 0.618507,-0.04612 0.968587,-0.230441 0.350079,-0.184316 0.700183,-0.483825 1.13201,-0.77183 0.431827,-0.288006 0.945318,-0.564476 1.237053,-0.944577 0.291736,-0.380101 0.361757,-0.863924 0.326784,-1.244061 -0.03497,-0.380136 -0.175016,-0.656608 -0.291692,-0.817918 -0.116675,-0.161311 -0.210032,-0.207387 -0.315092,-0.322556 -0.10506,-0.115168 -0.221765,-0.299485 -0.40853,-0.276508 -0.186766,0.02298 -0.443509,0.253369 -0.606911,0.460761 -0.163402,0.207393 -0.233422,0.3917 -0.443473,0.610543 -0.210051,0.218844 -0.560157,0.472274 -1.085283,0.552927 -0.525127,0.08065 -1.225337,-0.0115 -2.030604,-0.334034 -0.805268,-0.32253 -1.715543,-0.875469 -2.52081,-1.359306 -0.805268,-0.483837 -1.505479,-0.898542 -2.100689,-1.09442 -0.595211,-0.195879 -1.08536,-0.172843 -1.7506,-0.04613 -0.665239,0.126711 -1.505491,0.357102 -2.170694,0.472311 -0.665203,0.115208 -1.155351,0.115208 -1.575494,0.126723 -0.420144,0.01151 -0.770249,0.03455 -0.921994,0.115259 -0.151745,0.08071 -0.105065,0.218938 -0.08175,0.92165 0.02332,0.702712 0.02332,1.969863 0.07005,2.603399 0.04673,0.633537 0.140109,0.633537 0.52523,0.587451 0.385122,-0.04609 1.061996,-0.138243 1.400393,-0.184315 0.338396,-0.04607 0.338396,-0.04606 0.758553,-0.264944 z"
       id="path3014"
       inkscape:path-effect="#path-effect3016"
       inkscape:original-d="m -77.546891,-20.425638 c 0.84038,-0.437646 1.680652,-0.875396 2.520814,-1.313258 0.09346,0.02315 0.186838,0.04619 0.280092,0.06911 0.396911,0.345709 0.793698,0.691297 1.190385,1.036782 0.933761,1.09e-4 1.867379,1.09e-4 2.800905,0 0.513618,-0.02294 1.027109,-0.04598 1.540497,-0.06911 0.163501,0.115306 0.326881,0.230504 0.49016,0.345595 0.163499,0.09227 0.326881,0.184426 0.490157,0.276477 0.116817,0.207468 0.233519,0.414818 0.350115,0.622067 0.186841,0.115306 0.373563,0.230505 0.56018,0.345595 0.350231,-0.06901 0.700335,-0.138131 1.05034,-0.207355 0.350229,-0.299415 0.700335,-0.598921 1.050341,-0.898549 0.513618,-0.276369 1.027106,-0.552844 1.540499,-0.829426 0.07012,-0.483731 0.140153,-0.967552 0.210066,-1.451493 -0.139937,-0.276373 -0.27998,-0.552844 -0.420134,-0.829425 -0.09326,-0.04598 -0.18662,-0.09205 -0.280092,-0.138237 -0.116597,-0.184213 -0.233301,-0.36853 -0.350113,-0.552952 -0.256647,0.230509 -0.51339,0.4609 -0.770248,0.691189 -0.06993,0.184428 -0.139938,0.368739 -0.21007,0.552951 -0.350012,0.253547 -0.700116,0.50698 -1.050338,0.760306 -0.700132,-0.09206 -1.400343,-0.184209 -2.10068,-0.276476 -0.910204,-0.552855 -1.820481,-1.105791 -2.730884,-1.658852 -0.700131,-0.414613 -1.400342,-0.829319 -2.100677,-1.24414 -0.490061,0.02315 -0.980211,0.04618 -1.47048,0.06911 -0.84018,0.23051 -1.680432,0.460899 -2.520812,0.691189 -0.490061,1.07e-4 -0.980209,1.07e-4 -1.470476,0 -0.350012,0.02315 -0.700117,0.04619 -1.050341,0.06911 0.04679,0.138349 0.09346,0.276584 0.140045,0.414714 1.09e-4,1.267312 1.09e-4,2.534463 0,3.801536 0.09346,1.08e-4 0.186839,1.08e-4 0.280091,0 0.677009,-0.09204 1.353881,-0.184213 2.030658,-0.276474 z" />
    <path
       style="fill:#88bad5;fill-opacity:1;stroke:none;stroke-width:0.113668px;stroke-linecap:butt;stroke-linejoin:miter;stroke-opacity:1"
       d="m -85.562109,-35.262534 c -0.180552,0.05759 -0.54174,0.172785 -0.799777,0.529953 -0.258037,0.357168 -0.412827,0.956186 -0.464411,1.635884 -0.05158,0.679698 1.3e-5,1.439989 0.07742,2.177266 0.0774,0.737278 0.180596,1.451491 0.219284,2.142678 0.03869,0.691186 0.01289,1.359319 -0.154806,1.923753 -0.167699,0.564433 -0.477279,1.025216 -0.696575,1.439953 -0.219296,0.414737 -0.348288,0.783364 -0.361164,1.232674 -0.01288,0.44931 0.09032,0.979214 0.348345,1.52065 0.258028,0.541437 0.670802,1.094378 1.290007,1.532098 0.619205,0.43772 1.44475,0.760265 2.360616,0.990644 0.915865,0.230379 1.922002,0.368614 2.953958,0.414682 1.031955,0.04607 2.089688,-10e-6 2.644294,-0.06911 0.554606,-0.06909 0.606211,-0.161266 0.670715,-0.956113 0.0645,-0.794848 0.1419,-2.292391 0.129066,-3.052734 -0.01283,-0.760342 -0.116022,-0.783377 -0.270838,-0.771882 -0.154816,0.0115 -0.361205,0.05757 -0.464445,-0.023 -0.103241,-0.08058 -0.103241,-0.287927 -0.04081,-0.686731 0.06243,-0.398803 0.187295,-0.989021 -0.07063,-1.277053 -0.257926,-0.288031 -0.898758,-0.273808 -1.232129,-0.335752 -0.333372,-0.06194 -0.359168,-0.200177 -0.501064,-0.995058 -0.141896,-0.794881 -0.399879,-2.246347 -0.567573,-3.190977 -0.167694,-0.944631 -0.245088,-1.382372 -0.399862,-1.831646 -0.154773,-0.449274 -0.386958,-0.910055 -0.696513,-1.232645 -0.309555,-0.322591 -0.696529,-0.506904 -1.341511,-0.679724 -0.644983,-0.172819 -1.547923,-0.334093 -1.999473,-0.414744 -0.451549,-0.08065 -0.451562,-0.08065 -0.632113,-0.02307 z"
       id="path2761"
       inkscape:path-effect="#path-effect2763"
       inkscape:original-d="m -85.381558,-35.32012 c -0.36106,0.115306 -0.722249,0.230502 -1.08355,0.345592 -0.154677,0.599151 -0.309467,1.198169 -0.46438,1.797091 0.05172,0.76043 0.103306,1.520722 0.154794,2.280921 0.103305,0.71435 0.20651,1.428561 0.309586,2.142681 -0.02568,0.668273 -0.05147,1.336406 -0.07739,2.004448 -0.309474,0.460908 -0.619052,0.921693 -0.928759,1.382377 -0.128878,0.368749 -0.257869,0.737376 -0.386984,1.105903 0.103305,0.530028 0.206513,1.059929 0.309586,1.589731 0.412912,0.55307 0.825686,1.106011 1.238346,1.658855 0.825703,0.322667 1.651247,0.645216 2.476692,0.96766 1.006294,0.138353 2.012432,0.276584 3.018467,0.414714 1.057893,-0.04598 2.115626,-0.09204 3.17326,-0.138235 0.05171,-0.09204 0.103316,-0.18421 0.154793,-0.276479 0.07752,-1.497497 0.154913,-2.995041 0.232191,-4.492724 -0.103085,-0.02294 -0.206272,-0.04598 -0.309588,-0.06911 -0.206275,0.04618 -0.412661,0.09227 -0.619172,0.138234 1.2e-4,-0.207252 1.2e-4,-0.414602 0,-0.622065 0.124978,-0.590118 0.249846,-1.180336 0.374605,-1.770646 -0.640734,0.01433 -1.281566,0.02854 -1.922537,0.04267 -0.02568,-0.138131 -0.05147,-0.276366 -0.07739,-0.414712 -0.257873,-1.451415 -0.515857,-2.90288 -0.773967,-4.354486 -0.07728,-0.437655 -0.154672,-0.875396 -0.232189,-1.313258 -0.232077,-0.460695 -0.464261,-0.921476 -0.696571,-1.382376 -0.386871,-0.184215 -0.773846,-0.368525 -1.160947,-0.552951 -0.902859,-0.161172 -1.805799,-0.322447 -2.708883,-0.483832 z"
       sodipodi:nodetypes="cccccccccccccccccccccccccc" />
    <ellipse
       style="fill:#67c553;fill-opacity:1;stroke:none;stroke-width:0;stroke-linecap:round;stroke-linejoin:round"
       id="path4359-2"
       cx="-72.988953"
       cy="-34.834023"
       rx="1.9874722"
       ry="2.0920763" />
    <path
       style="fill:#bf6044;fill-opacity:1;stroke:none;stroke-width:0.113261px;stroke-linecap:butt;stroke-linejoin:miter;stroke-opacity:1"
       d="m -80.18772,-32.328356 c -0.257668,-0.264435 -0.773116,-0.793419 -1.276286,-1.19018 -0.503169,-0.396761 -0.994064,-0.661247 -1.399068,-0.805548 -0.405004,-0.144301 -0.724088,-0.168347 -0.969612,-0.02406 -0.245525,0.144284 -0.417337,0.456859 -0.503235,0.853639 -0.0859,0.39678 -0.0859,0.877663 0.147337,1.406658 0.233234,0.528996 0.699582,1.106058 1.165955,1.59897 0.466373,0.492912 0.932723,0.901663 1.755007,1.370518 0.822284,0.468854 2.000426,0.997825 2.675416,1.27432 0.67499,0.276496 0.846803,0.300546 1.27629,-0.01205 0.429487,-0.312596 1.116738,-0.961788 1.668998,-1.598964 0.552261,-0.637177 0.969521,-1.262328 1.337719,-1.695155 0.368199,-0.432826 0.687278,-0.673268 1.055466,-0.901696 0.368187,-0.228428 0.785476,-0.444841 0.883682,-0.553027 0.09821,-0.108186 -0.122694,-0.108186 -0.135012,-0.180329 -0.01232,-0.07214 0.18404,-0.216408 0.233156,-0.372629 0.04912,-0.15622 -0.04906,-0.324524 -0.257698,-0.360668 -0.208639,-0.03614 -0.527719,0.06003 -0.47862,0.06003 0.0491,10e-7 0.46636,-0.09618 0.625893,-0.240371 0.159533,-0.144195 0.06136,-0.336544 -0.122735,-0.384713 -0.184092,-0.04817 -0.454086,0.04801 -0.466372,0.02397 -0.01228,-0.02405 0.233164,-0.168312 0.335012,-0.340266 0.101847,-0.171954 0.0601,-0.371743 -0.07488,-0.431921 -0.134982,-0.06018 -0.363227,0.01938 -0.612375,0.155341 -0.249148,0.135963 -0.519139,0.328316 -0.776886,0.616878 -0.257747,0.288562 -0.503193,0.673268 -0.625911,0.96185 -0.122717,0.288582 -0.122717,0.480935 -0.674985,0.985818 -0.552268,0.504884 -1.65678,1.322387 -2.258103,1.659084 -0.601324,0.336697 -0.699504,0.192432 -0.994042,-0.156227 -0.294538,-0.348658 -0.785431,-0.901676 -1.030937,-1.178251 -0.245505,-0.276575 -0.245505,-0.276584 -0.503173,-0.541018 z"
       id="path2897"
       inkscape:path-effect="#path-effect2899"
       inkscape:original-d="m -79.930052,-32.063922 c -0.515333,-0.528872 -1.030782,-1.057855 -1.546344,-1.586951 -0.4908,-0.264385 -0.981694,-0.528873 -1.472712,-0.793474 -0.31898,-0.02391 -0.638061,-0.04799 -0.957263,-0.07214 -0.171704,0.3127 -0.343518,0.625274 -0.515447,0.937744 1.14e-4,0.481016 1.14e-4,0.961899 0,1.44268 0.466481,0.577199 0.932829,1.154261 1.399074,1.731223 0.466483,0.408879 0.932832,0.817631 1.399075,1.226277 1.178307,0.52911 2.35645,1.058078 3.534508,1.58695 0.171932,0.02416 0.343745,0.04821 0.515448,0.07215 0.687394,-0.649107 1.374646,-1.298298 2.061795,-1.947617 0.417392,-0.625064 0.834651,-1.250216 1.251805,-1.87549 0.319208,-0.24034 0.638288,-0.480781 0.957262,-0.721342 0.417366,-0.216304 0.834655,-0.432716 1.251804,-0.649207 -0.220798,1.12e-4 -0.441698,1.12e-4 -0.662721,0 0.19648,-0.144158 0.392839,-0.288423 0.589086,-0.432804 -0.09808,-0.168205 -0.196247,-0.336514 -0.294545,-0.504939 -0.318977,0.09629 -0.638056,0.19247 -0.95726,0.288537 0.41739,-0.09607 0.834652,-0.192246 1.251805,-0.288537 -0.09808,-0.192249 -0.196247,-0.384603 -0.294545,-0.577074 -0.269885,0.09629 -0.539878,0.192471 -0.809986,0.288538 0.245567,-0.144158 0.491016,-0.288426 0.736353,-0.432805 -0.04163,-0.19968 -0.0834,-0.399464 -0.125235,-0.599343 -0.228152,0.07966 -0.456398,0.159212 -0.684756,0.238673 -0.269889,0.192474 -0.53988,0.384827 -0.809992,0.577073 -0.245341,0.384834 -0.490787,0.76954 -0.736354,1.154145 1.13e-4,0.192475 1.13e-4,0.384828 0,0.577074 -1.104441,0.817649 -2.208953,1.635152 -3.313601,2.452557 -0.09807,-0.144155 -0.196246,-0.288423 -0.294543,-0.432801 -0.490798,-0.552928 -0.981691,-1.105946 -1.472711,-1.659088 z"
       sodipodi:nodetypes="cccccccccccccccccccccccccccccc" />
    <ellipse
       style="fill:#d4573f;fill-opacity:1;stroke:none;stroke-width:0;stroke-linecap:round;stroke-linejoin:round"
       id="path4359"
       cx="-49.87151"
       cy="-21.444736"
       rx="1.9874722"
       ry="2.0920763" />
  </g>
</svg>
