<?xml version="1.0" encoding="UTF-8" standalone="no"?>
<!-- Generator: Adobe Illustrator 25.1.0, SVG Export Plug-In . SVG Version: 6.00 Build 0)  -->

<svg
   version="1.1"
   x="0px"
   y="0px"
   viewBox="0 0 300 150"
   xml:space="preserve"
   id="svg18"
   sodipodi:docname="cusiniere.svg"
   inkscape:version="1.1 (c68e22c387, 2021-05-23)"
   width="300"
   height="150"
   xmlns:inkscape="http://www.inkscape.org/namespaces/inkscape"
   xmlns:sodipodi="http://sodipodi.sourceforge.net/DTD/sodipodi-0.dtd"
   xmlns:xlink="http://www.w3.org/1999/xlink"
   xmlns="http://www.w3.org/2000/svg"
   xmlns:svg="http://www.w3.org/2000/svg"><defs
   id="defs22"><inkscape:path-effect
   effect="spiro"
   id="path-effect1794"
   is_visible="true"
   lpeversion="1" /><inkscape:path-effect
   effect="spiro"
   id="path-effect1757"
   is_visible="true"
   lpeversion="1" /><inkscape:path-effect
   effect="bspline"
   id="path-effect1560"
   is_visible="true"
   lpeversion="1"
   weight="33.333333"
   steps="2"
   helper_size="0"
   apply_no_weight="true"
   apply_with_weight="true"
   only_selected="false" /><inkscape:path-effect
   effect="bspline"
   id="path-effect1523"
   is_visible="true"
   lpeversion="1"
   weight="33.333333"
   steps="2"
   helper_size="0"
   apply_no_weight="true"
   apply_with_weight="true"
   only_selected="false" /><inkscape:path-effect
   effect="spiro"
   id="path-effect1486"
   is_visible="true"
   lpeversion="1" /><inkscape:path-effect
   effect="spiro"
   id="path-effect1011"
   is_visible="true"
   lpeversion="1" /><inkscape:path-effect
   effect="spiro"
   id="path-effect1171"
   is_visible="true"
   lpeversion="1" /><inkscape:path-effect
   effect="spiro"
   id="path-effect1167"
   is_visible="true"
   lpeversion="1" /><inkscape:path-effect
   effect="spiro"
   id="path-effect1163"
   is_visible="true"
   lpeversion="1" /><inkscape:path-effect
   effect="spiro"
   id="path-effect1159"
   is_visible="true"
   lpeversion="1" /><linearGradient
   inkscape:collect="always"
   id="linearGradient4574"><stop
     style="stop-color:#878787;stop-opacity:1;"
     offset="0"
     id="stop4570" /><stop
     style="stop-color:#878787;stop-opacity:0;"
     offset="1"
     id="stop4572" /></linearGradient>
	
	
	
	
	
<linearGradient
   inkscape:collect="always"
   xlink:href="#linearGradient4574"
   id="linearGradient4576"
   x1="217.93346"
   y1="71.74012"
   x2="218.57504"
   y2="81.09687"
   gradientUnits="userSpaceOnUse" /></defs><sodipodi:namedview
   id="namedview20"
   pagecolor="#505050"
   bordercolor="#eeeeee"
   borderopacity="1"
   inkscape:pageshadow="0"
   inkscape:pageopacity="0"
   inkscape:pagecheckerboard="0"
   showgrid="false"
   inkscape:zoom="1.897039"
   inkscape:cx="157.35048"
   inkscape:cy="75.117063"
   inkscape:window-width="1366"
   inkscape:window-height="705"
   inkscape:window-x="-8"
   inkscape:window-y="-8"
   inkscape:window-maximized="1"
   inkscape:current-layer="svg18"
   showborder="true"
   inkscape:showpageshadow="false" />
<style
   type="text/css"
   id="style2">
	.st0{fill:#3C3C3B;}
	.st1{fill:#A48A7B;}
	.st2{fill:#9D9D9C;}
	.st3{fill:#FFFFFF;}
	.st4{fill:#878787;}
	.st5{display:none;}
</style>
<rect
   style="fill:#c0f2a1;stroke:#008000;stroke-width:0;stroke-linecap:round;stroke-linejoin:round;stroke-opacity:0.967078;fill-opacity:1"
   id="rect880"
   width="307.92221"
   height="158.21419"
   x="-5.9542971"
   y="-4.2530694"
   ry="1.64384" /><path
   style="fill:#dcdea1;stroke:none;stroke-width:1px;stroke-linecap:butt;stroke-linejoin:miter;stroke-opacity:1;fill-opacity:1"
   d="M -5.9542971,-4.2530694 V 153.96112 H 301.96793 l -0.4454,-25.86676 c -8.94952,2.26259 -18.46162,2.26259 -27.41114,0 -11.86052,-2.99854 -22.45409,-9.82957 -31.62824,-17.92267 C 236.42353,104.82611 230.87372,98.884265 224.424,94.016463 217.97429,89.148662 210.37711,85.333521 202.3,85.1 c -5.24399,-0.151611 -10.45092,1.219858 -15.23721,3.36784 -4.78629,2.147981 -9.19026,5.05744 -13.45794,8.108551 -8.53537,6.102219 -16.9282,12.979469 -27.06069,15.703849 -7.27877,1.95708 -15.11225,1.59854 -22.2965,-0.68118 C 117.06341,109.31934 110.52832,105.1594 105.1641,99.864515 94.435659,89.274748 88.607776,74.485922 86.450514,59.566513 85.705134,54.411539 85.36208,49.199344 84.440585,44.072923 83.519089,38.946501 81.980339,33.839726 79.070593,29.519688 75.900828,24.813604 71.13992,21.205223 65.760797,19.399768 c -5.379124,-1.805454 -11.34383,-1.801899 -16.729399,-0.01576 -5.385568,1.786138 -10.1641,5.340885 -13.445436,9.969866 -3.281337,4.628982 -5.052266,10.306044 -5.012,15.979933 0.0012,0.175716 0.0042,0.351467 0,0.527138 -0.05124,2.154946 -1.223113,4.22243 -2.962464,5.495643 -1.739352,1.273214 -3.99531,1.768305 -6.133027,1.491573 -2.137718,-0.276731 -4.149265,-1.294464 -5.748556,-2.739692 -1.59929,-1.445229 -2.797469,-3.303528 -3.605757,-5.301799 -1.860871,-4.600498 -1.6589,-9.754926 -1.135436,-14.689844 C 11.512186,25.181907 12.32751,20.195526 11.59702,15.286981 10.914498,10.700761 8.8570878,6.3280995 5.7586687,2.8785997 2.6602497,-0.57090012 -1.4673504,-3.0840704 -5.9542971,-4.2530694 Z"
   id="path1792"
   inkscape:path-effect="#path-effect1794"
   inkscape:original-d="M -5.9542971,-4.2530694 V 153.96112 H 301.96793 l -0.4454,-25.86676 c 0,0 -18.2731,0.001 -27.41114,0 -9.13805,-0.001 -21.08449,-11.94745 -31.62824,-17.92267 C 231.9394,104.19647 215.69538,93.458231 202.3,85.1 188.90462,76.741769 165.13044,103.22116 146.54416,112.28024 127.95789,121.33932 106.48273,77.138756 86.450514,59.566513 66.418298,41.99427 81.531566,39.536296 79.070593,29.519688 76.609619,19.503079 46.740506,40.063434 30.573962,45.333806 c -16.166543,5.270373 10e-4,0.352425 0,0.527138 -0.001,0.174712 -12.29887,-0.70185 -18.449804,-1.054275 C 5.9732225,44.454244 11.773733,25.127877 11.59702,15.286981 11.420308,5.4460853 -0.10285797,2.2612808 -5.9542971,-4.2530694 Z" /><path
   class="st2"
   d="m 114.1,138.9 c -1.56378,-1.33506 -1.8,-5.9 -1.8,-5.9 l 87.8,-43.9 c 0.6,-0.8 1.51353,-2.641944 2.2,-4 2.16943,-5.980888 5.16591,-10.760187 10.3,-14 3.86325,-2.402947 6.6,-4.2 12.7,-5 5.3,-0.7 13.5,-0.2 17.3,6.8 2.6,4.9 0.3,8.679817 0,9.479817 -3.3,7.6 -12.4,11.520183 -16.9,12.520183 -8.9,2.1 -16.4,2 -20.4,0.5 l -88.7,44"
   id="path8"
   sodipodi:nodetypes="ccccccccccc" /><path
   class="st0"
   d="M 116.2,86.2 V 57 c -1.6,-0.1 -3.9,-0.5 -6.5,-1.4 C 103.4,53.3 93.5,47 93.2,38 c -0.3,-8.8 8.6,-14.9 10.4,-16.2 14.4,-10 33.1,-2 35.3,-1.1 0.9,-1 2.3,-2.4 4,-3.9 2.2,-2 5.9,-5.3 10.1,-7.3 8.5,-4 17.3,-1.8 21.6,-0.7 4,1 7.1,1.8 10.1,4.3 6.8,5.7 6.9,15.1 6.8,17.3 1.1,0 2.8,0.1 4.7,0.7 4.1,1.3 8.4,4.8 10.1,10.1 0.2,0.8 1.8,6.2 -1.1,11.5 -3.6,6.5 -11.3,7.7 -14.8,8.3 -3.4,0.5 -6.4,0.3 -8.3,0 v 25.2 c -0.4,1 -1.2,2.2 -2.5,3.2 -2.2,1.6 -4.4,2.3 -8.3,2.8 -3.3,0.4 -3.7,0.8 -7.2,1.4 -1.6,0.3 -5.2,-0.1 -16.6,-0.3 -9.2,-0.1 -13.8,-0.2 -18.4,-1.1 -4.6,-0.9 -7.71748,-1.056214 -10.8,-3.2 -0.95781,-0.666121 -2.1,-2.8 -2.1,-2.8 z"
   id="path4"
   sodipodi:nodetypes="cccccccccccccccccccccsac" /><path
   class="st1"
   d="m 181.4,139.5 -58,-30.2 -9.4,9.4 c 0,0 -28.579052,-14.31022 -40.7,-24.5 C 67.692963,89.486305 62.368351,84.052001 58.9,77.6 57.195964,74.430066 56,67.2 56,67.2 c 0,0 24.7,9.6 32.8,13.3 9.7,4.5 38.2,19.4 38.2,19.4 l 32,15.1 29.5,14.4 c 0,0 -1.1,3.9 -1.8,5 -0.9,1.6 -5.3,5.1 -5.3,5.1 v 0 0"
   id="path6"
   sodipodi:nodetypes="cccaaccccccccc"
   style="fill:#9d9d9c;fill-opacity:1" /><path
   class="st3"
   d="M 122.4,83.4 V 59.3 c 0.8,-0.7 2,-1.7 3.6,-2.5 3.1,-1.6 5.9,-1.7 7.9,-1.8 14.7,-0.7 13.5,-0.9 15.8,-0.7 3.8,0.2 8.7,0.8 14.4,2.2 -0.7,-1.2 -2.36973,-3.216284 -4,-4.3 -2.3361,-1.552912 -5.13814,-2.409091 -7.9,-2.9 -5.90741,-1.050015 -12.04495,-0.7331 -18,0 -4.91066,0.604529 -14.4,3.6 -14.4,3.6 -1.1,-0.3 -2.8,-0.7 -4.7,-1.4 -5.7,-2.1 -9.2,-3.3 -11.5,-6.5 -2,-2.7 -3.2,-6.8 -2.2,-10.8 1.2,-4.7 5.1,-7.1 7.6,-8.6 5.3,-3.3 10.5,-3.3 13.3,-3.2 5.9,0.1 10.3,2 12.2,2.9 4.2,1.9 7.2,4.4 9,6.1 l 5.3,-3.2 -1.7,-2.6 -2.2,-3.2 c 0.8,-0.5 1.9,-1.3 3.2,-2.2 5.6,-3.5 8.6,-5.4 12.6,-6.1 6.3,-1.2 11.5,1.1 14,2.2 2.6,1.1 5,2.2 6.8,4.7 2.5,3.3 2.6,7.1 2.5,8.6 l -9,3.6 0.7,2.2 c 5.5,-0.9 9.9,-0.3 12.6,0.4 4.5,1 6,2.4 6.5,2.9 3.3,3.3 2.9,8 2.9,8.3 -0.7,6.1 -7,9.1 -8.3,9.7 -6.5,3 -12.8,0.5 -14,0 l 0.4,27 c -1,-0.5 -2.6,-1.2 -4.7,-1.8 -3.9,-1.1 -7.1,-1.1 -8.6,-1.1 -13.1,0.1 -14.7,-1.4 -24.8,-0.4 -2.7,0.3 -6.5,0.8 -11.2,1.8 z"
   id="path10"
   sodipodi:nodetypes="ccccccaaacscccccccccccccccccscsccccccc" /><path
   class="st4"
   d="m 212.7,90.9 c -2.5,-0.8 -3.6,-12.2 2.5,-18.4 3.5,-3.6 8.4,-4.2 9.6,-4.4 1.8,-0.3 4.8,-0.6 8,0.8 3.8,1.7 7.3,5.7 6.5,7.6 -1,2.2 -6.5,-0.8 -13,1.4 -9.1,3.3 -11.1,13.8 -13.6,13 z"
   id="path12"
   style="fill-opacity:1;fill:url(#linearGradient4576)" />
<g
   id="Calque_2"
   class="st5">
	
		<image
   style="display:inline;overflow:visible"
   width="1300"
   height="1235"
   xlink:href="../../Downloads/81569071-chapeau-de-chef-avec-couverts-crois%C3%A9s%20(1).jpg"
   transform="matrix(0.1451,0,0,0.107,56.12,7.4)"
   id="image15">
	</image>
</g>
<path
   style="fill:#877265;fill-opacity:1;stroke:#000000;stroke-width:0.240498;stroke-linecap:butt;stroke-linejoin:miter;stroke-miterlimit:4;stroke-dasharray:none;stroke-opacity:1"
   d="M 128.50413,100.66594 123.4,109.3 l 58.24476,30.79863 5.05868,-5.36515 L 188.5,129.4 Z"
   id="path1876"
   sodipodi:nodetypes="cccccc" /><ellipse
   style="fill:#4d4d4d;stroke-width:0.388048;stroke-linecap:round;stroke-linejoin:round"
   id="path1900"
   cx="174.8721"
   cy="129.97252"
   rx="2.1056557"
   ry="2.0146372" /><circle
   style="fill:#4d4d4d;stroke-width:0.4399;stroke-linecap:round;stroke-linejoin:round"
   id="path1902"
   cx="158.53677"
   cy="121.22451"
   r="2.2651455" /><ellipse
   style="fill:#4d4d4d;stroke-width:0.493367;stroke-linecap:round;stroke-linejoin:round"
   id="path1904"
   cx="140.06392"
   cy="112.31451"
   rx="2.5233083"
   ry="2.4777992" /></svg>
