<?xml version="1.0" encoding="UTF-8" standalone="no"?>
<!-- Created with Inkscape (http://www.inkscape.org/) -->

<svg
   width="300"
   height="150"
   viewBox="0 0 79.374998 39.687502"
   version="1.1"
   id="svg1744"
   inkscape:version="1.1 (c68e22c387, 2021-05-23)"
   sodipodi:docname="faire_des_cours.svg"
   xmlns:inkscape="http://www.inkscape.org/namespaces/inkscape"
   xmlns:sodipodi="http://sodipodi.sourceforge.net/DTD/sodipodi-0.dtd"
   xmlns="http://www.w3.org/2000/svg"
   xmlns:svg="http://www.w3.org/2000/svg">
  <sodipodi:namedview
     id="namedview1746"
     pagecolor="#505050"
     bordercolor="#eeeeee"
     borderopacity="1"
     inkscape:pageshadow="0"
     inkscape:pageopacity="0"
     inkscape:pagecheckerboard="0"
     inkscape:document-units="mm"
     showgrid="false"
     units="px"
     inkscape:zoom="1.6612489"
     inkscape:cx="189.3154"
     inkscape:cy="59.292741"
     inkscape:window-width="1366"
     inkscape:window-height="705"
     inkscape:window-x="-8"
     inkscape:window-y="-8"
     inkscape:window-maximized="1"
     inkscape:current-layer="layer1" />
  <defs
     id="defs1741">
    <inkscape:path-effect
       effect="spiro"
       id="path-effect5377"
       is_visible="true"
       lpeversion="1" />
    <inkscape:path-effect
       effect="spiro"
       id="path-effect1099"
       is_visible="true"
       lpeversion="1" />
    <inkscape:path-effect
       effect="spiro"
       id="path-effect1095"
       is_visible="true"
       lpeversion="1" />
    <inkscape:path-effect
       effect="spiro"
       id="path-effect893"
       is_visible="true"
       lpeversion="1" />
    <inkscape:path-effect
       effect="bspline"
       id="path-effect4570"
       is_visible="true"
       lpeversion="1"
       weight="33.333333"
       steps="2"
       helper_size="0"
       apply_no_weight="true"
       apply_with_weight="true"
       only_selected="false" />
    <inkscape:path-effect
       effect="bspline"
       id="path-effect4453"
       is_visible="true"
       lpeversion="1"
       weight="33.333333"
       steps="2"
       helper_size="0"
       apply_no_weight="true"
       apply_with_weight="true"
       only_selected="false" />
  </defs>
  <g
     inkscape:label="Calque 1"
     inkscape:groupmode="layer"
     id="layer1">
    <rect
       style="fill:#b7e3dd;fill-opacity:0.6463415;stroke:#96ec96;stroke-width:0;stroke-linecap:round;stroke-linejoin:round;stroke-opacity:1"
       id="rect7271"
       width="83.137756"
       height="44.117157"
       x="-1.9112127"
       y="-2.7075505"
       ry="0.43493265" />
    <rect
       style="fill:#b1f3ea;fill-opacity:0.6463415;stroke:#96ec96;stroke-width:0;stroke-linecap:round;stroke-linejoin:round;stroke-opacity:1"
       id="rect5001"
       width="83.137756"
       height="44.117157"
       x="-1.9112127"
       y="-2.7075505"
       ry="0.43493265" />
    <path
       d="m 38.219253,2.399714 c -0.691661,0 -0.369396,0.142111 -0.534501,0.519361 -0.04122,0.124311 -0.02064,0.253024 0.05514,0.371554 0.07737,0.118983 0.210664,0.223721 0.384835,0.303179 0.352429,0.156193 0.76862,0.260123 1.210396,0.301853 0.786006,0.09763 1.76065,0.328483 1.768465,-0.443908 0.0099,-0.608142 -2.027818,-1.025403 -2.884539,-1.052039 z"
       fill="#533a71"
       id="path161-3"
       style="fill:#1a1a1a;stroke-width:0.590677" />
    <path
       d="M 44.984438,8.046139 C 43.437483,6.414568 41.508443,4.850265 39.225064,3.376295 l 1.151893,-0.29787 c 2.320759,1.504717 4.280703,3.101208 5.851498,4.765928 z"
       fill="#533a71"
       id="path163-6"
       style="fill:#1a1a1a;stroke-width:0.743915" />
    <path
       d="M 35.821991,9.923853 21.792103,10.136917 V 11.67725 L 35.821991,11.464174 Z"
       fill="#5ecccd"
       id="path165-6"
       style="fill:#28170b;stroke-width:0.590677" />
    <path
       d="m 37.739784,13.967781 c -0.785985,-2.352672 -1.972823,-2.596816 -1.972823,-2.596816 l -13.967005,0.310734 c 1.115941,0.562408 2.003505,1.254463 2.60164,2.028609 0.395579,0.970816 0.580355,1.965153 0.550163,2.960826 l 13.165293,0.443914 c 0,0 0.408733,-0.803481 -0.377268,-3.147267 z"
       fill="#ffffff"
       id="path167-9"
       style="stroke-width:0.590677" />
    <path
       d="m 21.792103,11.67725 -0.550187,1.753408 c -0.325714,1.044493 -0.135485,2.119637 0.550187,3.107308 l 3.143945,0.11084 C 24.966398,15.65313 24.781722,14.6588 24.385865,13.68799 23.786067,12.920486 22.901599,12.234668 21.792103,11.677119 Z"
       fill="#e6f0fc"
       id="path169-4"
       style="stroke-width:0.590677" />
    <path
       d="M 51.824715,5.373865 H 41.040933 c -0.998453,0 -1.80778,0.457208 -1.80778,1.020966 v 14.173753 c 0,0.563747 0.809327,1.020991 1.80778,1.020991 h 10.783782 c 0.998328,0 1.807734,-0.457244 1.807734,-1.020991 V 6.394831 c 0,-0.563758 -0.809406,-1.020966 -1.807734,-1.020966 z"
       fill="#e57930"
       id="path171-3"
       style="stroke-width:0.590677" />
    <path
       d="m 50.066227,7.356327 -9.266746,-0.02353 c -0.447049,-0.0011 -0.811212,0.202408 -0.813253,0.454999 l -0.006,0.661398 c -0.0022,0.252603 0.358786,0.458126 0.805863,0.459003 l 9.266714,0.02403 c 0.447086,0.0011 0.811223,-0.202429 0.813183,-0.455009 l 0.006,-0.66141 c 0.0022,-0.25258 -0.358805,-0.458114 -0.805864,-0.45943 z"
       fill="#ffffff"
       opacity="0.59"
       id="path173-6"
       style="stroke-width:0.590677" />
    <path
       d="m 51.06228,9.653061 h -9.266804 c -0.447134,0 -0.80957,0.204635 -0.80957,0.45722 v 0.661415 c 0,0.252575 0.362436,0.457215 0.80957,0.457215 h 9.266804 c 0.447072,0 0.809565,-0.20464 0.809565,-0.457215 v -0.661415 c 0,-0.252585 -0.362493,-0.45722 -0.809565,-0.45722 z"
       fill="#ffffff"
       opacity="0.38"
       id="path175-3"
       style="stroke-width:0.590677" />
    <path
       d="m 51.06228,12.010176 h -9.266804 c -0.447134,0 -0.80957,0.204629 -0.80957,0.457214 v 0.66141 c 0,0.252569 0.362436,0.457219 0.80957,0.457219 h 9.266804 c 0.447072,0 0.809565,-0.20465 0.809565,-0.457219 v -0.66141 c 0,-0.252585 -0.362493,-0.457214 -0.809565,-0.457214 z"
       fill="#ffffff"
       opacity="0.19"
       id="path177-3"
       style="stroke-width:0.590677" />
    <path
       d="m 43.336038,15.339424 c -3.654861,5.060476 -5.234697,9.481745 -1.061097,10.445015 4.401543,1.016521 8.527956,-2.818796 12.182812,-7.879266 3.654833,-5.060465 5.501914,-9.428462 1.061093,-10.444985 -4.165723,-0.958819 -8.5201,2.818761 -12.182808,7.879236 z"
       fill="#c37134"
       id="path179-6"
       style="stroke-width:0.590677" />
    <path
       d="m 47.014457,13.621519 c 0.392985,0.803481 1.626995,1.775631 3.018203,2.033086 0.701321,0.131044 1.448008,0.164254 2.177096,0.09808 0.729175,-0.06662 1.41927,-0.231277 2.012198,-0.479857 -2.579439,-0.16913 -5.026791,-0.735547 -7.073877,-1.638003"
       fill="#f59052"
       id="path181-8"
       style="stroke-width:0.590677" />
    <path
       d="m 44.766526,16.879779 c 0.408715,0.799013 1.67416,1.753409 3.073212,2.006414 0.704633,0.123809 1.451494,0.149991 2.177828,0.07638 0.726316,-0.07338 1.410775,-0.244149 1.995772,-0.498051 -2.590312,-0.144291 -5.059798,-0.689829 -7.136777,-1.575843"
       fill="#f59052"
       id="path183-1"
       style="stroke-width:0.590677" />
    <path
       d="m 42.667927,20.182403 c 0.180114,0.377314 0.503054,0.727983 0.946891,1.027631 0.443784,0.29962 0.99774,0.541553 1.6233,0.708017 0.59728,0.111344 1.233123,0.139756 1.854042,0.08338 0.620964,-0.05634 1.208857,-0.196209 1.714329,-0.407515 -2.200362,-0.143429 -4.288594,-0.625448 -6.036366,-1.393846"
       fill="#f59052"
       id="path185-6"
       style="stroke-width:0.590677" />
    <path
       d="m 49.584658,10.705101 c 0.180114,0.377329 0.503073,0.728005 0.946855,1.027637 0.443763,0.299631 0.997713,0.541115 1.623279,0.70801 0.597274,0.111346 1.233158,0.13976 1.854077,0.08338 0.62094,-0.05645 1.208857,-0.196197 1.714334,-0.407484 -2.200366,-0.14345 -4.288595,-0.625466 -6.036385,-1.393842"
       fill="#f59052"
       id="path187-5"
       style="stroke-width:0.590677" />
    <path
       d="M 27.569108,12.343091 C 27.247103,11.111282 26.281518,9.961129 24.795907,9.040914 23.31031,8.120265 21.372284,7.47129 19.22978,7.17609 c 1.865605,2.217288 4.680461,4.136266 8.190001,5.584274"
       fill="#6ea652"
       id="path189-8"
       style="stroke-width:0.590677" />
    <path
       d="m 28.976033,12.609439 c 0.749683,-1.371198 0.829148,-2.83164 0.229924,-4.226381 -0.599062,-1.394723 -1.854415,-2.672297 -3.633395,-3.697251 -0.109497,2.600826 0.598134,5.191871 2.090769,7.652852"
       fill="#6ea652"
       id="path191-8"
       style="stroke-width:0.590677" />
    <path
       d="m 28.952444,12.032369 c 1.015909,-0.533129 1.736317,-1.220742 2.073909,-1.980242 0.3376,-0.759505 0.278049,-1.558099 -0.171583,-2.298978 -2.234802,1.280667 -3.586599,2.969718 -3.812023,4.763064"
       fill="#83ba63"
       id="path193-0"
       style="stroke-width:0.590677" />
    <path
       d="M 28.307941,12.71596 C 28.435885,11.689224 28.12485,10.65982 27.401313,9.715203 26.677733,8.770595 25.562645,7.937829 24.150068,7.287072 c -0.271225,1.84795 0.72161,3.684377 2.774552,5.131484"
       fill="#83ba63"
       id="path195-6"
       style="stroke-width:0.590677" />
    <path
       d="m 27.718459,12.280939 c 0.636651,-0.652506 2.475832,-0.581496 3.395475,-0.04877 0.919599,0.532678 1.147537,1.331705 1.320454,2.05971 0.785979,3.32925 1.09252,6.680685 1.43051,10.032164 -0.597356,0.124313 -1.123992,-0.253029 -1.399092,-0.577077 -2.758422,-3.155677 -5.025439,-6.440996 -6.775196,-9.819082 -0.219175,-0.317831 -0.276283,-0.663649 -0.16524,-0.998797 0.03333,-0.08197 0.09502,-0.159383 0.181504,-0.227716 0.08649,-0.06882 0.195986,-0.126976 0.322324,-0.171345 0.126358,-0.04455 0.26706,-0.07464 0.41381,-0.08816 0.146793,-0.0135 0.297191,-0.01145 0.442197,0.0087"
       fill="#ff9b4b"
       id="path197-0"
       style="fill:#ff6600;stroke-width:0.590677" />
    <path
       style="fill:none;fill-opacity:1;stroke:#000000;stroke-width:0.166397;stroke-linecap:butt;stroke-linejoin:miter;stroke-miterlimit:4;stroke-dasharray:none;stroke-opacity:1"
       d="m 35.821991,12.671384 c 0,-0.50663 0,-1.013324 0.07951,-1.520036 0.07951,-0.506712 0.23853,-1.013395 0.655994,-1.4421656 0.417465,-0.4287707 1.09331,-0.7795545 1.769135,-1.1303274"
       id="path4568"
       inkscape:path-effect="#path-effect4570"
       inkscape:original-d="m 35.821991,12.671384 c 6.3e-5,-0.50663 6.3e-5,-1.013324 0,-1.520084 0.159094,-0.506639 0.318117,-1.013322 0.477076,-1.520081 0.675931,-0.35073 1.351778,-0.701511 2.027561,-1.052364" />
    <g
       fill="#e0853d"
       id="g213"
       transform="matrix(0.78598779,0,0,0.4439011,-20.729833,-116.53914)">
      <path
         d="m 61.51,292.27 -2.27,0.62 c -0.1817,0.05 -0.3359,0.171 -0.4287,0.335 -0.0929,0.164 -0.1167,0.358 -0.0663,0.54 0.0504,0.182 0.1709,0.336 0.335,0.429 0.1641,0.093 0.3583,0.116 0.54,0.066 l 2.27,-0.62 c 0.1817,-0.05 0.3359,-0.171 0.4287,-0.335 0.0928,-0.164 0.1167,-0.358 0.0663,-0.54 -0.0504,-0.182 -0.1709,-0.336 -0.335,-0.429 -0.1641,-0.093 -0.3583,-0.116 -0.54,-0.066 z"
         id="path199-9" />
      <path
         d="m 66.91,294.28 -2.09,0.61 c -0.1817,0.05 -0.3359,0.171 -0.4287,0.335 -0.0928,0.164 -0.1167,0.358 -0.0663,0.54 0.0504,0.182 0.1709,0.336 0.335,0.429 0.1641,0.093 0.3583,0.116 0.54,0.066 l 2.09,-0.61 c 0.1817,-0.05 0.3359,-0.171 0.4287,-0.335 0.0928,-0.164 0.1167,-0.358 0.0663,-0.54 -0.0504,-0.182 -0.1709,-0.336 -0.335,-0.429 -0.1641,-0.093 -0.3583,-0.116 -0.54,-0.066 z"
         id="path201-4" />
      <path
         d="m 62.61,298.33 c -0.5401,0.133 -1.0712,0.3 -1.59,0.5 -0.84,0.33 -0.48,1.7 0.38,1.37 0.5188,-0.2 1.0499,-0.367 1.59,-0.5 0.89,-0.22 0.51,-1.59 -0.38,-1.37 z"
         id="path203-1" />
      <path
         d="m 67.79,300.59 -1.58,0.52 c -0.86,0.29 -0.49,1.66 0.38,1.37 l 1.58,-0.52 c 0.86,-0.28 0.49,-1.66 -0.38,-1.37 z"
         id="path205-5" />
      <path
         d="m 64.58,305.2 -1.1,0.19 c -0.9,0.16 -0.52,1.53 0.38,1.37 l 1.1,-0.19 c 0.9,-0.16 0.52,-1.53 -0.38,-1.37 z"
         id="path207-5" />
      <path
         d="m 68.35,307.19 c -0.3216,0.127 -0.6574,0.214 -1,0.26 -0.1867,0.005 -0.3644,0.082 -0.4965,0.214 -0.132,0.132 -0.2085,0.309 -0.2135,0.496 0,0.188 0.0748,0.369 0.208,0.502 0.1331,0.133 0.3137,0.208 0.502,0.208 0.4608,-0.049 0.914,-0.153 1.35,-0.31 0.85,-0.32 0.48,-1.69 -0.38,-1.37 z"
         id="path209-1" />
      <path
         d="m 63.14,288.51 c -0.9362,0.636 -2.0383,0.984 -3.17,1 -0.0978,0.002 -0.1943,0.023 -0.284,0.063 -0.0896,0.039 -0.1706,0.095 -0.2384,0.166 -0.1369,0.142 -0.2116,0.333 -0.2076,0.531 0.004,0.198 0.0863,0.386 0.2288,0.522 0.1425,0.137 0.3336,0.212 0.5312,0.208 1.3894,-0.028 2.7409,-0.458 3.89,-1.24 0.75,-0.51 0,-1.74 -0.72,-1.23 z"
         id="path211-4" />
    </g>
    <path
       style="fill:#6b8000;fill-opacity:1;stroke:none;stroke-width:0.0650088px;stroke-linecap:butt;stroke-linejoin:miter;stroke-opacity:1"
       d="m 35.272268,18.065039 c -0.403163,-0.256725 -1.209569,-0.770226 -1.756378,-1.640104 -0.546809,-0.869878 -0.833955,-2.096111 -0.962348,-3.313526 -0.128392,-1.217416 -0.09801,-2.425921 0.19958,-3.092541 0.297586,-0.6666201 0.862301,-0.7912451 1.418006,-0.7601989 0.555706,0.031046 1.102341,0.2177223 1.402889,0.5273327 0.300548,0.3096102 0.355064,0.7420772 0.632908,0.7575482 0.277844,0.01547 0.779003,-0.385976 1.353924,-0.6857201 0.574922,-0.2997439 1.223545,-0.4977631 1.722585,-0.1770485 0.49904,0.3207146 0.848482,1.1600426 0.806137,2.2312626 -0.04234,1.071219 -0.476418,2.374306 -0.996171,3.438391 -0.519754,1.064085 -1.125155,1.889134 -1.709071,2.344516 -0.583917,0.455382 -1.146378,0.541093 -1.427635,0.583953 -0.281257,0.04286 -0.281263,0.04286 -0.684426,-0.213865 z"
       id="path4451"
       inkscape:path-effect="#path-effect4453"
       inkscape:original-d="m 35.675431,18.321764 c -0.806342,-0.513426 -1.612746,-1.02693 -2.41921,-1.540498 -0.2871,-1.226218 -0.574235,-2.452454 -0.861457,-3.678782 0.03049,-1.208488 0.06083,-2.416995 0.09116,-3.625596 0.564801,-0.124561 1.129516,-0.249186 1.694177,-0.373882 0.546718,0.186752 1.093354,0.373427 1.639935,0.560038 0.05461,0.432558 0.109099,0.865028 0.163553,1.29744 0.501237,-0.401393 1.002395,-0.80284 1.503504,-1.204362 0.648702,-0.197957 1.297325,-0.395976 1.945893,-0.594065 0.349517,0.839427 0.698962,1.678754 1.048344,2.518028 -0.434023,1.303205 -0.868101,2.60629 -1.302244,3.909334 -0.605369,0.825153 -1.210768,1.650203 -1.816249,2.475208 -0.562414,0.08578 -1.124874,0.171495 -1.6874,0.257137 z" />
    <path
       d="M 56.320513,36.251616 H 17.382706 l 1.265467,-20.463848 h 37.67234 z"
       fill="#f7bf74"
       id="path215-7"
       style="stroke-width:0.590677" />
    <path
       d="m 57.578135,36.251616 h -9.258932 l 1.265455,-20.463848 h 6.735855 z"
       fill="#a3785a"
       id="path217-3"
       style="stroke-width:0.590677" />
    <path
       d="M 26.92462,16.795434 26.067881,16.631199 C 28.280505,12.758141 31.02941,8.989864 34.289297,5.360541 34.736615,4.796782 35.332955,4.274312 36.057785,3.811316 36.915451,3.305267 38.046037,2.974563 39.272467,2.870257 l -0.0474,0.506038 c -0.983438,0.103507 -1.884881,0.378217 -2.578072,0.785703 -0.646132,0.430134 -1.17591,0.911779 -1.571943,1.429363 -3.232711,3.60848 -5.95801,7.354565 -8.150679,11.204073 z"
       fill="#533a71"
       id="path225-7"
       style="fill:#1a1a1a;stroke-width:0.590677" />
    <path
       d="m 38.305675,16.888653 -0.87241,-0.0221 0.958922,-11.465959 c 0.07875,-0.88781 0.330077,-1.864402 1.682011,-2.317167 l 0.66022,0.350693 C 39.75192,3.767035 39.351061,4.632634 39.288179,5.427241 Z"
       fill="#533a71"
       id="path227-8"
       style="fill:#1a1a1a;stroke-width:0.590677" />
    <path
       d="m 26.743809,17.46573 c 0.564346,0 1.021801,-0.258362 1.021801,-0.577077 0,-0.318719 -0.457455,-0.577086 -1.021801,-0.577086 -0.564326,0 -1.021759,0.258367 -1.021759,0.577086 0,0.318715 0.457433,0.577077 1.021759,0.577077 z"
       fill="#a3785a"
       id="path229-7"
       style="stroke-width:0.590677" />
    <path
       d="m 37.975599,17.456832 c 0.56433,0 1.0218,-0.258333 1.0218,-0.577053 0,-0.318726 -0.45747,-0.577082 -1.0218,-0.577082 -0.564331,0 -1.0218,0.258356 -1.0218,0.577082 0,0.31872 0.457469,0.577053 1.0218,0.577053 z"
       fill="#a3785a"
       id="path231-4"
       style="stroke-width:0.590677" />
  </g>
</svg>
