<svg fill="none" height="130" viewBox="0 0 350 130" width="350" xmlns="http://www.w3.org/2000/svg" xmlns:xlink="http://www.w3.org/1999/xlink"><clipPath id="a"><path d="m0 0h350v130h-350z"/></clipPath><g clip-path="url(#a)"><path d="m0 0h350v130h-350z" fill="#ede9f0"/><path d="m185.003 50.5c11-21 23.5-39.5 120-61.5l59-21c34 14 89.5 46.9 39.5 66.5-62.5 24.5-37 88-12.5 100.5l.286.146c24.545 12.521 66.629 33.99-83.286 68.854-150.5 35-218.5003-38.5-218.0003-52.5s14.0003-26 48.0003-40 36-40 47-61z" fill="#faf9fb"/><path d="m117.314 78.5898c11.5-21 30-76.00006 94-78.5000669-9.333-4.4999931-31.2-15.5999331-44-23.9999331-16-10.5-111.5002-9.5-151.0002-8.5s-46.4999 53.5-67.4999 96.5c-21 43.0002-7.5 51.0002-8 116.5002s111.5 50 106.5 0 58.5001-81.0002 70.0001-102.0002z" fill="#baa8c6"/><path d="m295 90.9999c13.2-9.6 23.5 10.0001 27 21.0001" stroke="#dadada" stroke-width="3"/><path d="m289.593 88.0222c2.279-1.2636 5.152-.4399 6.415 1.8397l.273.4909c1.263 2.2797.439 5.152-1.84 6.4156z" fill="#40295c"/><path d="m262.92 98.7911-7.989.4187c-1.103.0578-1.95.9992-1.892 2.1022l.092 1.769c.058 1.103.999 1.95 2.102 1.892l7.989-.418c1.103-.058 1.951-.999 1.893-2.102l-.093-1.769c-.058-1.1034-.999-1.9507-2.102-1.8929z" fill="#40295c"/><path clip-rule="evenodd" d="m289.389 85.7432 13.27 24.4268c1.918 3.532-.638 7.83-4.657 7.83h-104.768c-2.834 0-4.654-3.01-3.336-5.519 11.362-21.6439 32.462-36.4825 56.673-39.8568l13.18-1.837c12.03-1.6767 23.84 4.2825 29.638 14.956zm-22.174 15.7908-18.075.947c-5.791.303-10.731-4.1448-11.034-9.9352-.282-5.3864 3.563-10.1103 8.894-10.9271l10.477-1.6051 7.414-1.136c6.668-1.0215 12.76 3.9371 13.113 10.6733.329 6.2882-4.501 11.6531-10.789 11.9831z" fill="#533a71" fill-rule="evenodd"/><path d="m300.5 118h-109c-1.381 0-2.5 1.119-2.5 2.5s1.119 2.5 2.5 2.5h109c1.381 0 2.5-1.119 2.5-2.5s-1.119-2.5-2.5-2.5z" fill="#dadada"/></g></svg>