<svg fill="none" height="130" viewBox="0 0 350 130" width="350" xmlns="http://www.w3.org/2000/svg" xmlns:xlink="http://www.w3.org/1999/xlink"><clipPath id="a"><path d="m0 0h350v130h-350z"/></clipPath><g clip-path="url(#a)"><path d="m29.28 98c6.41-13 21.03-19.9 35.14-23.4s29-4.72 42.1-11c6-2.88 12.1-7.91 12-14.55-.11-6.89-7.27-12-14.15-12.37s-13.47 2.52-19.79 5.32-13.07 5.47-19.9 4.53c-11-1.52-19-12.87-19-24 0-8.22 3.45-16 8.65-22.5000012h-54.33v129.9700012h31.19c-5.55-9.76-6.84-22-1.91-32z" fill="#e5f1ff"/><path d="m350 0h-171.31c-1.2 2.29937-1.912 4.82227-2.09 7.41-1.15 18.83 26.63 32.18 21.38 50.3-2.16 7.47-9.55 12.23-16.94 14.66s-15.29 3.25-22.41 6.37c-17.7 7.76-26.33 27.33-38.2 42.58-2.371 3.049-4.933 5.945-7.67 8.67h237.24z" fill="#83beff"/><path d="m158.63 78.74c7.12-3.12 15-3.94 22.41-6.37s14.77-7.19 16.96-14.66c5.25-18.12-22.53-31.47-21.38-50.3.172-2.58629.877-5.10911 2.07-7.41h-124.36c-5.2 6.47-8.69 14.28-8.65 22.5.05 11.13 8 22.48 19 24 6.83.94 13.58-1.76 19.9-4.53s12.89-5.73 19.77-5.32 14 5.48 14.15 12.37c.11 6.65-6 11.67-12 14.55-13.1 6.31-28 7.52-42.1 11s-28.71 10.43-35.12 23.43c-4.93 10-3.64 22.23 1.91 32h81.57c2.737-2.725 5.299-5.621 7.67-8.67 11.88-15.25 20.51-34.82 38.2-42.59z" fill="#c9e3fc"/><path d="m297.62 47.73c1.032-4.3273.452-8.8824-1.633-12.8126-2.084-3.9302-5.529-6.9659-9.691-8.539-4.161-1.573-8.753-1.5755-12.916-.0069-4.163 1.5685-7.611 4.6006-9.7 8.5285-4.109-1.9492-8.804-2.2708-13.14-.9.576-2.145.561-4.4059-.043-6.5432-.605-2.1372-1.776-4.0711-3.39-5.5966-1.614-1.5256-3.611-2.5861-5.779-3.069s-4.426-.3703-6.535.3259-3.991 1.9501-5.445 3.6287c-1.455 1.6786-2.428 3.7194-2.817 5.9061-.388 2.1868-.178 4.438.608 6.515.787 2.0771 2.121 3.9026 3.861 5.2831-3.215-.6164-6.544.0436-9.28 1.84-.852-.8222-1.89-1.4267-3.026-1.7622-1.135-.3354-2.335-.392-3.497-.1647-1.162.2272-2.252.7314-3.178 1.4699-.925.7385-1.659 1.6894-2.139 2.772-.479 1.0826-.691 2.265-.616 3.4467s.434 2.328 1.046 3.3414c.613 1.0134 1.461 1.8641 2.472 2.4798s2.157.9784 3.338 1.0571v.25c-2.515.4634-4.835 1.6637-6.666 3.4483-1.831 1.7847-3.09 4.0733-3.618 6.5752-.528 2.5018-.3 5.1041.654 7.4764s2.591 4.4075 4.704 5.8472c2.114 1.4397 4.607 2.219 7.164 2.2389 2.557.0198 5.062-.7206 7.197-2.1273s3.804-3.4162 4.795-5.7733c.991-2.3572 1.259-4.9556.77-7.4654 3.005-.6024 5.69-2.2719 7.56-4.7.752.335 1.536.5929 2.34.77 1.407 2.0608 3.225 3.808 5.341 5.1317 2.115 1.3236 4.481 2.1951 6.95 2.5596 2.468.3645 4.986.214 7.393-.4419 2.408-.656 4.653-1.8032 6.596-3.3694 2.706.564 5.518.3242 8.09-.69-.096.7529-.146 1.511-.15 2.27 0 10.68 9 19.34 20 19.34s20-8.66 20-19.34c.06-9.93-7.67-18.08-17.62-19.2z" fill="#e5f1fe"/><path d="m223.78 71.21-5.1-2.46v-1.36c0-.4641-.184-.9092-.513-1.2374-.328-.3282-.773-.5126-1.237-.5126h-7.07c-.464 0-.909.1844-1.237.5126-.329.3282-.513.7733-.513 1.2374 0 1.342.533 2.629 1.482 3.578.949.9489 2.236 1.482 3.578 1.482h3.77c.41-.0033.805-.1502 1.118-.4152.312-.265.522-.6312.592-1.0348l4.24 2z" fill="#ea474f"/><path d="m303.92 71.21 5.1-2.46v-1.36c0-.4641.184-.9092.513-1.2374.328-.3282.773-.5126 1.237-.5126h7.07c.464 0 .909.1844 1.237.5126.329.3282.513.7733.513 1.2374 0 1.342-.533 2.629-1.482 3.578-.949.9489-2.236 1.482-3.578 1.482h-3.77c-.418.0086-.826-.133-1.149-.399-.322-.266-.539-.6388-.611-1.051l-4.24 2z" fill="#ea474f"/><path d="m227 107.3h-12.59c-1.585 0-2.87 1.285-2.87 2.87v12.59c0 1.585 1.285 2.87 2.87 2.87h12.59c1.585 0 2.87-1.285 2.87-2.87v-12.59c0-1.585-1.285-2.87-2.87-2.87z" fill="#434343"/><path d="m314.25 107.3h-12.59c-1.585 0-2.87 1.285-2.87 2.87v12.59c0 1.585 1.285 2.87 2.87 2.87h12.59c1.585 0 2.87-1.285 2.87-2.87v-12.59c0-1.585-1.285-2.87-2.87-2.87z" fill="#434343"/><path d="m301.24 108.67h-74.94c-4.964-.002-9.762-1.787-13.519-5.03-3.758-3.244-6.224-7.7297-6.951-12.64-.149.7645-.226 1.5412-.23 2.32v12.78c-.001 1.327.259 2.641.766 3.867s1.251 2.34 2.189 3.278 2.052 1.682 3.278 2.189 2.54.767 3.867.766h96.15c2.676 0 5.242-1.063 7.135-2.955 1.892-1.893 2.955-4.459 2.955-7.135v-12.78c-.004-.7788-.081-1.5555-.23-2.32-.729 4.9085-3.197 9.392-6.954 12.633-3.757 3.242-8.554 5.026-13.516 5.027z" fill="#ea474f"/><path d="m304.57 67.94c-1.615-5.7286-4.449-11.0401-8.31-15.57-.743-.861-1.665-1.5502-2.701-2.0198-1.036-.4697-2.162-.7086-3.299-.7002h-53c-1.187-.0105-2.362.2381-3.444.7287-1.081.4905-2.042 1.211-2.816 2.1113-3.81 4.5039-6.609 9.7723-8.21 15.45l-.79 2.75h83.32z" fill="#ff6a6c"/><path d="m321.35 89.54c-2.582-8.1293-8.277-14.9062-15.84-18.85h-83.51c-7.563 3.9438-13.258 10.7207-15.84 18.85-.15.4856-.27.9798-.36 1.48.731 4.9083 3.201 9.391 6.96 12.63 3.76 3.24 8.557 5.021 13.52 5.02h74.93c4.969.006 9.774-1.777 13.538-5.021 3.763-3.244 6.235-7.7336 6.962-12.649-.091-.4934-.211-.981-.36-1.46z" fill="#ff6a6c"/><path d="m226.15 86.85c-.375-.2019-.762-.379-1.16-.53-.54-.15-7.23-.57-11.54-.82-.147 2.5563-.019 5.1209.38 7.65l.37.17c4.855 2.221 10.131 3.3704 15.47 3.37h.33c.353 0 .691-.1401.94-.3895.25-.2495.39-.5878.39-.9405.003-1.7578-.478-3.4825-1.392-4.984s-2.225-2.7216-3.788-3.526z" fill="#fff"/><path d="m213.45 85.5-2.61-.15c-.291-.0165-.579.0639-.82.2285s-.42.4043-.51.6815c-.394 1.1762-.338 2.457.16 3.5935.497 1.1366 1.399 2.0478 2.53 2.5565l1.63.75c-.4-2.5324-.528-5.1004-.38-7.66z" fill="#ffb942"/><path d="m298.65 86.85c.375-.2019.762-.379 1.16-.53.54-.15 7.23-.57 11.54-.82.147 2.5563.019 5.1209-.38 7.65l-.37.17c-4.855 2.221-10.131 3.3704-15.47 3.37h-.38c-.353 0-.691-.1401-.94-.3895-.25-.2495-.39-.5878-.39-.9405.001-1.763.491-3.4912 1.414-4.9933.923-1.502 2.244-2.7192 3.816-3.5167z" fill="#fff"/><path d="m311.36 85.5 2.61-.15c.291-.0165.579.0639.82.2285s.42.4043.51.6815c.394 1.1762.338 2.457-.16 3.5935-.497 1.1366-1.399 2.0478-2.53 2.5565l-1.63.75c.4-2.5324.528-5.1004.38-7.66z" fill="#ffb942"/><path d="m240.1 104.11h42.9c.589 0 1.153.234 1.57.65.416.417.65.981.65 1.57 0 .906-.178 1.803-.525 2.64-.347.838-.855 1.598-1.496 2.239s-1.401 1.149-2.238 1.496c-.838.347-1.735.525-2.641.525h-33.54c-.906 0-1.803-.178-2.641-.525-.837-.347-1.597-.855-2.238-1.496s-1.149-1.401-1.496-2.239c-.347-.837-.525-1.734-.525-2.64 0-.589.234-1.153.65-1.57.417-.416.981-.65 1.57-.65z" fill="#434343"/><path d="m301.06 104.11h6.23c1.09 0 2.135.433 2.906 1.204s1.204 1.816 1.204 2.906-.433 2.135-1.204 2.906-1.816 1.204-2.906 1.204h-6.23c-.576 0-1.127-.229-1.534-.636s-.636-.958-.636-1.534v-3.88c0-.576.229-1.127.636-1.534s.958-.636 1.534-.636z" fill="#434343"/><path d="m224.16 112.32h-6.23c-1.09 0-2.135-.433-2.906-1.204s-1.204-1.816-1.204-2.906.433-2.135 1.204-2.906 1.816-1.204 2.906-1.204h6.23c.576 0 1.127.229 1.534.636s.636.958.636 1.534v3.88c0 .576-.229 1.127-.636 1.534s-.958.636-1.534.636z" fill="#434343"/><path d="m305.19 111.13c1.53 0 2.77-1.24 2.77-2.77s-1.24-2.77-2.77-2.77-2.77 1.24-2.77 2.77 1.24 2.77 2.77 2.77z" fill="#656666"/><path d="m220.08 111.44c1.53 0 2.77-1.24 2.77-2.77s-1.24-2.77-2.77-2.77-2.77 1.24-2.77 2.77 1.24 2.77 2.77 2.77z" fill="#656666"/><path d="m234.94 52.73c-4.041 4.2204-7.062 9.3107-8.83 14.88v1.39c7.607 1.3868 15.286 2.3516 23 2.89l16.49-19.14z" fill="#558a89"/><path d="m301.25 67.61c-1.473-4.5994-3.804-8.8782-6.87-12.61l-13.48 16.65c6.813-.56 13.597-1.45 20.35-2.67z" fill="#558a89"/><path d="m292.42 52.73h-26.78l-16.49 19.13c10.573.7327 21.187.6625 31.75-.21l13.48-16.65c-.63-.81-1.27-1.56-1.96-2.27z" fill="#6ea09d"/><g fill="#fff"><path d="m275.47 41.24c2.049 0 3.71-1.661 3.71-3.71s-1.661-3.71-3.71-3.71-3.71 1.661-3.71 3.71 1.661 3.71 3.71 3.71z"/><path d="m235.56 30.8c2.049 0 3.71-1.661 3.71-3.71s-1.661-3.71-3.71-3.71-3.71 1.661-3.71 3.71 1.661 3.71 3.71 3.71z"/><path d="m295.02 56.32c3.54 0 6.41-2.8699 6.41-6.41s-2.87-6.41-6.41-6.41-6.41 2.8699-6.41 6.41 2.87 6.41 6.41 6.41z"/><path d="m208.5 87.96c2.706 0 4.9-2.1938 4.9-4.9s-2.194-4.9-4.9-4.9-4.9 2.1938-4.9 4.9 2.194 4.9 4.9 4.9z"/><path d="m217.14 46.58c4.358 0 7.89-3.5325 7.89-7.89s-3.532-7.89-7.89-7.89-7.89 3.5325-7.89 7.89 3.532 7.89 7.89 7.89z"/><path d="m236.27 43.53c1.657 0 3-1.3431 3-3s-1.343-3-3-3-3 1.3431-3 3 1.343 3 3 3z"/><path d="m256.46 24.44c4.037 0 7.31-3.2728 7.31-7.31s-3.273-7.30999-7.31-7.30999-7.31 3.27279-7.31 7.30999 3.273 7.31 7.31 7.31z"/><path d="m319.59 92.49c5.208 0 9.43-4.2219 9.43-9.43 0-5.208-4.222-9.43-9.43-9.43s-9.43 4.222-9.43 9.43c0 5.2081 4.222 9.43 9.43 9.43z"/><path d="m310.98 79.41c3.192 0 5.78-2.5878 5.78-5.78s-2.588-5.78-5.78-5.78-5.78 2.5878-5.78 5.78 2.588 5.78 5.78 5.78z"/></g></g></svg>