<svg fill="none" height="130" viewBox="0 0 350 130" width="350" xmlns="http://www.w3.org/2000/svg" xmlns:xlink="http://www.w3.org/1999/xlink"><mask id="a" height="130" maskUnits="userSpaceOnUse" width="350" x="0" y="0"><path d="m350 0h-350v130h350z" fill="#c4c4c4"/></mask><g mask="url(#a)"><path d="m134 22.95c9.8-7.73 19.65-15.51 29.72-22.95h-163.72v88.95c18.27-1 36.54-5.89 53.35-13.24 29.51-12.91 55.31-32.85 80.65-52.76z" fill="#ffbbca"/><path d="m350 0h-101.21c-3.883 2.42848-7.944 4.55797-12.15 6.37-20.22 9-40.09 19.38-57 33.65s-30.93 32.78-36.82 54.13c-3.144 11.687-3.73 23.915-1.72 35.85h208.9z" fill="#ff6b6b"/><path d="m350 0h-101.21c-3.883 2.42848-7.944 4.55797-12.15 6.37-20.22 9-40.09 19.38-57 33.65s-30.93 32.78-36.82 54.13c-3.144 11.687-3.73 23.915-1.72 35.85h208.9z" fill="#ff6b6b"/><path d="m142.82 94.15c5.89-21.35 19.84-39.86 36.78-54.15s36.81-24.63 57-33.65c4.219-1.80376 8.294-3.92658 12.19-6.35h-85.07c-10.07 7.44-19.92 15.22-29.72 22.95-25.34 19.91-51.14 39.85-80.65 52.76-16.81 7.35-35.08 12.29-53.35 13.24v41.05h141.1c-2.01-11.935-1.424-24.163 1.72-35.85z" fill="#ff9eb1"/><path d="m266.29 124.11c0 .437-.13.864-.372 1.228-.243.363-.588.646-.992.814-.404.167-.848.211-1.277.125-.429-.085-.823-.295-1.132-.604s-.519-.703-.605-1.132c-.085-.429-.041-.873.126-1.277.168-.404.451-.749.814-.992.364-.242.791-.372 1.228-.372.586 0 1.148.233 1.563.647.414.415.647.977.647 1.563z" fill="#76b8de"/><path d="m303.48 59.69v29.76c0 3.31-4.39 3.51-4.39.21 0-3.92.48-14.5-.93-14.5s-2.8 3.93-5.61 0c-2-2.8-1.41 4.89-6 4.89-4.17 0-2.7-10-7.59-10-2.82 0-5 4-6.94 4l3.98-9.11h24.74c.293-.0026.572-.1207.778-.3286s.322-.4887.322-.7814v-4.14z" fill="#dbf3f5"/><path d="m252.16 64.94 4.42 10.21h.47c.34 2.07 0 4.15-1.73 4.15s-2.28-1.41-2.15-3.43.07-4.3-.69-4.23-.07 3.59-2.56 3.51v6.42c0 2.49.14 5.18-1.86 5.18-1.59 0-2-1.65-2-5.11v-9.52s-2.41.48-2.41-1.52c0 0-2.17 2-4.17 0v-5.66z" fill="#dbf3f5"/><path d="m272.07 74-.48 1.12h-3.09v3.74l5.35-5.71c-.487.466-1.111.7638-1.78.85z" fill="#18262e"/><path d="m259.66 75.15v49.44c.054 1.135.543 2.205 1.365 2.989s1.914 1.221 3.05 1.221 2.228-.437 3.05-1.221 1.311-1.854 1.365-2.989v-49.44h3.08l.48-1.12c1.9 0 4.12-4 6.94-4 4.89 0 3.42 10 7.59 10 4.55 0 4-7.69 6-4.89 2.81 3.93 4.18 0 5.61 0s.93 10.58.93 14.5c0 3.31 4.39 3.1 4.39-.21v-29.74c.586 0 1.148-.2329 1.563-.6473.414-.4145.647-.9766.647-1.5627v-6.08c.005-.4142-.107-.8213-.323-1.175-.216-.3536-.527-.6395-.897-.825v-36.28h22.76c.291-.0013.579.0549.847.1655.269.1106.513.2733.719.4788.205.2055.368.4497.478.7184.111.2687.167.5567.166.8473v119.67c.001.291-.055.579-.166.847-.11.269-.273.513-.478.719-.206.205-.45.368-.719.478-.268.111-.556.167-.847.166h-85.56c-.29 0-.578-.057-.846-.168s-.511-.274-.717-.479c-.205-.206-.368-.449-.479-.717s-.168-.556-.168-.846v-64.4c2 2 4.17 0 4.17 0 0 2 2.41 1.52 2.41 1.52v9.52c0 3.45.41 5.11 2 5.11 2 0 1.86-2.69 1.86-5.18v-6.42c2.49.07 1.8-3.45 2.56-3.51s.83 2.21.69 4.23.42 3.43 2.15 3.43 2.07-2.07 1.73-4.15z" fill="#5ecccd"/><path d="m284.31 137.19h10.48l34.65-37.64v-11.81z" fill="#6bd3d5"/><path d="m329.44 70v-54.67c0-.06 0-.12 0-.18 0 .18-24.95 25.58-24.95 25.58v8.71c.37.1855.681.4714.897.825.216.3537.328.7608.323 1.175v6.08c0 .5861-.233 1.1482-.647 1.5627-.415.4145-.977.6473-1.563.6473v29.72c0 3.31-4.39 3.51-4.39.21 0-3.92.48-14.5-.93-14.5s-2.8 3.93-5.61 0c-2-2.8-1.41 4.89-6 4.89-4.17 0-2.7-10-7.59-10-2 0-3.67 2-5.15 3.14l-5.35 5.71v45.69c-.054 1.135-.543 2.205-1.365 2.989s-1.914 1.221-3.05 1.221-2.228-.437-3.05-1.221-1.311-1.854-1.365-2.989v-36.28l-20.17 21.28v25.41c0 .586.233 1.148.647 1.563.415.414.977.647 1.563.647h27.31z" fill="#6bd3d5"/><path d="m304.48 13.12v36.32c-.309-.1586-.652-.2409-1-.24h-64v-33.87c0-.5861.233-1.1483.647-1.5627.415-.4145.977-.6473 1.563-.6473z" fill="#dbf3f5"/><path d="m304.48 13.12h-30.35c-11.55 9.2-23.07 18.46-34.64 27.65v8.43h39c8.593-6.92 17.26-13.7467 26-20.48z" fill="#e2f6f8"/><path d="m264.08 126.32c.437 0 .864-.13 1.228-.372.363-.243.646-.588.814-.992.167-.404.211-.848.126-1.277-.086-.429-.296-.823-.605-1.132s-.703-.519-1.132-.605c-.429-.085-.873-.041-1.277.126s-.749.451-.992.814c-.242.364-.372.791-.372 1.228 0 .586.233 1.148.647 1.563.415.414.977.647 1.563.647zm4.42-17.89v16.16c-.054 1.135-.543 2.205-1.365 2.989s-1.914 1.221-3.05 1.221-2.228-.437-3.05-1.221-1.311-1.854-1.365-2.989v-16.16z" fill="#0a968f"/><path d="m268.49 75.15h-8.83v33.28h8.83z" fill="#ff6b6b"/><path d="m264.08 75.15h-4.42v33.28h4.42z" fill="#ff8681"/><path d="m276 64.94-3.94 9.09-.48 1.12h-3.08-8.84-2.61-.47l-4.42-10.21z" fill="#0a968f"/><path d="m274.9 67.47 1.1-2.53h-23.84l1.1 2.53z" fill="#ced9e6"/><path d="m301.84 59.69v4.14c0 .2927-.116.5735-.322.7814s-.485.326-.778.3286h-73.32c-.146 0-.29-.0287-.425-.0845-.134-.0558-.257-.1375-.36-.2406s-.185-.2254-.24-.3601c-.056-.1347-.085-.279-.085-.4248v-4.14z" fill="#fff"/><path d="m301.84 59.69h-75.53v1.52h75.53z" fill="#ced9e6"/><path d="m304.48 49.44c.37.1855.681.4714.897.825.216.3537.328.7608.323 1.175h-83.23c0-.2902.057-.5776.168-.8457.111-.2682.274-.5118.479-.717.206-.2052.449-.368.717-.4791.268-.111.556-.1682.846-.1682h78.81c.342-.0086.681.0633.99.21z" fill="#0a968f"/><path d="m305.69 57.48c0 .5861-.233 1.1482-.647 1.5627-.415.4144-.977.6473-1.563.6473h-78.8c-.29 0-.578-.0572-.846-.1683-.268-.111-.511-.2738-.717-.479-.205-.2053-.368-.4489-.479-.717s-.168-.5555-.168-.8457v-6.08h83.23z" fill="#8edadb"/><g fill="#fff"><path d="m251.18 33.39c4.69.77 4.26 4.63 4.26 4.63h.34s-.44-3.85 4.26-4.63c-4.7-.77-4.26-4.62-4.26-4.62h-.34s.44 3.85-4.26 4.62z"/><path d="m294.14 42.57c4.63.76 4.2 4.57 4.2 4.57h.33s-.43-3.8 4.2-4.57c-4.64-.76-4.2-4.57-4.2-4.57h-.33s.44 3.81-4.2 4.57z"/><path d="m242.33 24.95c3.22.53 2.92 3.18 2.92 3.18h.23s-.3-2.65 2.92-3.18c-3.22-.53-2.92-3.18-2.92-3.18h-.23s.3 2.65-2.92 3.18z"/></g><path d="m211.15 126.09c.039.296.014.597-.075.883-.088.285-.237.548-.437.77-.199.222-.444.399-.719.517-.274.119-.57.177-.869.17h-25.23c-.304.003-.606-.056-.886-.175-.28-.118-.532-.293-.742-.514-.209-.22-.37-.482-.474-.767-.104-.286-.147-.591-.128-.894l4.89-32.34c.07-1.0428.197-2.081.38-3.11l7.07-21.13h5.77l-.22 15.18c.239.9749.769 1.8539 1.52 2.52l4.59 3.54c1.126.9723 1.874 2.3109 2.11 3.78z" fill="#0a968f"/><path d="m214.34 53.83v1.78l-1.44.5v-2.54z" fill="#fff"/><path d="m211 64.37c.83 1.1.75 1.37-.44.7-1.927-1.0759-3.45-2.7505-4.34-4.77h-4.46c2.24-2.21 6.08-3.16 8.6-3.55 0 0-2.01 4.06.64 7.62z" fill="#8edadb"/><path d="m200 64.29h-6l.65-2.09c.07-.1769.094-.3688.07-.5576-.025-.1888-.097-.3682-.21-.5213-.113-.1532-.263-.2749-.437-.3539-.173-.0789-.363-.1123-.553-.0972h-5.4c-.439.0135-.865-.1472-1.185-.4471-.321-.2998-.509-.7143-.525-1.1529.11-2 1.18-5.28 6.72-6.14 4.87-.75 19.74 0 19.74 0v3.56c-.841.0455-1.679.1356-2.51.27-2.52.39-6.36 1.34-8.6 3.55-1.089 1.0423-1.722 2.473-1.76 3.98z" fill="#fff"/><path d="m200 64.29c.249.0225.481.1378.65.3229.168.1852.261.4268.26.6771v3.28c0 .2652-.105.5196-.293.7071-.187.1876-.442.2929-.707.2929h-6.51c-.265 0-.52-.1053-.707-.2929-.188-.1875-.293-.4419-.293-.7071v-3.31c0-.2652.105-.5196.293-.7071.187-.1875.442-.2929.707-.2929h6.6z" fill="#0a968f"/><path d="m204.71 123.16h-17c-.103.002-.205-.018-.3-.058-.095-.039-.18-.098-.252-.172-.071-.074-.126-.162-.162-.258-.036-.097-.051-.199-.046-.302l4.07-26.81c.008-.2105.096-.41.247-.5571.151-.147.352-.2305.563-.2329h10.87c.212.0018.416.0828.571.2271.156.1443.252.3416.269.5529l1.9 26.82c.01.101-.002.203-.034.3-.032.096-.085.184-.154.259-.069.074-.153.134-.246.173-.094.04-.194.06-.296.058z" fill="#fff"/></g></svg>