<svg fill="none" height="130" viewBox="0 0 350 130" width="350" xmlns="http://www.w3.org/2000/svg" xmlns:xlink="http://www.w3.org/1999/xlink"><clipPath id="a"><path d="m0 0h350v130h-350z"/></clipPath><g clip-path="url(#a)"><path d="m0 129.72h16.72c-5.6578-1.257-11.24007-2.833-16.72-4.72z" fill="#74599c"/><path d="m280.13 26.87c-35.13 7.22-65.88 27.84-95.13 48.58s-59 42.42-93.48 52.3c-2.5467.727-5.11 1.393-7.69 2h266.17v-94.39c-20.75-10.78-46.58-13.27-69.87-8.49z" fill="#74599c"/><path d="m88.78 75.56c17.83-20.22 28-46.19 45.11-66.99999 2.367-2.87333 4.863-5.63 7.49-8.270001h-141.38v114.999991c33.17.05 66.85-14.85 88.78-39.73z" fill="#ece9f0"/><path d="m141.37.279999c-2.62 2.666671-5.117 5.423331-7.49 8.270001-17.13 20.82-27.28 46.78-45.11 67-21.92 24.89-55.6 39.79-88.77 39.74v9.71c5.47973 1.891 11.062 3.47 16.72 4.73h67.06c2.58-.587 5.1433-1.253 7.69-2 34.5-9.88 64.19-31.56 93.48-52.3s60-41.36 95.18-48.58c23.29-4.78 49.11-2.29 69.87 8.49v-35.060001z" fill="#bba8c6"/><path d="m257.78 53.69h-10.34v3.74h10.34z" fill="#ffb942"/><path d="m257.78 53.07h-10.34v.91h10.34z" fill="#003090"/><path d="m255.597 48.3907-1.939 3.1861 8.832 5.3764 1.94-3.1861z" fill="#ff6b6b"/><path d="m264.3 54.03-8.83-5.38.53-.93 8.83 5.38z" fill="#003090"/><path d="m301.85 99.07-2.57-20.91-4.84-39.33-2.79-22.66v-.07c-.071-.2216-.217-.4115-.413-.5369-.197-.1254-.43-.1784-.661-.15s-.445.1366-.605.3058-.256.3888-.271.6211l2.57 20.91 4.84 39.33 2.79 22.66v.07c.071.2216.217.4115.413.5369.197.1254.43.1781.661.15.231-.0284.445-.1366.605-.3058s.256-.3888.271-.6211z" fill="#0078fa"/><path d="m295.26 42.88-1.85-15c-.048-.3402-.227-.648-.5-.8572-.272-.2091-.616-.3028-.957-.2608s-.652.2162-.866.4852-.313.6112-.277.9528l1.85 15c.048.3402.227.6481.5.8572.272.2091.616.3028.957.2608s.652-.2162.866-.4852.313-.6111.277-.9528z" fill="#83beff"/><path d="m297 57.32-.93-7.52c-.048-.3402-.227-.6481-.5-.8572-.272-.2091-.616-.3028-.957-.2608s-.652.2162-.866.4852-.313.6111-.277.9528l.93 7.52c.048.3402.227.648.5.8572.272.2091.616.3028.957.2608s.652-.2162.866-.4852.313-.6112.277-.9528z" fill="#83beff"/><path d="m302.4 99-3.28-26.61c-.05-.4058-.26-.7749-.582-1.0262-.323-.2513-.732-.3642-1.138-.3138s-.775.2599-1.026.5825c-.252.3225-.364.7317-.314 1.1375l3.28 26.61c.05.4058.26.775.582 1.026.323.252.732.364 1.138.314s.775-.26 1.026-.582c.252-.323.364-.7322.314-1.138z" fill="#83beff"/><path d="m297.433 5.83566-15.87 1.95423c-2.631.32399-4.501 2.71951-4.177 5.35061l.212 1.727c.324 2.6311 2.72 4.5014 5.351 4.1774l15.87-1.9543c2.631-.3239 4.502-2.7195 4.178-5.3506l-.213-1.727c-.324-2.63105-2.72-4.50133-5.351-4.17734z" fill="#003090"/><path d="m281.56 7.8c-1.137.14065-2.186.68405-2.956 1.53166-.771.84764-1.212 1.94324-1.244 3.08834.31 1.1034 1.004 2.0593 1.958 2.6941.955.6349 2.105.9066 3.242.7659l15.87-2c1.137-.1406 2.186-.684 2.956-1.5316.771-.8477 1.212-1.9433 1.244-3.0884-.31-1.1034-1.004-2.05927-1.958-2.69411-.955-.63483-2.105-.90657-3.242-.76589z" fill="#0078fa"/><path d="m294.1 29.02-20.47 5.08-5.02-7.23 26.55-6.58z" fill="#dd962f"/><g fill="#ffb942"><path d="m277.1 33-4.31-7.42c-.104-.1462-.259-.2483-.434-.2863-.176-.038-.359-.0091-.514.081s-.271.235-.325.4061c-.054.1712-.042.3564.033.5192l4.31 7.42c.104.1463.259.2484.434.2863.176.038.359.0091.514-.081s.271-.235.325-.4061c.054-.1712.042-.3563-.033-.5192z"/><path d="m292.09 30.08.36-8.94c0-.92-1.4-.92-1.43 0l-.36 8.94c0 .92 1.4.92 1.43 0z"/><path d="m282.58 32.43-3.1-8.27c-.32-.86-1.71-.49-1.38.38l3.1 8.27c.32.86 1.71.49 1.38-.38z"/><path d="m287.14 31.37-1.26-8.8c-.13-.91-1.51-.52-1.38.38l1.26 8.8c.13.91 1.51.52 1.38-.38z"/><path d="m284.816 31.8238-1.669.4141 13.59 54.7898 1.669-.4141z"/></g><path d="m288.37 45.8-1.84.46-3.48-13.9 1.84-.45z" fill="#ccd9ed"/><path d="m284.56 31.37-2-8c-.065-.1648-.189-.2996-.348-.3786s-.341-.0967-.512-.0496c-.171.047-.319.1555-.415.3047-.096.1491-.133.3284-.105.5035l2 8c.065.1648.189.2996.348.3786.159.0791.341.0967.512.0497.171-.0471.319-.1556.415-.3048.096-.1491.133-.3284.105-.5035z" fill="#ffb942"/><path d="m274.25 33.74-5-7.23c-.52-.75-1.77 0-1.24.72l5 7.23c.52.75 1.77 0 1.24-.72z" fill="#ffb942"/><path d="m294.82 29 1.06-8.74c.11-.91-1.32-.91-1.43 0l-1.07 8.74c-.11.91 1.32.91 1.43 0z" fill="#ffb942"/><path d="m280.14 32.78-3.9-8c-.4-.83-1.64-.1-1.24.72l3.9 8c.4.83 1.64.1 1.24-.72z" fill="#ffb942"/><path d="m289.16 30.93-.3-8.9c0-.92-1.47-.93-1.43 0l.3 8.9c0 .92 1.47.93 1.43 0z" fill="#ffb942"/><path d="m294.393 28.9514-21.052 5.2216.356 1.4364 21.052-5.2215z" fill="#003090"/><path d="m239 110.72h-10.21c-1.812.001-3.555-.7-4.86-1.957-1.306-1.258-2.073-2.972-2.14-4.783l-1.48-44.27h27.11l-1.42 44.29c-.072 1.808-.842 3.517-2.147 4.77s-3.044 1.951-4.853 1.95z" fill="#83beff"/><path d="m238.67 104 1.48-44.27h-20.21l1.48 44.27c.067 1.811.834 3.525 2.14 4.783 1.305 1.257 3.048 1.958 4.86 1.957h3.33c1.798-.019 3.52-.73 4.809-1.985 1.288-1.255 2.044-2.958 2.111-4.755z" fill="#e5f1fe"/><path d="m266.57 96.27h-11.43v15.09h11.43z" fill="#0078fa"/><path d="m263.91 101.84h-2.9l.49-1.7h1.92z" fill="#e50b00"/><path d="m262.46 101.84h1.45l-.49-1.7h-.96z" fill="#b70400"/><path d="m264.33 110.52h-3.75c-.155-.005-.306-.045-.444-.115s-.259-.17-.355-.292c-.095-.122-.162-.263-.197-.414s-.036-.308-.004-.459l.87-7.24c.042-.169.142-.318.283-.42.141-.103.313-.152.487-.14h2.38c.174-.012.346.037.487.14.141.102.241.251.283.42l.87 7.24c.032.144.033.294.003.439-.029.145-.089.282-.174.403-.086.12-.196.221-.323.297-.128.075-.269.123-.416.141z" fill="#9cf1ff"/><path d="m264.45 102c-.042-.169-.142-.318-.283-.42-.141-.103-.313-.152-.487-.14h-1.19v9.08h1.88c.155-.005.306-.045.444-.115s.259-.17.355-.292c.095-.122.162-.263.197-.414s.036-.308.004-.459z" fill="#40e1f2"/><path d="m259.89 107.3h5.19l-.37-3.12h-4.45z" fill="#e1fcff"/><path d="m325.61 110.4h-39.61c-.329 0-.644-.131-.877-.363-.232-.233-.363-.548-.363-.877v-50.7c0-.3289-.131-.6443-.363-.8768-.233-.2326-.548-.3632-.877-.3632h-65.39c-.329 0-.644.1306-.877.3632-.232.2325-.363.5479-.363.8768v4.54c0 .3289.131.6443.363.8768.233.2326.548.3632.877.3632h29c.329 0 .644.1306.877.3632.232.2325.363.5479.363.8768v49.23h.19v2.42c0 .329.131.644.363.877.233.232.548.363.877.363h75.83c.329 0 .644-.131.877-.363.232-.233.363-.548.363-.877v-5.47c.003-.166-.028-.331-.09-.485-.063-.154-.155-.294-.273-.412s-.258-.21-.412-.273c-.154-.062-.319-.093-.485-.09zm-47.79-1.24c0 .329-.131.644-.363.877-.233.232-.548.363-.877.363h-22.95c-.329 0-.644-.131-.877-.363-.232-.233-.363-.548-.363-.877v-15.83c0-.3289.131-.6443.363-.8768.233-.2326.548-.3632.877-.3632h22.95c.329 0 .644.1306.877.3632.232.2325.363.5479.363.8768zm0-22.39c-.003.3271-.134.64-.367.8704-.232.2303-.546.3596-.873.3596h-22.95c-.329 0-.644-.1306-.877-.3632-.232-.2325-.363-.5479-.363-.8768v-21.3c0-.3289.131-.6443.363-.8768.233-.2326.548-.3632.877-.3632h22.95c.329 0 .644.1306.877.3632.232.2325.363.5479.363.8768z" fill="#83beff"/><path d="m319.8 118.22c-1.009.004-1.994.307-2.831.87-.838.563-1.49 1.361-1.874 2.294s-.484 1.958-.286 2.948c.198.989.684 1.898 1.398 2.611.713.714 1.622 1.2 2.611 1.398.99.198 2.015.098 2.948-.286s1.731-1.036 2.294-1.874c.563-.837.866-1.822.87-2.831v-5.13z" fill="#0078fa"/><path d="m319.82 126.79c1.911 0 3.46-1.549 3.46-3.46s-1.549-3.46-3.46-3.46-3.46 1.549-3.46 3.46 1.549 3.46 3.46 3.46z" fill="#e5f1fe"/><path d="m271.98 88.02h-13.13l-1.49-13.16h16.15z" fill="#003090"/><path d="m320.2 78.11-.2 3.41-1.2 15.79-.07 1-.5 6.78c-.106 1.455-.759 2.815-1.828 3.808-1.069.992-2.473 1.543-3.932 1.542h-15.47c-1.457-.001-2.859-.553-3.926-1.546-1.066-.992-1.718-2.351-1.824-3.804l-.48-6.64-.08-1.13-1.15-15.8-.13-1.72-.12-1.69z" fill="#ff6b6b"/><path d="m288.36 77.63v3.89h7.46 17.85 7.46v-3.89z" fill="#ff6b6b"/><path d="m317.34 107.8h-25.16c.523.81 1.241 1.477 2.089 1.938.847.461 1.796.702 2.761.702h15.46c.965 0 1.914-.241 2.761-.702.848-.461 1.566-1.128 2.089-1.938z" fill="#8a3131"/><path d="m287.57 81.52c-.16 6.51 2.52 14 8.29 17.43 2.134 1.256 4.516 2.03 6.98 2.269s4.951-.063 7.286-.884c2.335-.8224 4.463-2.1445 6.234-3.8743 1.771-1.7297 3.143-3.8255 4.02-6.1407 1.053-2.8163 1.575-5.8034 1.54-8.81 0-.2108-.084-.4131-.233-.5621-.149-.1491-.351-.2329-.562-.2329s-.413.0838-.562.2329c-.149.149-.233.3513-.233.5621.23 9.41-5.54 18.09-15.59 18.09s-15.82-8.68-15.59-18.09c0-.2108-.084-.4131-.233-.5621-.149-.1491-.351-.2329-.562-.2329s-.413.0838-.562.2329c-.149.149-.233.3513-.233.5621z" fill="#83beff"/><path d="m257.36 76.22h16.15c.363 0 .712-.1443.969-.4013.257-.2569.401-.6053.401-.9687 0-.3633-.144-.7118-.401-.9687-.257-.257-.606-.4013-.969-.4013h-16.15c-.363 0-.712.1443-.969.4013-.257.2569-.401.6054-.401.9687 0 .3634.144.7118.401.9687.257.257.606.4013.969.4013z" fill="#0078fa"/><path d="m289.18 73.45v-5.62c0-1.342-.533-2.629-1.482-3.578-.949-.9489-2.236-1.482-3.578-1.482h-5.62c-1.342 0-2.629.5331-3.578 1.482-.949.949-1.482 2.236-1.482 3.578v5.62z" fill="#ff6b6b"/><path d="m273.44 72.74s0-.13-.06-.37-.09-.59-.15-1c-.12-.9-.26-2.17-.39-3.71v-.29-.2c0-.07 0 0 0 0v-.47c0-.05 0-.1 0-.16v-.18c0-.12 0-.25 0-.38s0-.24.07-.36c.051-.2441.118-.4846.2-.72 0-.12.09-.24.14-.36.049-.1202.106-.2371.17-.35l.19-.35.22-.33.12-.17.13-.16c.09-.1.17-.21.27-.31l.3-.29.16-.14.16-.13.17-.13.18-.12.36-.23.39-.2h.1.1l.2-.08.21-.08.21-.06.43-.12c.293-.0619.591-.102.89-.12h.81 5.68.12l.48.08.43.12.21.06.21.08.2.08h.1.1l.39.2.36.23.18.12.17.13c.438.3404.822.745 1.14 1.2l.22.33.19.35c.064.1129.121.2298.17.35 0 .12.1.24.14.36.082.2355.149.4759.2.72 0 .12 0 .24.07.36s0 .24 0 .36v.17.17.36.31.29c-.06.77-.13 1.47-.2 2.09s-.13 1.17-.19 1.61-.11.8-.15 1-.06.37-.06.37 0-.13-.06-.37-.09-.59-.15-1-.12-1-.19-1.61-.13-1.33-.2-2.09v-.29c0-.09 0-.2 0-.29v-.26s0-.09 0-.13v-.13l-.06-.26-.22-.24c-.059-.1743-.129-.3447-.21-.51-.169-.3388-.381-.6547-.63-.94l-.09-.11-.11-.1c-.07-.07-.13-.14-.21-.2l-.23-.19-.12-.09-.12-.08-.12-.08-.13-.07-.26-.14-.27-.12h-.07-.07-.14-.14-.15l-.29-.06h-.26-.35-3-2.33c-.25 0-.53 0-.71 0-.1-.0066-.2-.0066-.3 0h-.3l-.29.06h-.15-.14-.14-.07-.07l-.27.12-.26.14-.13.07-.12.08-.12.08-.12.09-.23.19c-.08.06-.14.14-.21.2l-.11.1-.09.11c-.249.2856-.46.6014-.63.94-.081.1653-.151.3357-.21.51l-.09.26-.06.24v.12.15.3.07.2.29c-.13 1.53-.27 2.81-.39 3.71-.06.45-.11.8-.15 1s-.2.4-.2.4z" fill="#ff6b6b"/><path d="m273.44 73.45s0-.13-.06-.37-.09-.59-.15-1c-.12-.9-.26-2.17-.39-3.71v-.29-.2c0-.07 0 0 0 0v-.38c0-.05 0-.1 0-.16v-.18c0-.12 0-.25 0-.38s0-.24.07-.36c.051-.2441.118-.4846.2-.72 0-.12.09-.24.14-.36.049-.1202.106-.2372.17-.35l.19-.35.22-.33.12-.17.13-.16c.09-.1.17-.21.27-.31l.3-.29.16-.14.19-.24.17-.13.18-.12.36-.23.39-.2h.1.1l.2-.08.21-.08.21-.06.43-.12c.293-.0619.591-.102.89-.12h.81 5.68.12l.48.08.43.12.21.06.21.08.2.08h.1.1l.39.2.36.23.18.12.17.13c.438.3404.822.745 1.14 1.2l.22.33.19.35c.064.1128.121.2298.17.35 0 .12.1.24.14.36.082.2355.149.4759.2.72 0 .12 0 .24.07.36s0 .24 0 .36v.17.17.34.31.29c-.06.77-.13 1.47-.2 2.09s-.13 1.17-.19 1.61-.11.8-.15 1-.06.37-.06.37 0-.13-.06-.37-.09-.59-.15-1-.12-1-.19-1.61-.13-1.33-.2-2.09v-.29c0-.09 0-.2 0-.29v-.26s0-.09 0-.13v-.13l-.06-.26-.09-.26c-.059-.1743-.129-.3447-.21-.51-.169-.3388-.381-.6547-.63-.94l-.09-.11-.11-.1c-.07-.07-.13-.14-.21-.2l-.23-.19-.12-.09-.12-.08-.12-.08-.13-.07-.26-.14-.27-.12h-.07-.07-.14-.14-.15l-.29-.06h-.26-.35-3-2.49c-.25 0-.53 0-.71 0-.1-.0066-.2-.0066-.3 0h-.3l-.29.06h-.15-.14l-.11-.02h-.07-.07l-.27.12-.26.14-.13.07-.12.08-.12.08-.12.09-.23.19c-.08.06-.14.14-.21.2l-.11.1-.09.11c-.249.2856-.46.6014-.63.94-.081.1654-.151.3357-.21.51l-.09.26-.06.24v.12.15.3.07.23.29c-.13 1.53-.27 2.81-.39 3.71-.06.45-.11.8-.15 1s-.23.45-.23.45z" fill="#8a3131"/><path d="m281.32 62.77c-.199-.0003-.391-.0722-.542-.2025-.151-.1304-.249-.3105-.278-.5075l-.89-6.12c-.017-.1178-.009-.2379.024-.3522.034-.1143.091-.22.169-.3101.078-.0902.174-.1625.282-.2121s.226-.0754.345-.0756h1.8c.119.0002.237.026.345.0756s.204.1219.282.2121c.078.0901.135.1958.169.3101.033.1143.041.2344.024.3522l-.89 6.12c-.029.2005-.131.3833-.286.5141-.154.1308-.351.2005-.554.1959z" fill="#ff6b6b"/><path d="m319.8 83.6.15-2.08h-30.41l.15 2.08z" fill="#8a3131"/><path d="m319.82 124.5c.646 0 1.17-.524 1.17-1.17s-.524-1.17-1.17-1.17-1.17.524-1.17 1.17.524 1.17 1.17 1.17z" fill="#0078fa"/><path d="m248.55 112.36c-1.602 0-3.168.475-4.5 1.365s-2.37 2.155-2.983 3.635-.774 3.109-.461 4.68c.312 1.571 1.084 3.015 2.216 4.148 1.133 1.132 2.577 1.904 4.148 2.216 1.571.313 3.2.152 4.68-.461s2.745-1.651 3.635-2.983 1.365-2.898 1.365-4.5c0-1.064-.21-2.117-.617-3.1-.407-.982-1.003-1.875-1.755-2.628-.753-.752-1.646-1.348-2.628-1.755-.983-.408-2.036-.617-3.1-.617zm1.22 12.18c-.79-.79-.44-3.31-.44-3.31s2.51-.35 3.31.44c.282.395.416.877.376 1.361s-.251.938-.594 1.281-.797.554-1.281.594-.966-.094-1.361-.376zm2.64-7.94c.199.151.364.342.485.561.12.219.193.461.214.71s-.011.5-.094.735c-.082.236-.214.452-.385.634-.79.79-3.31.44-3.31.44s-.35-2.51.44-3.31c.182-.173.398-.306.635-.389.237-.084.489-.116.739-.095.251.02.494.094.714.215.219.122.411.288.562.489zm-5.08 7.94c-.395.282-.877.416-1.361.376s-.938-.251-1.281-.594-.554-.797-.594-1.281.094-.966.376-1.361c.79-.79 3.31-.44 3.31-.44s.34 2.51-.45 3.3zm-2.64-7.94c.151-.199.342-.364.561-.485.219-.12.461-.193.71-.214s.5.011.735.094c.236.082.452.214.634.385.79.79.44 3.31.44 3.31s-2.52.35-3.31-.44c-.175-.182-.309-.399-.393-.637-.085-.238-.118-.491-.097-.743.021-.251.095-.495.217-.716.123-.221.291-.413.493-.564z" fill="#0078fa"/><path d="m248.55 114.17c-1.244 0-2.46.369-3.495 1.06-1.034.691-1.84 1.674-2.316 2.823s-.601 2.414-.358 3.634.842 2.341 1.721 3.221c.88.879 2.001 1.478 3.221 1.721s2.485.118 3.634-.358 2.132-1.282 2.823-2.316c.691-1.035 1.06-2.251 1.06-3.495 0-1.668-.663-3.268-1.842-4.448-1.18-1.179-2.78-1.842-4.448-1.842zm-3.86 2.42c.151-.199.342-.364.561-.485.219-.12.461-.193.71-.214s.5.011.735.094c.236.082.452.214.634.385.79.79.44 3.31.44 3.31s-2.52.35-3.31-.44c-.173-.182-.306-.398-.389-.635-.084-.237-.116-.489-.095-.739.02-.251.094-.494.215-.714.122-.219.288-.411.489-.562zm2.64 7.94c-.395.282-.877.416-1.361.376s-.938-.251-1.281-.594-.554-.797-.594-1.281.094-.966.376-1.361c.79-.79 3.31-.44 3.31-.44s.34 2.52-.45 3.31zm2.44-8.16c.395-.282.877-.416 1.361-.376s.938.251 1.281.594.554.797.594 1.281-.094.966-.376 1.361c-.79.79-3.31.44-3.31.44s-.32-2.51.45-3.3zm2.64 7.94c-.151.199-.342.364-.561.485-.219.12-.461.193-.71.214s-.5-.011-.735-.094c-.236-.082-.452-.214-.634-.385-.79-.79-.44-3.31-.44-3.31s2.51-.35 3.31.44c.174.183.308.4.391.639.084.238.116.491.094.743-.021.251-.096.496-.22.716-.123.22-.292.412-.495.562z" fill="#e5f1fe"/><path d="m248.55 122.62c1.198 0 2.17-.972 2.17-2.17s-.972-2.17-2.17-2.17-2.17.972-2.17 2.17.972 2.17 2.17 2.17z" fill="#e5f1fe"/></g></svg>