<svg width="642" height="484" viewBox="0 0 642 484" fill="none" xmlns="http://www.w3.org/2000/svg">
<mask id="mask0" mask-type="alpha" maskUnits="userSpaceOnUse" x="0" y="8" width="642" height="436">
<path d="M308.973 441.929C481.826 441.929 642 472.416 642 299.443C642 186.069 614.339 138.107 591.017 121.718C576.538 111.544 512.166 17.7561 421.184 8.8222C336.733 0.529595 303.072 56.8664 223.105 92.2279C140.494 128.758 0 153.398 0 241.291C0 414.265 136.12 441.929 308.973 441.929Z" fill="white"/>
</mask>
<g mask="url(#mask0)">
<path d="M308.973 441.929C481.826 441.929 642 472.416 642 299.443C642 186.069 614.339 138.107 591.017 121.718C576.538 111.544 512.166 17.7561 421.184 8.8222C336.733 0.529595 303.072 56.8664 223.105 92.2279C140.494 128.758 0 153.398 0 241.291C0 414.265 136.12 441.929 308.973 441.929Z" fill="#ECF6FF"/>
<path fill-rule="evenodd" clip-rule="evenodd" d="M540.92 353.252H505.515V281.783C505.515 278.748 507.974 276.288 511.007 276.288H535.428C538.461 276.288 540.92 278.748 540.92 281.783V353.252Z" fill="#CCE3FF"/>
<path fill-rule="evenodd" clip-rule="evenodd" d="M587.077 344.004C587.077 347.52 585.822 350.744 583.732 353.251H561.53C559.44 350.744 558.185 347.52 558.185 344.004C558.185 336.018 564.654 329.545 572.633 329.545C580.608 329.545 587.077 336.018 587.077 344.004Z" fill="#DCEEFF"/>
<path fill-rule="evenodd" clip-rule="evenodd" d="M567.641 333.753H577.621V325.236H567.641V333.753Z" fill="#DCEEFF"/>
<path fill-rule="evenodd" clip-rule="evenodd" d="M565.014 325.236H580.248V320.82H565.014V325.236Z" fill="#DCEEFF"/>
<path fill-rule="evenodd" clip-rule="evenodd" d="M566.744 353.252H545.423L556.084 336.568L566.744 353.252Z" fill="#B6D4FF"/>
<path fill-rule="evenodd" clip-rule="evenodd" d="M505.514 343.885H540.92V302.026H505.514V343.885Z" fill="#B6D4FF"/>
<path fill-rule="evenodd" clip-rule="evenodd" d="M510.663 350.418H522.81V347.579H510.663V350.418Z" fill="#B6D4FF"/>
<path fill-rule="evenodd" clip-rule="evenodd" d="M505.514 284.848H540.92V283.89H505.514V284.848Z" fill="#B6D4FF"/>
<path d="M616.269 431.951V456.426" stroke="#CCE3FF" stroke-width="11"/>
<path d="M577.501 431.951V456.426" stroke="#CCE3FF" stroke-width="11"/>
<path d="M408.565 431.951V456.426" stroke="#CCE3FF" stroke-width="11"/>
<path d="M369.797 431.951V456.426" stroke="#CCE3FF" stroke-width="11"/>
<path fill-rule="evenodd" clip-rule="evenodd" d="M352.41 431.952H560.429V353.252H352.41V431.952Z" fill="#DCEEFF"/>
<path fill-rule="evenodd" clip-rule="evenodd" d="M364.386 423.179H451.166V361.986H364.386V423.179Z" fill="#CCE3FF"/>
<path fill-rule="evenodd" clip-rule="evenodd" d="M461.672 423.179H548.452V361.986H461.672V423.179Z" fill="#CCE3FF"/>
<path fill-rule="evenodd" clip-rule="evenodd" d="M560.43 431.952H633.341V353.252H560.43V431.952Z" fill="#B6D4FF"/>
<path fill-rule="evenodd" clip-rule="evenodd" d="M403.787 334.03V334.03C403.787 337.568 406.653 340.437 410.189 340.437H467.792V327.622H410.189C406.653 327.622 403.787 330.491 403.787 334.03Z" fill="#CCE3FF"/>
<path fill-rule="evenodd" clip-rule="evenodd" d="M442.53 334.03V334.03C442.53 336.078 444.189 337.739 446.236 337.739H467.638C467.723 337.739 467.792 337.67 467.792 337.585V330.474C467.792 330.389 467.723 330.321 467.638 330.321H446.236C444.189 330.321 442.53 331.981 442.53 334.03Z" fill="#DCEEFF"/>
<path fill-rule="evenodd" clip-rule="evenodd" d="M395.747 340.437V353.252H458.62C462.156 353.252 465.023 350.383 465.023 346.845C465.023 343.306 462.156 340.437 458.62 340.437H395.747Z" fill="#CCE3FF"/>
<path fill-rule="evenodd" clip-rule="evenodd" d="M395.747 343.171V350.518H421.598C423.626 350.518 425.269 348.874 425.269 346.845C425.269 344.815 423.626 343.171 421.598 343.171H395.747Z" fill="#DCEEFF"/>
<path fill-rule="evenodd" clip-rule="evenodd" d="M425.571 361.986C425.571 366.66 421.785 370.45 417.114 370.45H398.439C393.768 370.45 389.982 366.66 389.982 361.986H425.571ZM522.858 361.986C522.858 366.66 519.071 370.45 514.4 370.45H495.725C491.054 370.45 487.267 366.66 487.267 361.986H522.858Z" fill="#B6D4FF"/>
<path d="M143.085 201.149V320.524" stroke="#B6D4FF" stroke-width="4.5"/>
<path d="M203.441 201.149V320.524" stroke="#B6D4FF" stroke-width="4.5"/>
<path d="M87.395 201.149V320.524" stroke="#B6D4FF" stroke-width="4.5"/>
<path fill-rule="evenodd" clip-rule="evenodd" d="M256.387 323.431H262.127V198.242H256.387V323.431Z" fill="#B6D4FF"/>
<path fill-rule="evenodd" clip-rule="evenodd" d="M82.3585 323.431H258.92V198.242H82.3585V323.431ZM87.7374 318.042H253.541V203.631H87.7374V318.042Z" fill="#DCEEFF"/>
<path fill-rule="evenodd" clip-rule="evenodd" d="M77.201 329.199H249.182V323.431H77.201V329.199Z" fill="#CCE3FF"/>
<path fill-rule="evenodd" clip-rule="evenodd" d="M249.181 329.199H263.593V323.431H249.181V329.199Z" fill="#B6D4FF"/>
<path d="M140.461 199.843V321.831" stroke="#DCEEFF" stroke-width="4"/>
<path d="M200.817 199.843V321.831" stroke="#DCEEFF" stroke-width="4"/>
<path d="M85.356 260.837H254.145" stroke="#DCEEFF" stroke-width="4"/>
<path fill-rule="evenodd" clip-rule="evenodd" d="M106.188 353.282C106.188 299.566 78.4896 248.613 78.4896 248.613H69.0153V353.282H106.188Z" fill="#CCE3FF"/>
<path fill-rule="evenodd" clip-rule="evenodd" d="M106.188 185.091C106.188 217.69 78.4896 248.613 78.4896 248.613H69.0153V185.091H106.188Z" fill="#CCE3FF"/>
<path fill-rule="evenodd" clip-rule="evenodd" d="M82.527 253.192L65.562 253.929V244.864L82.527 245.601V253.192Z" fill="#ECF6FF"/>
<path fill-rule="evenodd" clip-rule="evenodd" d="M235.593 353.282C235.593 299.566 262.192 248.613 262.192 248.613H271.292V353.282H235.593Z" fill="#CCE3FF"/>
<path fill-rule="evenodd" clip-rule="evenodd" d="M235.593 185.091C235.593 217.69 262.192 248.613 262.192 248.613H271.292V185.091H235.593Z" fill="#CCE3FF"/>
<path fill-rule="evenodd" clip-rule="evenodd" d="M258.033 253.192L273.887 253.929V244.863L258.033 245.601V253.192Z" fill="#ECF6FF"/>
<path fill-rule="evenodd" clip-rule="evenodd" d="M53.402 189.848H285.529V185.091H53.402V189.848Z" fill="#CCE3FF"/>
<path fill-rule="evenodd" clip-rule="evenodd" d="M180.431 314.942C178.596 314.942 177.095 313.438 177.095 311.6V281.869C177.095 280.032 178.596 278.527 180.431 278.527C182.265 278.527 183.766 280.032 183.766 281.869V311.6C183.766 313.438 182.265 314.942 180.431 314.942Z" fill="#CCE3FF"/>
<path fill-rule="evenodd" clip-rule="evenodd" d="M171.856 294.918H179.486C180.473 294.918 181.282 294.108 181.282 293.119V293.029C181.282 292.04 180.473 291.231 179.486 291.231H171.856C170.869 291.231 170.061 292.04 170.061 293.029V293.119C170.061 294.108 170.869 294.918 171.856 294.918Z" fill="#CCE3FF"/>
<path fill-rule="evenodd" clip-rule="evenodd" d="M172.239 294.918H172.239C171.041 294.918 170.061 293.935 170.061 292.735V286.433C170.061 285.233 171.041 284.25 172.239 284.25H172.239C173.437 284.25 174.417 285.233 174.417 286.433V292.735C174.417 293.935 173.437 294.918 172.239 294.918ZM189.53 304.767H182.375C181.388 304.767 180.58 303.958 180.58 302.969V301.885C180.58 300.895 181.388 300.086 182.375 300.086H189.53C190.517 300.086 191.325 300.895 191.325 301.885V302.969C191.325 303.958 190.517 304.767 189.53 304.767Z" fill="#CCE3FF"/>
<path fill-rule="evenodd" clip-rule="evenodd" d="M189.088 304.768H189.391C190.454 304.768 191.325 303.895 191.325 302.829V295.848C191.325 294.782 190.454 293.91 189.391 293.91H189.088C188.024 293.91 187.154 294.782 187.154 295.848V302.829C187.154 303.895 188.024 304.768 189.088 304.768Z" fill="#CCE3FF"/>
<path fill-rule="evenodd" clip-rule="evenodd" d="M171.663 308.602H190.409L188.43 323.401H173.642L171.663 308.602Z" fill="#B6D4FF"/>
<path fill-rule="evenodd" clip-rule="evenodd" d="M212.335 313.313C210.406 316.561 211.47 320.761 214.712 322.695C217.953 324.628 222.145 323.561 224.074 320.313C226.003 317.065 224.94 312.865 221.698 310.932C218.457 308.999 214.265 310.065 212.335 313.313Z" fill="#B6D4FF"/>
<path fill-rule="evenodd" clip-rule="evenodd" d="M214.631 307.62C215.398 309.874 217.854 311.075 217.854 311.075C217.854 311.075 219.066 308.622 218.299 306.367C217.532 304.113 215.077 302.911 215.077 302.911C215.077 302.911 213.864 305.365 214.631 307.62Z" fill="#B6D4FF"/>
<path fill-rule="evenodd" clip-rule="evenodd" d="M58.962 187.47L53.403 193.04L47.843 187.47L53.403 181.9L58.962 187.47Z" fill="#CCE3FF"/>
<path fill-rule="evenodd" clip-rule="evenodd" d="M291.089 188.045L285.53 193.616L279.971 188.045L285.53 182.475L291.089 188.045Z" fill="#CCE3FF"/>
<path d="M120.352 470.752L135.631 280.764" stroke="#CCE3FF" stroke-width="4.5"/>
<path d="M197.179 470.752L181.9 280.764" stroke="#CCE3FF" stroke-width="4.5"/>
<path d="M125.643 288.825H190.147" stroke="#CCE3FF" stroke-width="4.5"/>
<path d="M121.263 330.42H194.526" stroke="#CCE3FF" stroke-width="4.5"/>
<path d="M117.806 380.26H197.984" stroke="#CCE3FF" stroke-width="4.5"/>
<path d="M111.919 425.228H203.871" stroke="#CCE3FF" stroke-width="4.5"/>
<path fill-rule="evenodd" clip-rule="evenodd" d="M171.832 364.357H150.639C149.679 364.357 148.9 363.577 148.9 362.614V329.204C148.9 328.242 149.679 327.462 150.639 327.462H171.832C172.792 327.462 173.571 328.242 173.571 329.204V362.614C173.571 363.577 172.792 364.357 171.832 364.357ZM157.675 410.825H136.482C135.522 410.825 134.743 410.045 134.743 409.082V378.905C134.743 377.942 135.522 377.162 136.482 377.162H157.675C158.635 377.162 159.413 377.942 159.413 378.905V409.082C159.413 410.045 158.635 410.825 157.675 410.825Z" fill="#CCE3FF"/>
<path d="M114.886 470.752L130.164 280.764" stroke="#DCEEFF" stroke-width="7.5"/>
<path d="M191.712 470.752L176.433 280.764" stroke="#DCEEFF" stroke-width="7.5"/>
<path d="M121.087 288.825H185.591" stroke="#DCEEFF" stroke-width="4.5"/>
<path d="M116.708 330.42H189.97" stroke="#DCEEFF" stroke-width="4.5"/>
<path d="M113.25 380.26H193.428" stroke="#DCEEFF" stroke-width="4.5"/>
<path d="M107.363 425.228H199.315" stroke="#DCEEFF" stroke-width="4.5"/>
<path fill-rule="evenodd" clip-rule="evenodd" d="M153.9 400.58H132.967C131.935 400.58 131.099 399.741 131.099 398.706V379.036C131.099 378.001 131.935 377.162 132.967 377.162H155.769V398.706C155.769 399.741 154.932 400.58 153.9 400.58Z" fill="#ECF6FF"/>
<path fill-rule="evenodd" clip-rule="evenodd" d="M131.099 396.585H155.769V390.385H131.099V396.585Z" fill="#DCEEFF"/>
<path fill-rule="evenodd" clip-rule="evenodd" d="M157.59 377.163C156.585 377.163 155.768 377.979 155.768 378.99V377.163H157.59ZM168.057 353.128H147.125C146.093 353.128 145.256 352.289 145.256 351.254V329.335C145.256 328.3 146.093 327.462 147.125 327.462H169.926V351.254C169.926 352.289 169.089 353.128 168.057 353.128Z" fill="#ECF6FF"/>
<path fill-rule="evenodd" clip-rule="evenodd" d="M145.256 348.75H169.926V345.91H145.256V348.75Z" fill="#DCEEFF"/>
<path fill-rule="evenodd" clip-rule="evenodd" d="M145.256 343.136H169.926V340.295H145.256V343.136Z" fill="#DCEEFF"/>
<path fill-rule="evenodd" clip-rule="evenodd" d="M171.748 327.463C170.742 327.463 169.925 328.357 169.925 329.465V327.463H171.748Z" fill="#ECF6FF"/>
<path fill-rule="evenodd" clip-rule="evenodd" d="M327.171 202.319C327.171 202.319 336.098 213.947 323.977 217.034L327.171 202.319Z" fill="#19141E"/>
<path d="M310.537 242.294L310.24 232.04C310.24 232.04 323.016 233.032 325.683 231.648C325.683 231.648 327.709 219.188 325.782 210.354L315.291 200.886L298.36 202.132L296.439 217.449C295.553 214.837 287.488 211.562 285.552 217.422C283.055 224.979 297.445 228.951 297.445 228.951L295.941 242.417" fill="#E576C6"/>
<path d="M290.572 201.548L286.426 197.326L288.69 195.118L292.476 198.973L292.844 198.797L291.868 193.365L294.986 192.808L295.769 197.161C303.32 192.553 309.284 196.145 309.284 196.145C309.284 196.145 311.691 186.054 318.353 186.083C327.845 186.124 329.31 200.782 329.31 200.782C329.31 200.782 334.093 192.81 336.814 193.95C339.534 195.09 339.609 221.568 301.844 208.664C301.844 208.664 305.091 215.966 296.439 217.449C296.439 217.449 294.93 214.333 289.816 214.156C289.816 214.156 281.951 210.958 290.572 201.548Z" fill="#19141E"/>
<path opacity="0.4" fill-rule="evenodd" clip-rule="evenodd" d="M310.24 232.04L301.835 230.239L310.199 235.887L310.24 232.04Z" fill="black"/>
<path fill-rule="evenodd" clip-rule="evenodd" d="M317.333 216.612L320.237 223.71L316.756 223.754L317.333 216.612Z" fill="#2437A8"/>
<path fill-rule="evenodd" clip-rule="evenodd" d="M313.861 217.301C314.034 218.257 313.399 219.172 312.443 219.345C311.487 219.518 310.572 218.883 310.399 217.927C310.226 216.972 310.861 216.057 311.817 215.884C312.773 215.711 313.688 216.345 313.861 217.301ZM322.996 217.301C323.169 218.257 322.534 219.172 321.578 219.345C320.622 219.518 319.706 218.883 319.534 217.927C319.361 216.972 319.995 216.057 320.952 215.884C321.908 215.711 322.823 216.345 322.996 217.301Z" fill="#0D0B6D"/>
<path fill-rule="evenodd" clip-rule="evenodd" d="M312.834 224.875C312.834 224.875 313.952 226.905 316.367 226.856L312.834 224.875Z" fill="white"/>
<path d="M312.834 224.875C312.834 224.875 313.952 226.905 316.367 226.856" stroke="#252535"/>
<path d="M295.447 234.146C295.447 234.146 295.962 234.556 271.024 226.578C246.086 218.599 227.914 232.888 194.595 237.212C175.055 239.962 160.413 243.225 99.8517 217.519C99.8517 217.519 120.515 238.987 100.923 254.944C81.3312 270.901 99.1411 293.946 122.297 302.812C145.453 311.677 145.453 347.135 145.453 347.135C145.453 347.135 214.917 334.726 232.731 377.283L307.411 240.833C307.411 240.833 305.262 236.662 295.447 234.146Z" fill="#A47EF1"/>
<path opacity="0.1" d="M144.422 344.321C144.134 340.314 143.552 335.91 141.969 330.865C191.279 299.269 246.285 269.068 306.989 240.263C248.95 281.998 194.76 316.684 144.422 344.321Z" fill="black"/>
<path d="M306.038 244.27C306.038 244.27 293.101 234.514 273.438 244.27C253.776 254.027 196.894 255.806 196.894 255.806C196.894 255.806 163.77 255.806 113.066 237.086C109.057 226.519 99.8526 217.519 99.8526 217.519C159.773 244.32 201.347 243.383 201.347 243.383C201.347 243.383 252.976 223.866 277.898 231.851C302.821 239.836 305.938 238.321 305.938 238.321C306.756 240.646 306.381 242.417 306.038 244.27Z" fill="#9371D8"/>
<path opacity="0.1" d="M281.699 420.434L282.152 421.838L288.516 419.968L288.063 419.031L281.699 420.434Z" fill="black"/>
<path opacity="0.1" d="M323.738 420.385L323.285 422.188L316.921 419.935V419.031L323.738 420.385Z" fill="black"/>
<path opacity="0.1" d="M325.443 315.537C325.443 315.537 299.348 325.01 279.427 315.537H325.443Z" fill="black"/>
<path opacity="0.1" d="M327.147 255.897L323.171 257.84L327.147 262.913V255.897Z" fill="black"/>
<path opacity="0.1" d="M281.282 256.599L283.972 259.738L282.18 262.563L281.132 259.423L281.282 256.599Z" fill="black"/>
<path opacity="0.1" d="M183.419 270.281L119.224 285.403L142.406 295.189L183.419 270.281Z" fill="black"/>
<path d="M272.614 314.727C272.614 314.727 273.531 316.67 274.353 319.025C275.175 321.38 274.833 322.821 276.612 326.52C278.631 330.718 275.02 328.987 273.725 327.154C272.715 325.724 272.83 323.79 271.519 322.923C271.081 323.626 270.077 324.63 269.518 330.688C269.417 331.774 269.908 335.299 269.908 335.299C269.919 336.355 270.054 338.557 268.855 338.893C268.558 338.976 268.171 338.647 268.171 338.647C268.171 338.647 268.288 340.025 267.062 340.3C266.58 340.407 265.623 337.432 265.623 337.432C265.623 337.432 265.478 338.943 264.562 339.111C264.304 339.158 261.249 330.538 261.249 330.538L261.433 332.485L261.838 334.479C261.838 334.479 261.806 335.552 260.946 335.742C260.604 335.818 259.949 334.027 259.335 331.921C258.379 328.644 258.399 326.181 258.68 323.732C259.019 320.772 259.065 318.933 260.379 315.304L272.614 314.727ZM332.827 310.695C333.729 308.638 338.47 308.06 338.47 308.06C338.47 308.06 346.036 316.502 346.713 317.791C347.39 319.08 348.643 325.462 348.583 326.723C348.523 327.984 344.621 333.65 344.621 333.65C342.2 333.075 343.782 330.149 343.782 330.149C343.782 330.149 341.613 331.926 340.712 331.896C332.221 331.616 332.676 327.449 332.877 326.927C333.328 325.755 335.594 327.095 335.594 327.095C335.594 327.095 330.246 316.578 332.827 310.695Z" fill="#E576C6"/>
<path opacity="0.147" d="M337.328 315.661C337.328 315.661 338.519 320.023 342.608 321.382C344.038 321.857 343.681 327.468 347.185 326.797" stroke="black" stroke-width="0.75"/>
<path d="M346.144 311.027L330.825 319.524L327.059 312.255L327.154 302.551H304.799L302.321 302.547H280.343L280.016 290.599L276.028 314.567L258.52 315.391C258.52 315.391 258.175 290.43 261.508 275.99C263.631 266.791 274 249.699 283.821 243.823C285.39 242.882 287.474 242.223 289.801 241.767C290.649 241.598 291.529 241.458 292.427 241.342C301.311 240.195 312.064 241.346 312.064 241.346C312.916 241.655 313.715 241.96 314.461 242.269C314.915 242.454 315.348 242.64 315.764 242.826C316.334 243.082 316.869 243.335 317.372 243.591L317.4 243.605C324.524 247.208 325.542 250.888 327.787 255.516C330.667 261.438 333.648 279.628 333.648 279.628L346.144 311.027Z" fill="#0D0B6D"/>
<path d="M312.308 242.303L291.713 241.282L294.402 234.146L303.877 234.598L307.623 240.78L311.431 234.96L313.955 235.079L314.399 240.131C314.496 241.231 313.683 242.201 312.582 242.298C312.491 242.306 312.4 242.308 312.308 242.303Z" fill="#A47EF1"/>
<path d="M296.853 241.137L308.545 257.287L313.671 241.823" fill="#A47EF1"/>
<path opacity="0.201" d="M279.696 293.451L282.008 276.835L289.168 265.738" stroke="black" stroke-width="1.25"/>
<path opacity="0.203" d="M327.154 302.55L328.684 276.181" stroke="black" stroke-width="1.25"/>
<path d="M314.314 239.37C314.314 239.37 307.51 241.704 306.38 244.319C311.854 242.228 312.742 242.977 313.671 242.214C314.291 241.706 314.505 240.758 314.314 239.37Z" fill="#9371D8"/>
<path d="M286.402 238.182C285.994 237.34 285.994 236.462 286.402 235.549C286.402 235.549 307.87 244.32 306.298 244.32C304.725 244.32 301.181 242.215 289.114 241.137C277.048 240.058 287.145 239.712 286.402 238.182Z" fill="#9371D8"/>
<path d="M341.104 460.972L343.551 468.837C343.551 468.837 362.659 461.019 372.489 463.985L339.366 483.116L330.743 461.518L341.104 460.972ZM251.02 437.64L240.305 447.436C240.305 447.436 241.897 453.954 242.568 460.102C243.539 469.001 242.943 477.034 242.943 477.034L224.367 444.707L247.298 427.732L251.02 437.64Z" fill="#0D0B6D"/>
<path d="M247.141 427.723L248.319 440.137L240.305 447.437L233.943 437.681L247.141 427.723Z" fill="#E576C6"/>
<path d="M322.125 337.136L350.7 464.501L342.829 466.502H342.826L333.663 468.836L333.618 468.847L330.446 469.654C330.446 469.654 315.888 423.871 303.072 383.028C299.953 388.09 296.44 393.092 292.487 397.959C264.403 432.531 247.219 447.309 247.219 447.309L244.663 443.469L244.656 443.459L238.514 434.232L234.072 427.56C234.072 427.56 272.53 391.373 289.834 340.469C286.792 330.558 284.684 323.483 284.142 321.219C281.041 308.311 280.978 302.396 280.978 301.924H314.227H327.56C327.074 310.337 325.733 322.847 322.125 337.136L322.125 337.136Z" fill="#0D0B6D"/>
<path fill-rule="evenodd" clip-rule="evenodd" d="M350.7 464.501L342.829 466.502H342.826L333.663 468.836L333.618 468.847L330.446 469.654C330.446 469.654 315.888 423.871 303.072 383.027C298.07 367.083 293.336 351.893 289.834 340.469C286.792 330.558 284.684 323.483 284.142 321.219C281.041 308.311 280.978 302.396 280.978 301.924H314.227L322.125 337.136L350.7 464.501Z" fill="white" fill-opacity="0.1"/>
<path fill-rule="evenodd" clip-rule="evenodd" d="M637.351 182.142H417C417 182.142 431.319 127 461.026 127C479.696 127 487.203 146.496 504.542 146.496C521.879 146.496 543.909 97.9999 572.272 97.9999C616.637 97.9999 637.351 182.142 637.351 182.142ZM329.68 134.096H198C198 134.096 210.405 115.99 220.604 115.706C232.775 115.368 238.256 128.763 249.944 128.763C261.635 128.763 269.462 95.9999 291.101 95.9999C314.2 95.9999 329.68 134.096 329.68 134.096ZM128 68.9199C128 68.9199 139.669 37.6274 183.706 36.2058C227.743 34.7847 248.431 2.4565 285.722 1.03533C323.012 -0.385831 337.044 41.402 386.242 39.2701C435.439 37.1382 455.676 68.9199 455.676 68.9199H128Z" fill="white"/>
</g>
</svg>
