<svg fill="none" height="291" viewBox="0 0 276 291" width="276" xmlns="http://www.w3.org/2000/svg" xmlns:xlink="http://www.w3.org/1999/xlink"><clipPath id="a"><path d="m197.047 222.182h51.9062v51.8341h-51.9062z"/></clipPath><path d="m221.546 251.759-166.9996-57" stroke="#0078fa" stroke-width="9"/><path d="m225.171 102.441-166.9997 92" stroke="#0078fa" stroke-width="9"/><path d="m221.639 102.789-167.0002-52.9998" stroke="#0078fa" stroke-width="9"/><path d="m0 24.5c0-13.2548 10.7452-24 24-24h58c13.2548 0 24 10.7452 24 24v37c0 13.2548-10.7452 24-24 24h-58c-13.2548 0-24-10.7452-24-24z" fill="#e5f1fe"/><g fill="#0078fa"><path d="m72.4648 23.6616h-6.4883v41.0354h6.4883z"/><path d="m44.3489 36.6202h6.4883v28.0768h-6.4883z"/><path d="m33.5352 43.0994h6.4882v21.5976h-6.4882z"/><path d="m55.1627 30.1409h6.4883v34.5561h-6.4883z"/></g><path d="m0 177.5c0-13.255 10.7452-24 24-24h58c13.2548 0 24 10.745 24 24v37c0 13.255-10.7452 24-24 24h-58c-13.2548 0-24-10.745-24-24z" fill="#e5f1fe"/><path d="m63.8139 200.2c-1.7728 1.807-3.9961 3.171-6.4882 3.912v5.681l-4.3256-.864-4.3255.864v-5.681c-2.4922-.741-4.7154-2.105-6.4882-3.912v17.497l10.8137-2.16 10.8138 2.16z" fill="#0078fa"/><path d="m53.0001 198.259c-4.7778 0-8.651-3.868-8.651-8.639s3.8732-8.639 8.651-8.639c4.7779 0 8.6511 3.868 8.6511 8.639s-3.8732 8.639-8.6511 8.639zm0 6.479c8.3613 0 15.1394-6.769 15.1394-15.118 0-8.35-6.7781-15.119-15.1394-15.119-8.3612 0-15.1393 6.769-15.1393 15.119 0 8.349 6.7781 15.118 15.1393 15.118z" fill="#0078fa"/><path d="m57.3257 189.62c0 2.385-1.9366 4.319-4.3256 4.319-2.3889 0-4.3255-1.934-4.3255-4.319 0-2.386 1.9366-4.32 4.3255-4.32 2.389 0 4.3256 1.934 4.3256 4.32z" fill="#0078fa"/><path d="m170 80.5c0-13.2548 10.745-24 24-24h58c13.255 0 24 10.7452 24 24v37c0 13.255-10.745 24-24 24h-58c-13.255 0-24-10.745-24-24z" fill="#e5f1fe"/><path d="m210.024 86.1405v-2.1598c0-3.5784 2.904-6.4792 6.488-6.4792h12.976c3.584 0 6.489 2.9008 6.489 6.4792v2.1598h2.162c3.584 0 6.489 2.9008 6.489 6.4792v19.4383c0 3.578-2.905 6.479-6.489 6.479h-30.278c-3.584 0-6.488-2.901-6.488-6.479v-19.4383c0-3.5784 2.904-6.4792 6.488-6.4792zm6.488-2.1598v2.1598h12.976v-2.1598zm-8.651 8.639v4.3196h30.278v-4.3196zm0 10.7993v8.639h30.278v-8.639h-10.813v2.159h-8.651v-2.159z" fill="#0078fa"/><path d="m170 229.5c0-13.255 10.745-24 24-24h58c13.255 0 24 10.745 24 24v37c0 13.255-10.745 24-24 24h-58c-13.255 0-24-10.745-24-24z" fill="#e5f1fe"/><g clip-path="url(#a)" fill="#0078fa"><path d="m207.861 247.114v16.103c0 2.386 6.778 4.32 15.139 4.32s15.139-1.934 15.139-4.32v-16.482l-6.488 2.955v10.427c-2.019.537-5.062.941-8.651.941s-6.632-.404-8.651-.941v-10.048z"/><path d="m199.249 239.624c-1.714.78-1.714 3.211 0 3.992l21.017 9.572c1.737.791 3.732.791 5.469 0l14.567-6.635v8.025h6.489v-10.981c1.674-.799 1.661-3.199-.04-3.973l-21.016-9.572c-1.737-.791-3.732-.791-5.469 0zm23.751 7.576-12.252-5.58 12.252-5.58 12.253 5.58z"/></g></svg>