<svg fill="none" height="389" viewBox="0 0 575 389" width="575" xmlns="http://www.w3.org/2000/svg" xmlns:xlink="http://www.w3.org/1999/xlink"><filter id="a" color-interpolation-filters="sRGB" filterUnits="userSpaceOnUse" height="200" width="184" x="91" y="40"><feFlood flood-opacity="0" result="BackgroundImageFix"/><feColorMatrix in="SourceAlpha" type="matrix" values="0 0 0 0 0 0 0 0 0 0 0 0 0 0 0 0 0 0 127 0"/><feOffset dy="8"/><feGaussianBlur stdDeviation="18"/><feColorMatrix type="matrix" values="0 0 0 0 0 0 0 0 0 0 0 0 0 0 0 0 0 0 0.14 0"/><feBlend in2="BackgroundImageFix" mode="normal" result="effect1_dropShadow"/><feBlend in="SourceGraphic" in2="effect1_dropShadow" mode="normal" result="shape"/></filter><filter id="b" color-interpolation-filters="sRGB" filterUnits="userSpaceOnUse" height="165.714" width="154" x="224" y="88"><feFlood flood-opacity="0" result="BackgroundImageFix"/><feColorMatrix in="SourceAlpha" type="matrix" values="0 0 0 0 0 0 0 0 0 0 0 0 0 0 0 0 0 0 127 0"/><feOffset dy="8"/><feGaussianBlur stdDeviation="18"/><feColorMatrix type="matrix" values="0 0 0 0 0 0 0 0 0 0 0 0 0 0 0 0 0 0 0.14 0"/><feBlend in2="BackgroundImageFix" mode="normal" result="effect1_dropShadow"/><feBlend in="SourceGraphic" in2="effect1_dropShadow" mode="normal" result="shape"/></filter><filter id="c" color-interpolation-filters="sRGB" filterUnits="userSpaceOnUse" height="179.714" width="166.25" x="332" y="60"><feFlood flood-opacity="0" result="BackgroundImageFix"/><feColorMatrix in="SourceAlpha" type="matrix" values="0 0 0 0 0 0 0 0 0 0 0 0 0 0 0 0 0 0 127 0"/><feOffset dy="8"/><feGaussianBlur stdDeviation="18"/><feColorMatrix type="matrix" values="0 0 0 0 0 0 0 0 0 0 0 0 0 0 0 0 0 0 0.14 0"/><feBlend in2="BackgroundImageFix" mode="normal" result="effect1_dropShadow"/><feBlend in="SourceGraphic" in2="effect1_dropShadow" mode="normal" result="shape"/></filter><clipPath id="d"><rect height="389" rx="32" width="575"/></clipPath><clipPath id="e"><rect height="51" rx="25.5" width="51" x="158" y="83"/></clipPath><clipPath id="f"><path d="m157 108.357c0-13.4522 10.905-24.357 24.357-24.357h2.524c13.451 0 24.356 10.9048 24.356 24.357 0 13.451-10.905 24.356-24.356 24.356h-2.524c-13.452 0-24.357-10.905-24.357-24.356z"/></clipPath><clipPath id="g"><path d="m159.098 167.119h47.8055v9.76164h-47.8055z"/></clipPath><clipPath id="h"><path d="m170.903 168h36v8h-36z"/></clipPath><clipPath id="i"><rect height="37.3393" rx="18.6696" width="37.3393" x="282.696" y="126.982"/></clipPath><clipPath id="j"><path d="m281.964 145.547c0-9.849 7.984-17.833 17.832-17.833h1.848c9.849 0 17.833 7.984 17.833 17.833 0 9.849-7.984 17.832-17.833 17.832h-1.848c-9.848 0-17.832-7.983-17.832-17.832z"/></clipPath><clipPath id="k"><path d="m307.589 127.714h10.25v10.25h-10.25z"/></clipPath><clipPath id="l"><path d="m307.589 127.714h10.25v10.25h-10.25z"/></clipPath><clipPath id="m"><path d="m283.5 188.569h35.0004v7.14692h-35.0004z"/></clipPath><clipPath id="n"><path d="m292.144 189.214h26.3571v5.85714h-26.3571z"/></clipPath><clipPath id="o"><rect height="42.9174" rx="21.4587" width="42.9174" x="394.087" y="100.623"/></clipPath><clipPath id="p"><path d="m422.698 101.464h11.7812v11.7812h-11.7812z"/></clipPath><clipPath id="q"><path d="m422.698 101.464h11.7812v11.7812h-11.7812z"/></clipPath><clipPath id="r"><path d="m395.011 171.411h40.2291v8.2146h-40.2291z"/></clipPath><clipPath id="s"><path d="m404.945 172.152h30.2946v6.73214h-30.2946z"/></clipPath><g clip-path="url(#d)"><rect fill="#e5f1fe" height="389" rx="32" width="575"/><path d="m0 304.497 575-.497v85h-575z" fill="#83beff"/><g clip-rule="evenodd" fill-rule="evenodd"><path d="m559.751 113.611-26.493-8.782c-1.107-.367-1.712-1.573-1.345-2.679l1.321-3.9872c.367-1.1066 1.573-1.7119 2.68-1.3452l26.493 8.7824c1.107.367 1.712 1.573 1.345 2.679l-1.321 3.987c-.367 1.107-1.573 1.712-2.68 1.345z" fill="#83beff"/><path d="m550.43 103.346s0 0 .339-1.532c.339-1.533.339-1.532.34-1.532l.01.002.027.006c.024.006.059.013.103.024.09.02.221.051.39.091.34.081.833.203 1.46.365 1.252.325 3.036.815 5.175 1.48 4.272 1.327 9.985 3.357 15.711 6.162 5.714 2.798 11.523 6.408 15.922 10.926 4.411 4.532 7.484 10.066 7.484 16.649h-3.139c0-5.522-2.558-10.313-6.594-14.459-4.049-4.159-9.504-7.58-15.053-10.298-5.537-2.712-11.087-4.686-15.262-5.983-2.085-.648-3.821-1.125-5.033-1.439-.605-.157-1.079-.274-1.4-.35-.161-.039-.283-.067-.363-.086-.041-.009-.071-.016-.091-.02l-.021-.005z" fill="#e5f1fe"/><path d="m562.709 110.918-29.043-9.628c-2.599-.862-4.021-3.6934-3.159-6.2925l.261-.7871c.861-2.5991 3.693-4.0209 6.292-3.1592l29.044 9.6278c2.599.861 4.02 3.693 3.159 6.292l-.261.787c-.862 2.6-3.693 4.021-6.293 3.16z" fill="#83beff"/><path d="m158.872 301.767v-.003l-3.789-29.359h45.939l3.79 29.362z" fill="#83beff"/><path d="m113.02 302.889c0 6.794-5.507 12.302-12.302 12.302-6.7941 0-12.302-5.508-12.302-12.302 0-6.795 5.5079-12.303 12.302-12.303 6.795 0 12.302 5.508 12.302 12.303z" fill="#e5f1fe"/><path d="m208.739 302.889c0 6.794-5.507 12.302-12.302 12.302-6.794 0-12.302-5.508-12.302-12.302 0-6.795 5.508-12.303 12.302-12.303 6.795 0 12.302 5.508 12.302 12.303z" fill="#e5f1fe"/><path d="m165.696 301.768h-134.8032c-8.1769 0-15.0835-6.073-16.1297-14.182l-1.9438-15.063 26.0225-.117-.0023-.011-7.0677-48h105.9562l17.22 47.638.136.373z" fill="#83beff"/><path d="m165.696 301.768h-31.741l-2.981-8.246-1.241-3.436-6.39-17.68-17.354-48.011h31.739l17.22 47.638.136.373z" fill="#e5f1fe"/><path d="m112.957 272.395h-33.2182l-7.0679-48h22.9341l6.965 19.27 2.4 6.637 5.685 15.726.597 1.647z" fill="#e5f1fe"/><path d="m174.559 301.765h-52.727v-29.359h31.746c9.831 0 18.134 7.3 19.392 17.051z" fill="#83beff"/><path d="m183.073 272.406v29.359h-8.514l-3.789-29.359z" fill="#83beff"/><path d="m174.559 301.767v-.003l-3.789-29.359h31.739c8.121 0 14.978 6.029 16.018 14.083l1.971 15.279z" fill="#83beff"/><path d="m38.1484 302.018c0-8.182 6.9573-14.815 15.5396-14.815 8.5822 0 15.5394 6.633 15.5394 14.815z" fill="#e5f1fe"/><path d="m133.867 302.018c0-8.182 6.957-14.815 15.54-14.815 8.582 0 15.539 6.633 15.539 14.815z" fill="#e5f1fe"/><path d="m161.708 302.889c0 6.794-5.508 12.302-12.302 12.302-6.795 0-12.302-5.508-12.302-12.302 0-6.795 5.507-12.303 12.302-12.303 6.794 0 12.302 5.508 12.302 12.303z" fill="#e5f1fe"/><path d="m215.155 286.932c0 2.929-1.935 5.304-4.321 5.304-2.387 0-4.322-2.375-4.322-5.304s1.935-5.304 4.322-5.304c2.386 0 4.321 2.375 4.321 5.304z" fill="#e5f1fe"/><path d="m187.856 286.932c0 2.929-1.934 5.304-4.321 5.304s-4.322-2.375-4.322-5.304 1.935-5.304 4.322-5.304 4.321 2.375 4.321 5.304z" fill="#e5f1fe"/><path d="m65.9892 302.889c0 6.794-5.5076 12.302-12.3021 12.302s-12.3023-5.508-12.3023-12.302c0-6.795 5.5078-12.303 12.3023-12.303s12.3021 5.508 12.3021 12.303z" fill="#e5f1fe"/><path d="m193.316 289.224h8.995v-4.583h-8.995z" fill="#83beff"/><path d="m85.449 272.395v.005h-23.3987l-7.0679-48.005h23.3966z" fill="#e5f1fe"/><path d="m53.2663 272.395h-23.3987l-16.3422.011 19.1531-48.011h13.5177z" fill="#e5f1fe"/><path d="m155.635 271.781.001.003.135.37-1.376.502-.136-.372v-.002l-17.22-47.638 1.377-.498z" fill="#83beff"/><path d="m138.945 281.023h-125.069v-.627h125.069z" fill="#e5f1fe"/><path d="m32.1827 223.662h105.2623v1.465h-104.2697l-18.9692 47.55-1.3604-.543z" fill="#83beff"/><path d="m115.438 269.867h-14.292c-3.6979 0-6.6958-2.998-6.6958-6.695 0-3.698 2.9979-6.696 6.6958-6.696h14.292z" fill="#e5f1fe"/><path d="m554.087 303.178c0 6.794-5.508 12.302-12.302 12.302-6.795 0-12.303-5.508-12.303-12.302s5.508-12.302 12.303-12.302c6.794 0 12.302 5.508 12.302 12.302z" fill="#e5f1fe"/><path d="m621.408 302.056h-149.102l-3.775-29.244 26.023-.118-10.41-70.687h101.1l25.416 70.315.136.372z" fill="#83beff"/><path d="m621.408 302.056h-31.741l-2.982-8.246-1.24-3.435-6.39-17.681-25.552-70.687h31.741l25.415 70.315.136.372z" fill="#e5f1fe"/><path d="m568.668 272.684h-33.218l-10.407-70.677h18.078l15.161 41.947 2.4 6.637 5.685 15.726.596 1.647z" fill="#e5f1fe"/><path d="m479.214 302.307c0-8.182 6.957-14.815 15.539-14.815 8.583 0 15.54 6.633 15.54 14.815z" fill="#e5f1fe"/><path d="m566.368 267.963h-6.654c-1.861 0-3.369-1.508-3.369-3.369v-17.591c0-1.861 1.508-3.369 3.369-3.369h6.654z" fill="#e5f1fe"/><path d="m566.368 267.964h4.198v-10.452h-4.198z" fill="#e5f1fe"/><path d="m507.056 303.178c0 6.794-5.508 12.302-12.302 12.302-6.795 0-12.303-5.508-12.303-12.302s5.508-12.302 12.303-12.302c6.794 0 12.302 5.508 12.302 12.302z" fill="#e5f1fe"/><path d="m560.996 243.634v24.329h-.628v-24.329z" fill="#e5f1fe"/><path d="m527.51 272.684h-23.399l-10.407-70.677h23.397z" fill="#e5f1fe"/><path d="m484.901 201.274h100.435l26.011 70.795v.002l.136.372-1.376.503-.135-.372-.001-.001-25.657-69.834h-99.413z" fill="#83beff"/><path d="m594.657 281.313h-125.069v-.628h125.069z" fill="#e5f1fe"/><path d="m408.085 278.149 7.565 35.24h5.005l-7.566-35.24z" fill="#83beff"/><path d="m286.465 278.149h129.536v-5.451h-129.536z" fill="#83beff"/><path d="m388.534 297.891h25.255v-5.452h-25.255z" fill="#83beff"/><path d="m313.229 242.274-5.677 30.424h6.851l5.677-30.424z" fill="#83beff"/><path d="m411.972 242.274-5.677 30.424h6.851l5.677-30.424z" fill="#83beff"/><path d="m385.624 278.149h30.376v-5.451h-30.376z" fill="#83beff"/><path d="m425.656 262.106-1.016 5.452h-6.852l1.018-5.452z" fill="#83beff"/><path d="m418.806 262.106-1.018 5.452h-115.292l1.018-5.452z" fill="#83beff"/><path d="m427.505 252.19-1.015 5.451h-6.852l1.017-5.451z" fill="#83beff"/><path d="m420.655 252.19-1.017 5.451h-115.292l1.017-5.451z" fill="#83beff"/><path d="m422.505 242.274-1.016 5.451h6.85l1.016-5.451z" fill="#83beff"/><path d="m307.215 242.274-1.018 5.451h115.293l1.015-5.451z" fill="#83beff"/><path d="m388.534 278.149-7.565 35.24h5.004l7.565-35.24z" fill="#83beff"/><path d="m308.984 278.149 7.566 35.24h5.004l-7.565-35.24z" fill="#83beff"/><path d="m289.433 297.891h25.255v-5.452h-25.255z" fill="#83beff"/><path d="m289.433 278.149-7.565 35.24h5.005l7.565-35.24z" fill="#83beff"/><path d="m-29.0273 47.585s6.5281-17.4932 31.16473-18.2879c24.63647-.7944 36.21047-18.8666 57.07257-19.66107 20.8621-.79446 28.7123 22.56587 56.236 21.37407 27.523-1.1918 38.845 16.5749 38.845 16.5749z" fill="#83beff"/><path d="m372.911 134.336s14.079-32.448 36.546-32.448c18.221 0 20.255 22.971 36.959 22.404 16.704-.566 25.169-11.057 40.236-11.057 19.012 0 34.712 21.101 34.712 21.101z" fill="#83beff"/><path d="m274.571 25.3712h121.262s-9.954-20.64053-25.271-20.64053c-8.975 0-15.025 7.29743-24.977 7.29743s-20.652-18.31423-37.82-18.31423c-21.374 0-33.194 31.65733-33.194 31.65733z" fill="#83beff"/><path d="m655.623 69.8351h-123.275s8.01-30.8258 24.63-30.8258c10.445 0 14.645 10.8988 24.345 10.8988 9.699 0 22.024-27.1102 37.891-27.1102 24.82 0 36.409 47.0372 36.409 47.0372z" fill="#83beff"/><path d="m116.683 198.759c-1.324-3.965-8.582-3.294-8.583-14.35-.002-16.647 22.924-14.747 24.276-27.29s-13.38-12.243-13.836-22.822c-.456-10.58 10.746-32.409 27.742-32.409 13.402 0 2.302 16.843 13.118 24.376 10.816 7.532 23.168-2.118 29.282 9.727 8.422 16.316-13.113 35.911-10.988 48.418 2.125 12.508 14.748 9.551 15.135 23.294.386 13.743-17.952 16.161-16.224 27.946 1.089 7.428 12.694 4.948 13.303 19.596.515 12.402-39.358 27.748-69.31 2.511-29.9531-25.237 1.14-43.864-3.915-58.997z" fill="#83beff"/><path d="m150.532 167.882v123.558h-1.674v-123.558z" fill="#e5f1fe"/><path d="m167.168 235.583-16.846 16.846-1.183-1.184 16.845-16.846z" fill="#e5f1fe"/><path d="m159.678 198.671-9.146 9.146-1.183-1.184 9.145-9.145z" fill="#e5f1fe"/><path d="m136.369 210.687 13.673 13.672-1.184 1.183-13.672-13.672z" fill="#e5f1fe"/><path d="m143.078 178.547 7.252 7.252-1.184 1.183-7.251-7.251z" fill="#e5f1fe"/><path d="m214.734 233.962c-1.009-3.02-6.539-2.509-6.54-10.929-.001-12.678 17.466-11.231 18.496-20.784 1.031-9.553-10.194-9.324-10.541-17.382-.348-8.057 8.187-24.682 21.137-24.682 10.211 0 1.753 12.828 9.994 18.564 8.241 5.737 17.652-1.612 22.31 7.409 6.417 12.426-9.99 27.349-8.372 36.875 1.619 9.526 11.237 7.274 11.532 17.74.294 10.467-13.678 12.309-12.361 21.284.829 5.658 9.671 3.769 10.135 14.925.393 9.445-29.987 21.132-52.808 1.912-22.821-19.221.869-33.407-2.982-44.932z" fill="#83beff"/><path d="m240.524 210.446v94.102h-1.275v-94.102z" fill="#83beff"/><path d="m253.199 262.007-12.834 12.83-.902-.902 12.835-12.83z" fill="#83beff"/><path d="m247.492 233.895-6.968 6.965-.902-.901 6.968-6.965z" fill="#83beff"/><path d="m229.733 243.045 10.417 10.413-.902.902-10.417-10.413z" fill="#83beff"/><path d="m234.845 218.568 5.525 5.523-.902.901-5.525-5.522z" fill="#83beff"/><path d="m355.724 258.766h3.347v-148.946h-3.347z" fill="#83beff"/><path d="m321.327 113.611-26.494-8.782c-1.106-.367-1.712-1.573-1.345-2.679l1.322-3.9872c.367-1.1066 1.572-1.7119 2.679-1.3452l26.493 8.7824c1.107.367 1.712 1.573 1.345 2.679l-1.321 3.987c-.367 1.107-1.573 1.712-2.679 1.345z" fill="#83beff"/><path d="m350.981 313.989h12.833v-49.364h-12.833z" fill="#83beff"/><path d="m353.701 273.831h7.393v-16.891h-7.393z" fill="#83beff"/><path d="m354.321 113.381h6.153v-7.162h-6.153z" fill="#83beff"/><path d="m312.005 103.346s0 0 .339-1.532c.339-1.533.339-1.532.34-1.532l.01.002.028.006c.023.006.058.013.103.024.089.02.22.051.39.091.339.081.833.203 1.459.365 1.252.325 3.036.815 5.175 1.48 4.272 1.327 9.985 3.357 15.712 6.162 5.714 2.798 11.522 6.408 15.921 10.926 4.411 4.532 7.484 10.066 7.484 16.649h-3.138c0-5.522-2.559-10.313-6.595-14.459-4.049-4.159-9.504-7.58-15.053-10.298-5.536-2.712-11.087-4.686-15.262-5.983-2.085-.648-3.821-1.125-5.032-1.439-.606-.157-1.08-.274-1.401-.35-.16-.039-.282-.067-.363-.086-.041-.009-.071-.016-.09-.02l-.022-.005z" fill="#83beff"/><path d="m324.285 110.918-29.044-9.628c-2.599-.862-4.021-3.6934-3.159-6.2925l.261-.7871c.861-2.5991 3.693-4.0209 6.292-3.1592l29.044 9.6278c2.599.861 4.02 3.693 3.159 6.292l-.261.787c-.862 2.6-3.693 4.021-6.292 3.16z" fill="#83beff"/></g><path d="m364.001 228.529.154-5.293s-6.44.512-7.817-.203c0 0-1.684-8.663.324-13.461l.041-.186 13.589-1.588.845 7.694c.458-1.349 4.152-2.784 5.14-.853 2.14 4.185-5.512 7.002-5.512 7.002l.777 6.951" fill="#fb919f"/><path clip-rule="evenodd" d="m364.155 223.236 4.342-.93-4.321 2.915z" fill="#13151b" fill-rule="evenodd" opacity=".400274"/><path clip-rule="evenodd" d="m362.438 219.311s-.628 1.018-1.873.932z" fill="#fff" fill-rule="evenodd"/><path clip-rule="evenodd" d="m362.741 219.499s0-.001-.303-.188-.303-.187-.303-.188l.001-.001-.003.004c-.003.004-.008.012-.015.022-.015.021-.039.053-.072.093-.065.078-.165.184-.297.287-.263.205-.647.395-1.16.359l-.049.711c.732.051 1.285-.225 1.647-.508.181-.14.316-.284.407-.393.046-.055.081-.102.105-.136.013-.017.022-.032.029-.042.004-.005.007-.01.009-.013l.003-.005.001-.001z" fill="#fff" fill-rule="evenodd"/><path clip-rule="evenodd" d="m371.055 215.574c1.015-1.051 2.119-1.496 2.789-1.681l-.128-2.652-6.383-1.112c.439 2.959 2.148 4.573 3.722 5.445z" fill="#ffb942" fill-rule="evenodd"/><path clip-rule="evenodd" d="m356.285 210.607c.575-.547 4.324-.716 8.83-.369 1.048.08 2.052.182 2.981.299 3.072.386 5.332.934 5.699 1.416.408-6.022-3.284-9.609-8.119-9.942-3.172-.22-6.049 1.017-7.771 3.593-.881 1.32-1.46 2.993-1.62 5.003z" fill="#533a71" fill-rule="evenodd"/><path clip-rule="evenodd" d="m356.212 210.726h.002c.006-.042.031-.082.071-.119.575-.547 4.323-.716 8.829-.37 1.048.081 2.053.183 2.982.3-1.322-1.254-3.739-3.236-6.591-4.126-1.22-.381-2.456-.658-3.6-.808-2.776-.367-5.004.01-5.115 1.449-.144 1.873 2.943 3.442 3.422 3.674z" fill="#40295c" fill-rule="evenodd"/><path clip-rule="evenodd" d="m324.879 313.028-.051-4.684 5.657-3.042.821 13.391h-19.598c3.334-4.01 13.171-5.665 13.171-5.665zm31.385-.185-.054-5.572 6.109-.309.556 5.573 1.421 6.113h-14.205c1.786-5.193 6.173-5.805 6.173-5.805z" fill="#0078fa" fill-rule="evenodd"/><path clip-rule="evenodd" d="m356.211 307.271 5.991-1.922.674 7.186-6.611.308zm-31.382 1.073 5.657-1.815.456 6.208-6.062.291z" fill="#fb919f" fill-rule="evenodd"/><path clip-rule="evenodd" d="m362.754 259.073h16.575v4.399c0 5.466-4.487 9.897-10.022 9.897h-4.916-2.391l1.744 36.953h-10.304l-3.832-36.953h-17.899l.483 36.953h-10.481l-4.949-37.903c-.887-7.087 4.657-13.346 11.822-13.346h28.25z" fill="#0078fa" fill-rule="evenodd"/><path clip-rule="evenodd" d="m379.329 259.073h-22.495c-4.647 0-8.28 3.959-7.824 8.527l4.43 42.722h10.304l-1.744-36.953h7.307c5.535 0 10.022-4.431 10.022-9.897z" fill="#fff" fill-rule="evenodd" opacity=".101632"/><path d="m351.987 242.891 3.435 1.823.851 14.304h23.707l.398-14.431 7.496-5.606s-3.535-7.089-9.584-9.91c-1.576-.734-3.558-1.124-5.539-1.31-3.971-.374-7.931.06-8.574.138l-.091.011c-.112.034-.225.067-.333.101-.002 0-.004.002-.006.002-.321.099-.624.195-.912.289-4.013 1.313-5.282 2.376-7.531 5.524-2.137 2.991-3.317 9.065-3.317 9.065z" fill="#ff6b6b"/><path clip-rule="evenodd" d="m373.567 240.854 4.831 5.609 2.231-1.51-.502-.733-1.571 1.064-4.312-5.007z" fill="#13151b" fill-rule="evenodd" opacity=".200219"/><path clip-rule="evenodd" d="m361.672 254.841s-.749.189-.763.657c0 .133 4.562.991 4.562.991l-.993.058-1.033-.049s-.536.099-.566.542c-.011.175.939.363 2.044.507 1.719.225 2.954.026 4.163-.301.102-.029.2-.054.294-.078l-.982-6.279c-.33.299-.954.831-3.639 1.497-.538.133-2.346.158-2.346.158-.531.076-1.647.179-1.724.801-.019.154.175.321.175.321s-.7.048-.743.678c-.018.249 1.551.497 1.551.497z" fill="#13151b" fill-rule="evenodd"/><path clip-rule="evenodd" d="m353.897 263.585h16.584l-3.719-22.757h-16.584z" fill="#13151b" fill-rule="evenodd"/><path clip-rule="evenodd" d="m353.005 263.585h16.585l-3.719-22.757h-16.585z" fill="#0078fa" fill-rule="evenodd"/><path clip-rule="evenodd" d="m372.751 227.761c-.584.916-2.426 3.201-6.378 3.433-4.72.275-3.649-2.618-3.539-2.892.007-.014.011-.022.011-.022s.351-.117.902-.267c.001 0 .002-.001.003-.001s.002-.001.003-.001c.13-.035.272-.073.424-.112.643-.078 4.603-.512 8.574-.138zm.629 22.231-1.151-.392s-.738-.287-1.984-.515c-.461-.085-.846-.1-1.251-.116-.282-.011-.574-.022-.906-.058l.274 1.753c.052.037.099.081.143.129-.025.021-.05.044-.078.069-.009.009-.019.018-.029.027-.33.299-.953.831-3.638 1.497-.539.133-2.346.158-2.346.158-.04.006-.082.011-.127.017v.001c-.564.076-1.526.207-1.597.783-.02.154.175.321.175.321s-.701.048-.744.678c-.018.249 1.551.497 1.551.497s-.749.189-.763.657c0 .133 4.562.991 4.562.991l-.993.058-1.032-.049s-.537.099-.567.542c-.011.175.94.363 2.045.507 1.718.225 2.954.026 4.162-.301.074-.021.147-.04.217-.058l.002-.001c.025-.006.05-.013.075-.019.179-.047.344-.088.5-.127.926-.232 1.529-.383 2.9-1.125.148-.08.311-.177.48-.283 4.108.388 16.561 1.341 17.809-1.209 2.468-5.044-4.027-14.806-4.027-14.806l-7.191 4.999 2.285 3.859zm-16.513 12.811h-3.819l-.856-5.241-1.756 7.457c-1.084 1.236-2.335 2.695-2.524 3.054-.343.651-.977 3.875-.947 4.512s2.006 3.499 2.006 3.499c1.227-.29.426-1.768.426-1.768s1.098.897 1.555.882c4.3-.141 4.069-2.246 3.967-2.51-.228-.592-1.376.085-1.376.085s1.994-3.909 1.735-6.897c.447-.839.996-1.891 1.589-3.073z" fill="#fb919f" fill-rule="evenodd"/><path clip-rule="evenodd" d="m352.881 267.849s0-.001-.258-.07c-.258-.07-.258-.07-.258-.07v-.001.001l-.001.003c-.001.003-.002.008-.004.015-.005.014-.011.036-.021.064-.019.057-.048.14-.09.242-.085.206-.218.488-.412.79-.389.605-1.015 1.276-1.973 1.594-.169.056-.287.179-.372.303-.085.126-.153.277-.211.431-.056.146-.109.309-.162.47-.003.009-.006.018-.008.026-.056.173-.113.345-.177.512-.13.339-.279.62-.475.798-.179.164-.414.255-.778.186l-.101.522c.524.1.932-.035 1.24-.315.292-.266.477-.645.614-1.002.069-.181.13-.366.185-.537l.007-.021c.054-.166.103-.317.155-.45.053-.141.104-.248.155-.322.051-.075.085-.093.097-.097 1.113-.369 1.825-1.144 2.255-1.812.215-.334.362-.646.456-.875.047-.115.081-.209.103-.276.011-.033.019-.059.025-.078.003-.009.005-.017.006-.022l.002-.006.001-.002z" fill="#13151b" fill-rule="evenodd" opacity=".199382"/><path clip-rule="evenodd" d="m364.322 242.663c.074.377.294.652.491.613.197-.038.296-.375.222-.751-.074-.377-.294-.652-.491-.613-.197.038-.296.375-.222.751z" fill="#13151b" fill-rule="evenodd"/><path clip-rule="evenodd" d="m113.649 190.62c0 2.999-1.929 5.431-4.308 5.431s-4.308-2.432-4.308-5.431c0-3 1.929-5.432 4.308-5.432s4.308 2.432 4.308 5.432z" fill="#13151b" fill-rule="evenodd"/><path d="m103.454 212.135-.18-6.238s7.563.604 9.181-.238c0 0 1.978-10.212-.381-15.866l-.048-.22-15.9602-1.871-.8948 9.179c-.5376-1.589-4.9748-3.392-6.1346-1.116-2.5136 4.932 6.4738 8.253 6.4738 8.253l-.9126 8.192" fill="#fb919f"/><path clip-rule="evenodd" d="m103.274 205.897-5.1002-1.096 5.0752 3.437z" fill="#13151b" fill-rule="evenodd" opacity=".398926"/><path d="m96.3566 198.448c-1.5133-2.596-3.7028-3.388-4.6855-3.62-.392-1.135-.6908-2.452-.9008-3.853-.563-3.748 2.1563-7.168 4.3527-8.15 2.2233-.994 6.057-2.371 11.668-.501 3.773 1.257 6.184-1.754 8.404-.468 3.794 2.198.265 11.821-9.354 9.377-6.8801-1.749-7.057-1.31-7.1159-.039-.1908 4.109-.8301 6.526-2.3685 7.254z" fill="#40295c"/><path clip-rule="evenodd" d="m104.417 201.27s.678 1.235 2.144 1.206z" fill="#fff" fill-rule="evenodd"/><path clip-rule="evenodd" d="m104.051 201.472c0-.001 0-.001.366-.202.367-.202.367-.202.367-.202v-.001h-.001c0-.001 0-.001 0-.001v.001l.003.004c.003.006.009.015.017.028.016.025.042.064.078.112.073.097.183.227.332.356.297.257.736.502 1.34.49l.016.837c-.862.017-1.494-.34-1.903-.694-.204-.176-.354-.353-.455-.487-.05-.067-.088-.124-.115-.166-.013-.021-.024-.038-.031-.051-.004-.006-.007-.012-.009-.016l-.003-.005-.002-.002z" fill="#fff" fill-rule="evenodd"/><path clip-rule="evenodd" d="m109.735 352.334.059-5.116-6.591-3.322-.957 14.624h22.837c-3.886-4.38-15.348-6.186-15.348-6.186zm-29.2533.199.0595-5.746-4.2973 3.502-3.4581 1.926-1.1413 6.305h15.6304c-1.9652-5.356-6.7932-5.987-6.7932-5.987z" fill="#0078fa" fill-rule="evenodd"/><path clip-rule="evenodd" d="m80.5417 346.788-6.5915-1.983-1.1641 7.411 7.6962.317zm29.2533.43-6.592-1.982-.531 6.78 7.063.318z" fill="#fb919f" fill-rule="evenodd"/><path d="m110.739 345.541-.152 4.748h-8.694l.152-4.762c-.974-.391-1.67-1.332-1.694-2.443l-1.3992-71.117-15.1223 71.799c-.2131 1.01-.9617 1.794-1.9123 2.083l-.5685 4.44h-9.1164l.7846-4.902c-.7592-.589-1.1991-1.557-1.0478-2.592l13.9224-95.16h12.5815l-.0008-.036h15.2388l-.914 95.352c-.012 1.254-.884 2.303-2.058 2.59z" fill="#0078fa"/><path clip-rule="evenodd" d="m98.874 273.094 2.668-11.836-2.0073 35.885z" fill="#13151b" fill-rule="evenodd" opacity=".197824"/><path clip-rule="evenodd" d="m93.0714 210.748c.4834.845 2.6029 3.967 7.6266 4.262 4.852.283 4.492-2.286 4.239-3.145-.113-.031-.227-.062-.341-.094-1.067-.295-2.203-.61-3.758-.771-4.246-.439-4.5791-.472-7.7666-.252zm38.4586 13.62c-2.309 4.535-10.415 19.419-16.194 17.045-4.327-1.778-9.506-16.515-9.506-16.515l8.419-5.011 3.784 10.128 7.725-8.393c-.262-1.663-.472-3.837.05-4.603.891-1.305 5.395-5.323 5.395-5.323l.82 6.809.144-.574c-.001-.032.007-.067.023-.104l.002-.003c.001-.003.002-.005.003-.008l.332-1.329c-.139-.07-.196-.17-.136-.309.049-.112.155-.235.304-.365l1.132-4.537s.372.166.916.413c.877-.18 4.049 1.976 4.097 2.009l.001.001c.646.417-.89 7.313-2.139 8.594-.887.912-3.65 1.698-5.172 2.075zm-51.5822 30.753.5158.979s.4668.8.9556 2.196c.1806.516.2667.958.3569 1.421.1538.79.3194 1.64.9857 3.022 1.2 2.49-.9463 1.463-1.7159.377-.2529-.357-.3872-.767-.5161-1.161-.1773-.541-.3443-1.05-.7952-1.348-.0225.036-.0476.074-.0748.114-.2872.428-.8112 1.209-1.1151 4.49-.0596.644.2325 2.734.2325 2.734.0004.046.0013.097.0022.15.0116.664.0313 1.796-.6285 1.981-.1766.049-.4065-.146-.4065-.146s.069.817-.6593.98c-.2864.064-.8554-1.7-.8554-1.7s-.0866.895-.6306.995c-.1538.028-1.9695-5.083-1.9695-5.083l.1092 1.154.2411 1.183s-.0195.636-.5307.749c-.2029.044-.5925-1.017-.9576-2.266-.5679-1.943-.5564-3.403-.3892-4.855.0405-.353.0692-.658.0956-.938.1052-1.117.1731-1.838.7974-3.558.0934-.258.2188-.553.3588-.857-.4286-3.7-1.6362-14.528-1.4882-17.853.1793-4.032 4.4515-12.983 4.4515-12.983l8.6733 4.849-4.7805 8.71z" fill="#fb919f" fill-rule="evenodd"/><path clip-rule="evenodd" d="m84.7287 247.667h27.8263l1.019-17.175 4.884-2.847-3.422-7.866-.03.006c-.142-.286-.299-.583-.47-.891-2.123-3.826-5.756-5.983-9.599-7.029-.062-.017-.088-.029-.091-.025-.007.01.126.122.165.515.053.548-.12 1.292-.303 1.519-.429.533-1.078.836-1.339.907s-.468.113-.699.159c-.162.032-1.083.1-1.242.092-1.31-.068-1.9525-.129-2.7775-.325-.292-.069-.5942-.149-.9526-.299-.0672-.029-.1408-.059-.2197-.091-.3872-.159-.903-.371-1.4268-.664-.5539-.31-1.1184-.718-1.527-1.135-.0395-.04-.078-.079-.1153-.117-.4291-.437-.7218-.735-.9246-1.035-.1372-.202-.189-.269-.2194-.309-.0185-.024-.029-.037-.046-.065-.045-.072-.0837-.137-.0948-.179-.0119-.047.0308-.066.0292-.071-.0011-.003-.0201 0-.0825.006-1.9585.194-4.0634.699-6.3587 1.77-7.0993 3.312-11.2484 11.632-11.2484 11.632l8.7983 6.579z" fill="#ff6b6b" fill-rule="evenodd"/><path clip-rule="evenodd" d="m92.2563 226.348-5.6695 6.583-2.619-1.772.5887-.86 1.8447 1.248 5.0604-5.876z" fill="#13151b" fill-rule="evenodd" opacity=".200521"/><path d="m135.217 219.717-.389 1.902h-6.296l2.97-15.141h6.296c-.164.832-.548 2.792-1.154 5.879l-1.237-.572-.386-.107-.304.017-.131.09v.368l1.346 1.93-1.03.447-1.584.829-.457.316-.178.163-.145.13-.092.111-.055.099-.024.129.024.057.027.044.04.04.52.183 1.184-.324h1.17l-1.562.324-1.029.614-.35.329-.198.241v.221l.345.155 2.179-.249-.721.391-.478.296-.439.225-.338.437v.215l.12.126.304.162h.464.935z" fill="#0078fa"/><path clip-rule="evenodd" d="m128.531 221.619h-1.042l2.97-15.141h1.041z" fill="#13151b" fill-rule="evenodd"/><path clip-rule="evenodd" d="m132.585 208.236c-.087.442-.345.765-.577.719-.231-.044-.347-.439-.26-.882.087-.442.345-.764.576-.719s.348.44.261.882z" fill="#13151b" fill-rule="evenodd"/><path d="m491.231 196.338h-15.765l-2.375-.001s-.396-6.002 3.885-10.906c1.239-1.42 1.435-2.66 1.402-4.02-.029-1.171-.226-2.432-.073-3.977.912-6.504 5.971-11.52 13.104-11.52 6.302 0 12.537 3.894 14.261 9.305 1.116 3.5 1 5.513.644 8.268-.676 5.235 2.414 5.265 3.777 8.84.928 2.436.25 4.01.25 4.01h-19.11z" fill="#40295c"/><path clip-rule="evenodd" d="m493.012 193.698s-2.706.08-3.859-.55l3.715 2.332z" fill="#cf3e83" fill-rule="evenodd"/><path d="m503.207 182.545c-.307 3.12-1.29 8.334-4.164 10.246-1.379.917-3.891 1.031-6.03.907l-.491 6.077s-7.517-1.403-6.914-1.932c.055-.049.136-.686.225-1.505h5.398c0-4.131-5.554-5.361-3.108-9.139 2.321-3.584 7.796 2.972 12.485-5.864.049-.091.096-.182.142-.272.705.633 1.535 1.141 2.457 1.482z" fill="#fb919f"/><path clip-rule="evenodd" d="m498.11 189.357c-.001 0-.001 0 .096.299.096.298.096.298.096.299h-.001-.001l-.002.001-.006.001c-.004.002-.01.003-.016.005-.014.004-.031.008-.053.013-.045.01-.106.022-.182.031-.152.018-.364.025-.616-.014-.509-.08-1.161-.346-1.796-1.053l.467-.419c.537.597 1.057.794 1.426.851.188.03.342.024.446.012.052-.006.091-.014.116-.02.012-.002.02-.005.025-.006l.003-.001-.001.001z" fill="#fff" fill-rule="evenodd"/><path clip-rule="evenodd" d="m493.008 193.698s-2.705.08-3.859-.55l3.715 2.332z" fill="#13151b" fill-rule="evenodd" opacity=".397507"/><path clip-rule="evenodd" d="m455.942 326.981c-.018-3.262-.484-6.078-.484-6.078l3.391-10.397-10.248 9.312 6.708 16.506s.659-4.622.633-9.343zm71.975 5.322c-4.909-1.986-14.338 1.572-14.338 1.572l-4.035 1.513 1.792 6.351z" fill="#0078fa" fill-rule="evenodd"/><path d="m495.114 250.218.324 1.475 14.405 65.26 3.736 16.922-4.034 1.513s-2.533-6.716-6.166-16.468c-4.438-11.908-10.513-28.345-15.616-42.608-.296-.83-.588-1.649-.878-2.462-.43.979-.876 1.967-1.339 2.959-2.036 4.383-4.377 8.869-7.064 13.372-4.683 7.85-9.48 14.509-13.474 19.6-5.549 7.074-9.549 11.121-9.549 11.121l-2.444-4.988s3.496-3.239 8.08-10.277c6.053-9.294 14-25.206 18.291-49.022.183-1.006.357-2.028.526-3.062-.146-.459-.286-.901-.418-1.323.002 0 0-.002 0-.002-.878-2.809-1.426-4.811-1.538-5.734-1.018-8.373 3.418-16.59 3.418-16.59l.905-.314c.016-.369.028-.742.04-1.115h16.937c-.187 1.269-.735 6.827-2.511 14.971-.459 2.095-.996 4.362-1.631 6.772z" fill="#fb919f"/><path d="m496.96 244.644c.785 4.371 1.734 9.647 2.868 15.955 5.263 29.286 11.139 56.013 11.139 56.013l-1.124.341-6.464 1.967-2.511.763s-7.717-20.141-14.429-40.197c-.239.556-.485 1.11-.732 1.663-8.787 19.579-18.734 30.715-18.734 30.715l-1.965-2.083-3.913-4.144-.784-.832s11.922-16.086 18.65-49.8c-1.144-4.416-1.927-8.166-2.175-10.838-.679-7.374 3.933-14.023 5.197-15.692h17.563c-.231 1.347-.881 7.523-2.586 16.169z" fill="#0078fa"/><path clip-rule="evenodd" d="m510.966 316.612-1.123.341-6.464 1.967-2.511.763s-7.718-20.141-14.43-40.197c-.3-.892-.598-1.785-.892-2.677-2.365-7.168-4.554-14.21-6.16-20.194-.148-.546-.288-1.083-.426-1.61-1.144-4.416-1.927-8.166-2.174-10.838-.68-7.374 3.933-14.023 5.196-15.692h12.068c.441 2.448 1.29 7.17 2.694 14.971.069.391.142.79.215 1.198.785 4.371 1.734 9.647 2.868 15.955 5.263 29.286 11.139 56.013 11.139 56.013z" fill="#fff" fill-rule="evenodd" opacity=".145368"/><path clip-rule="evenodd" d="m470.483 247.218-1.436-4.595 2.932-14.847-7.465-2.04c-.532 8.2-.422 17.913-.419 18.227-.765 1.359-1.486 3.889-1.842 5.391-.15.635.029 2.852.388 4.068.203.689.652 1.327.652 1.327s.538 1.266.748 1.376c.594.312.856-.297.856-.297s.4 1.828.807 1.649c.251-.11.621-.452.63-.906.058-2.897.625-5.922 1.62-6.444.64-.336.871.803 1.087 1.869.121.594.237 1.166.417 1.447.486.762 2.402 1.306 1.919-.027-.663-1.825-.679-2.592-.704-3.735-.001-.055-.002-.11-.003-.166-.028-1.238-.187-2.297-.187-2.297zm43.844.28c-.18-.353-1.331-1.746-2.37-2.974l-4.667-14.183c-1.796 1.09-4.033 2.45-6.077 3.693l-.062.038 5.971 10.774c-.49 3.082 1.659 7.44 1.659 7.44s-1.131-.689-1.356-.086c-.1.268-.327 2.413 3.908 2.557.45.015 1.531-.899 1.531-.899s-.788 1.506.419 1.801c0 0 1.946-2.915 1.976-3.564s-.595-3.933-.932-4.597z" fill="#fb919f" fill-rule="evenodd"/><path clip-rule="evenodd" d="m509.342 246.482s0 0 .303-.08c.304-.081.304-.081.303-.081l.001.003c.001.003.003.008.005.015.004.014.01.036.019.064.019.057.048.141.089.245.082.208.212.493.402.798.381.612.989 1.285 1.917 1.603.182.063.306.199.391.329.087.131.155.289.213.446.056.151.108.317.16.481.002.009.005.018.008.027.055.176.111.35.174.519.128.345.271.624.456.798.165.155.378.243.718.176l.122.615c-.535.106-.955-.038-1.27-.334-.296-.278-.48-.672-.615-1.036-.069-.186-.129-.375-.184-.55l-.006-.02c-.053-.17-.102-.322-.152-.458-.052-.142-.101-.248-.148-.32-.045-.067-.071-.079-.071-.079-1.112-.382-1.82-1.181-2.246-1.866-.214-.343-.36-.663-.453-.898-.047-.118-.08-.215-.102-.283-.011-.035-.019-.062-.025-.081-.003-.01-.005-.017-.006-.023l-.002-.007-.001-.002z" fill="#13151b" fill-rule="evenodd" opacity=".146066"/><path d="m507.289 230.341c-1.814 1.101-4.077 2.477-6.138 3.731l-1.911-3.505-.201-1.779-18.165-.267s.157-1.693-.228-4.139c-.507-3.199-3.154-6.857-3.154-6.857l-4.701 6.148-.812 4.103-7.465-2.04c.316-2.501.588-4.903 1.307-6.941 2.777-7.881 7.729-16.78 11.686-19.274 4.072-2.565 7.742-1.89 11.148-1.71 5.888.308 8.798.247 11.431 2.664 5.49 5.038 5.325 24.066 5.325 24.066z" fill="#ff6b6b"/><path clip-rule="evenodd" d="m500.943 221.404c-.73 2.047-1.511 4.235-1.757 7.36l-.625-.049c.253-3.216 1.072-5.511 1.808-7.574.25-.701.491-1.375.696-2.049.808-2.649 1.133-5.422-.518-10.137l.592-.207c1.697 4.845 1.372 7.755.527 10.527-.219.715-.468 1.413-.723 2.129z" fill="#13151b" fill-rule="evenodd" opacity=".203265"/><path d="m484.628 197.568.383-2.78 9.141 1.26-.265 1.924c1.722.273 2.663.591 2.663.591l-1.743 12.827-11.886-13.794s.534-.02 1.707-.028z" fill="#0078fa"/><path clip-rule="evenodd" d="m477.232 217.348 3.906-5.751.519.353-3.905 5.751z" fill="#13151b" fill-rule="evenodd" opacity=".203265"/><g filter="url(#a)"><path d="m127 84c0-8.8366 7.163-16 16-16h80c8.837 0 16 7.1634 16 16v96c0 8.837-7.163 16-16 16h-92c-2.209 0-4-1.791-4-4z" fill="#fff"/><path d="m209 108.5c0 14.083-11.417 25.5-25.5 25.5s-25.5-11.417-25.5-25.5c0-14.0833 11.417-25.5 25.5-25.5s25.5 11.4167 25.5 25.5z" fill="#f7f9fa"/><g clip-path="url(#e)"><g clip-path="url(#f)"><path clip-rule="evenodd" d="m196.816 106.483c0 3.618-2.327 6.551-5.197 6.551s-5.196-2.933-5.196-6.551c0-3.619 2.326-6.5518 5.196-6.5518s5.197 2.9328 5.197 6.5518z" fill="#13151b" fill-rule="evenodd"/><path d="m184.518 132.437-.217-7.525s9.124.728 11.075-.288c0 0 2.386-12.318-.459-19.139l-.058-.265-19.253-2.258-1.08 11.073c-.648-1.917-6.001-4.091-7.4-1.345-3.032 5.949 7.809 9.955 7.809 9.955l-1.101 9.882" fill="#fb919f"/><path clip-rule="evenodd" d="m184.301 124.912-6.153-1.322 6.123 4.145z" fill="#13151b" fill-rule="evenodd" opacity=".398926"/><path d="m175.956 115.926c-1.825-3.132-4.466-4.087-5.652-4.367-.473-1.369-.833-2.958-1.087-4.647-.679-4.522 2.602-8.6474 5.251-9.832 2.682-1.1988 7.307-2.8601 14.076-.605 4.55 1.5171 7.459-2.115 10.137-.5638 4.576 2.6516.32 14.2598-11.283 11.3108-8.3-2.109-8.514-1.58-8.585-.047-.23 4.957-1.001 7.873-2.857 8.751z" fill="#40295c"/><g clip-rule="evenodd" fill="#fff" fill-rule="evenodd"><path d="m185.68 119.33s.818 1.49 2.586 1.454z"/><path d="m185.237 119.573s0 0 .443-.243c.442-.243.442-.243.442-.243v-.001h-.001v-.001-.001.001l.003.005c.004.007.011.018.02.033.02.031.051.078.095.136.087.117.221.274.401.429.357.31.887.606 1.615.592l.021 1.009c-1.04.021-1.803-.41-2.297-.837-.245-.212-.427-.426-.548-.587-.061-.081-.107-.15-.139-.201-.016-.025-.029-.046-.038-.061-.004-.008-.008-.014-.011-.019l-.004-.007-.001-.002v-.001z"/></g></g></g><path clip-rule="evenodd" d="m183.5 132c12.979 0 23.5-10.521 23.5-23.5 0-12.9787-10.521-23.5-23.5-23.5s-23.5 10.5213-23.5 23.5c0 12.979 10.521 23.5 23.5 23.5zm0 2c14.083 0 25.5-11.417 25.5-25.5 0-14.0833-11.417-25.5-25.5-25.5s-25.5 11.4167-25.5 25.5c0 14.083 11.417 25.5 25.5 25.5z" fill="#e1e4e6" fill-rule="evenodd"/><path d="m202.583 89.3912-1.237-1.2374-2.888 2.8874-1.237-1.2375-1.238 1.2375 2.475 2.4748z" fill="#fff"/><path d="m192.779 88.7052c.505 2.6423 2.113 8.7116 6.221 8.7116 4.107 0 5.715-6.0693 6.22-8.7116.14-.7324-.206-1.4561-.852-1.829-1.484-.8568-4.153-2.2927-5.368-2.2927-1.216 0-3.885 1.4359-5.369 2.2927-.646.3729-.992 1.0966-.852 1.829zm8.566-.5509 1.238 1.2374-4.125 4.1248-2.475-2.4749 1.238-1.2374 1.237 1.2374z" fill="#20a154"/><rect fill="#13151b" height="21" rx="10.5" width="82" x="142" y="141"/><g clip-path="url(#g)"><path d="m163.543 167.417c.175-.397.738-.397.914 0l1.116 2.518c.072.164.227.277.405.295l2.476.258c.419.043.6.554.301.851l-1.793 1.788c-.122.121-.173.297-.135.464l.608 2.678c.096.425-.36.762-.738.543l-2.447-1.413c-.155-.09-.346-.09-.5 0l-2.447 1.413c-.378.219-.835-.118-.738-.543l.607-2.678c.038-.167-.012-.343-.134-.464l-1.793-1.788c-.298-.297-.117-.808.302-.851l2.474-.258c.178-.018.333-.131.406-.295z" fill="#ffb942"/><g clip-path="url(#h)"><rect fill="#ffb942" height="8" rx="4" width="36" x="170.903" y="168"/></g></g></g><g filter="url(#b)"><path d="m260 137.854c0-12.07 9.784-21.854 21.854-21.854h38.292c12.07 0 21.854 9.784 21.854 21.854v66.397c0 3.017-2.446 5.463-5.463 5.463h-54.683c-12.07 0-21.854-9.784-21.854-21.853z" fill="#fff"/><path d="m320.036 145.652c0 10.311-8.359 18.669-18.67 18.669s-18.67-8.358-18.67-18.669 8.359-18.67 18.67-18.67 18.67 8.359 18.67 18.67z" fill="#f7f9fa"/><g clip-path="url(#i)"><g clip-path="url(#j)"><path d="m302.103 162.99-.159-5.486s6.675.531 8.103-.21c0 0 1.745-8.981-.336-13.954l-.043-.194-14.086-1.646-.877 7.976c-.474-1.398-4.303-2.885-5.327-.883-2.219 4.337 5.713 7.258 5.713 7.258l-.805 7.205" fill="#fb919f"/><g clip-rule="evenodd" fill-rule="evenodd"><path d="m301.943 157.503-4.501-.963 4.48 3.022z" fill="#13151b" opacity=".400274"/><path d="m303.723 153.435s.651 1.055 1.942.965z" fill="#fff"/><path d="m303.408 153.629s0 0 .314-.194c.315-.194.315-.195.315-.195h-.001v-.001l.003.004c.003.004.008.012.015.023.016.022.041.055.074.096.069.081.172.191.309.298.272.212.67.409 1.202.372l.051.737c-.759.053-1.332-.233-1.708-.526-.187-.146-.327-.295-.422-.408-.047-.057-.083-.106-.108-.141-.013-.018-.023-.033-.03-.044-.004-.005-.007-.01-.009-.013l-.003-.005-.001-.002z" fill="#fff"/><path d="m294.79 149.561c-1.051-1.089-2.196-1.551-2.891-1.742l.133-2.749 6.617-1.153c-.456 3.067-2.227 4.74-3.859 5.644z" fill="#ffb942"/><path d="m310.101 144.412c-.596-.566-4.482-.742-9.152-.382-1.087.083-2.128.188-3.091.31-3.184.4-5.527.968-5.908 1.467-.423-6.242 3.405-9.96 8.417-10.306 3.288-.227 6.27 1.055 8.055 3.725.913 1.368 1.514 3.103 1.679 5.186z" fill="#533a71"/><path d="m310.176 144.536h-.002c-.006-.044-.032-.085-.073-.124-.596-.566-4.482-.742-9.153-.382-1.086.083-2.128.188-3.091.31 1.37-1.3 3.876-3.355 6.833-4.277 1.264-.394 2.546-.682 3.731-.837 2.878-.381 5.187.01 5.303 1.502.148 1.941-3.051 3.567-3.548 3.808z" fill="#40295c"/></g></g></g><path clip-rule="evenodd" d="m301.366 162.857c9.502 0 17.205-7.703 17.205-17.205 0-9.503-7.703-17.206-17.205-17.206s-17.205 7.703-17.205 17.206c0 9.502 7.703 17.205 17.205 17.205zm0 1.464c10.311 0 18.67-8.358 18.67-18.669s-8.359-18.67-18.67-18.67-18.67 8.359-18.67 18.67 8.359 18.669 18.67 18.669z" fill="#e1e4e6" fill-rule="evenodd"/><g clip-path="url(#k)"><path d="m315.338 131.661-.906-.906-2.114 2.114-.906-.906-.906.906 1.812 1.812z" fill="#fff"/><g clip-path="url(#l)"><path d="m308.159 131.159c.37 1.935 1.548 6.378 4.555 6.378s4.184-4.443 4.554-6.378c.103-.536-.151-1.066-.624-1.339-1.086-.627-3.04-1.678-3.93-1.678s-2.844 1.051-3.931 1.678c-.473.273-.726.803-.624 1.339zm6.272-.403.906.906-3.02 3.02-1.812-1.812.906-.906.906.906z" fill="#20a154"/></g></g><rect fill="#13151b" height="15.375" rx="7.6875" width="60.0357" x="270.982" y="169.446"/><g clip-path="url(#m)"><path d="m286.754 188.787c.129-.29.541-.29.67 0l.817 1.844c.053.12.166.202.296.216l1.813.189c.307.031.439.405.221.623l-1.313 1.309c-.09.089-.127.217-.099.34l.445 1.96c.07.312-.264.558-.54.398l-1.792-1.035c-.113-.065-.253-.065-.366 0l-1.792 1.035c-.276.16-.611-.086-.54-.398l.445-1.96c.028-.123-.009-.251-.098-.34l-1.313-1.309c-.218-.218-.086-.592.221-.623l1.811-.189c.131-.014.244-.096.297-.216z" fill="#ffb942"/><g clip-path="url(#n)"><rect fill="#ffb942" height="5.85714" rx="2.92857" width="26.3571" x="292.144" y="189.214"/></g></g></g><g filter="url(#c)"><path d="m368 107.013c0-10.5005 8.513-19.013 19.013-19.013h56.224c10.5 0 19.013 8.5125 19.013 19.013v83.948c0 2.625-2.128 4.753-4.753 4.753h-70.484c-10.5 0-19.013-8.512-19.013-19.013z" fill="#fff"/><path d="m437.004 122.081c0 11.852-9.607 21.459-21.458 21.459-11.852 0-21.459-9.607-21.459-21.459 0-11.851 9.607-21.458 21.459-21.458 11.851 0 21.458 9.607 21.458 21.458z" fill="#f7f9fa"/><g clip-path="url(#o)"><path d="m414.706 139.352h-15.075l-2.27-.001s-.378-5.191 3.715-9.433c1.184-1.228 1.372-2.3 1.34-3.477-.028-1.012-.216-2.103-.07-3.439.872-5.626 5.71-9.965 12.53-9.965 6.026 0 11.987 3.368 13.636 8.048 1.066 3.028.955 4.769.615 7.152-.646 4.527 2.308 4.554 3.611 7.645.888 2.107.239 3.469.239 3.469h-18.271z" fill="#40295c"/><path clip-rule="evenodd" d="m416.409 137.069s-2.587.069-3.689-.476l3.552 2.018z" fill="#cf3e83" fill-rule="evenodd"/><path d="m426.157 127.422c-.294 2.699-1.234 7.208-3.982 8.862-1.319.793-3.72.891-5.766.785l-.469 5.256s-7.188-1.214-6.611-1.672c.052-.041.13-.593.215-1.301h5.162c0-3.573-5.311-4.637-2.972-7.905 2.22-3.1 7.454 2.571 11.938-5.072.046-.079.091-.157.135-.234.674.547 1.468.986 2.35 1.281z" fill="#fb919f"/><g clip-rule="evenodd" fill-rule="evenodd"><path d="m421.282 133.314s0 0 .092.258.092.258.092.259h-.001-.001-.002l-.005.002c-.004.001-.01.003-.016.004-.013.003-.03.007-.051.012-.042.008-.101.018-.173.026-.146.016-.348.022-.589-.012-.487-.069-1.11-.3-1.718-.911l.446-.363c.514.517 1.012.687 1.364.737.18.026.327.02.427.01.049-.005.087-.012.11-.017.012-.002.02-.004.024-.005l.003-.001h.001-.001-.001z" fill="#fff"/><path d="m416.405 137.068s-2.586.069-3.689-.475l3.552 2.017z" fill="#13151b" opacity=".397507"/></g></g><path clip-rule="evenodd" d="m415.546 141.857c10.921 0 19.775-8.854 19.775-19.776s-8.854-19.775-19.775-19.775c-10.922 0-19.776 8.853-19.776 19.775s8.854 19.776 19.776 19.776zm0 1.683c11.851 0 21.458-9.607 21.458-21.459 0-11.851-9.607-21.458-21.458-21.458-11.852 0-21.459 9.607-21.459 21.458 0 11.852 9.607 21.459 21.459 21.459z" fill="#e1e4e6" fill-rule="evenodd"/><g clip-path="url(#p)"><path d="m431.605 106.001-1.042-1.041-2.43 2.43-1.041-1.042-1.041 1.042 2.082 2.082z" fill="#fff"/><g clip-path="url(#q)"><path d="m423.354 105.424c.425 2.223 1.779 7.331 5.235 7.331s4.809-5.108 5.235-7.331c.118-.617-.174-1.226-.717-1.54-1.249-.721-3.495-1.929-4.518-1.929s-3.269 1.208-4.518 1.929c-.543.314-.835.923-.717 1.54zm7.209-.464 1.041 1.041-3.471 3.471-2.082-2.082 1.041-1.042 1.041 1.042z" fill="#20a154"/></g></g><rect fill="#13151b" height="17.6719" rx="8.83594" width="69.0045" x="380.623" y="149.431"/><g clip-path="url(#r)"><path d="m398.751 171.661c.148-.334.622-.334.77 0l.939 2.12c.061.137.191.232.341.248l2.083.216c.353.037.505.467.254.717l-1.51 1.504c-.102.102-.145.25-.113.391l.511 2.253c.082.358-.303.641-.62.458l-2.06-1.19c-.13-.075-.29-.075-.421 0l-2.059 1.19c-.318.183-.702-.1-.621-.458l.512-2.253c.032-.141-.011-.289-.114-.391l-1.508-1.504c-.251-.251-.099-.68.253-.717l2.083-.216c.15-.016.28-.111.341-.248z" fill="#ffb942"/><g clip-path="url(#s)"><rect fill="#ffb942" height="6.73214" rx="3.36607" width="30.2946" x="404.945" y="172.152"/></g></g></g></g></svg>